#created with MagicaVoxel and VoxelOptimizer  - v:598 - f:466
o attack_box
mtllib attack_box.mtl
vn 0 1 0
vn 0 -1 0
vn -1 0 0
vn 1 0 0
vn 0 0 1
vn 0 0 -1
v -8 0 -8
v -8 0 8
v -7 0 8
v -7 0 -8
v -8 1 -8
v -8 1 8
v -7 1 8
v -7 1 -8
v -7 0 -7
v 8 0 -7
v 8 0 -8
v -7 1 -7
v 8 1 -7
v 8 1 -8
v -7 0 7
v 8 0 8
v 8 0 7
v -7 1 7
v 8 1 8
v 8 1 7
v 7 0 -7
v 7 0 7
v 7 1 -7
v 7 1 7
v -8 1 -7
v -8 16 -8
v -8 16 -7
v -7 16 -7
v -7 16 -8
v -8 1 7
v -8 16 7
v -8 16 8
v -7 16 8
v -7 16 7
v -7 2 -7
v -7 2 7
v 7 2 7
v 7 2 -7
v 7 1 -8
v 7 16 -8
v 7 16 -7
v 8 16 -7
v 8 16 -8
v 7 1 8
v 7 16 7
v 7 16 8
v 8 16 8
v 8 16 7
v -7 2 -6
v 0 2 -6
v 0 2 -7
v -7 7 -7
v -7 7 -6
v 0 7 -6
v 0 7 -7
v -7 2 -4
v -7 2 -1
v 7 2 -1
v 7 2 -4
v -7 3 -4
v -7 3 -1
v 7 3 -1
v 7 3 -4
v -7 2 0
v -6 2 7
v -6 2 0
v -7 7 0
v -7 7 7
v -6 7 7
v -6 7 0
v -6 2 -6
v -6 2 6
v 6 2 6
v 6 2 -6
v -6 15 -6
v -6 15 6
v 6 15 6
v 6 15 -6
v -4 2 6
v -4 2 7
v -1 2 7
v -1 2 6
v -4 3 6
v -4 3 7
v -1 3 7
v -1 3 6
v 0 2 6
v 0 2 7
v 7 2 6
v 0 7 6
v 0 7 7
v 7 7 7
v 7 7 6
v 1 2 -7
v 1 2 -6
v 4 2 -6
v 4 2 -7
v 1 3 -7
v 1 3 -6
v 4 3 -6
v 4 3 -7
v 6 2 -7
v 6 2 0
v 7 2 0
v 6 7 -7
v 6 7 0
v 7 7 0
v 7 7 -7
v 6 2 1
v 6 2 4
v 7 2 4
v 7 2 1
v 6 3 1
v 6 3 4
v 7 3 4
v 7 3 1
v -7 3 -3
v -7 3 -2
v -6 3 -2
v -6 3 -3
v -7 4 -3
v -7 4 -2
v -6 4 -2
v -6 4 -3
v -3 3 6
v -3 3 7
v -2 3 7
v -2 3 6
v -3 4 6
v -3 4 7
v -2 4 7
v -2 4 6
v 2 3 -7
v 2 3 -6
v 3 3 -6
v 3 3 -7
v 2 4 -7
v 2 4 -6
v 3 4 -6
v 3 4 -7
v 6 3 2
v 6 3 3
v 7 3 3
v 7 3 2
v 6 4 2
v 6 4 3
v 7 4 3
v 7 4 2
v -7 4 -6
v -7 4 -5
v -6 4 -5
v -6 4 -6
v -7 7 -5
v -6 7 -5
v -6 7 -6
v -7 4 -4
v -6 4 -4
v -7 5 -4
v -7 5 -3
v -6 5 -3
v -6 5 -4
v -7 4 -1
v -7 4 0
v -6 4 0
v -6 4 -1
v -7 6 -1
v -7 6 0
v -6 6 0
v -6 6 -1
v -6 4 6
v -6 4 7
v -5 4 7
v -5 4 6
v -6 7 6
v -5 7 7
v -5 7 6
v -4 4 6
v -4 4 7
v -4 5 6
v -4 5 7
v -3 5 7
v -3 5 6
v -1 4 6
v -1 4 7
v 0 4 7
v 0 4 6
v -1 6 6
v -1 6 7
v 0 6 7
v 0 6 6
v 0 4 -7
v 0 4 -6
v 1 4 -6
v 1 4 -7
v 0 6 -7
v 0 6 -6
v 1 6 -6
v 1 6 -7
v 4 4 -6
v 4 4 -7
v 3 5 -7
v 3 5 -6
v 4 5 -6
v 4 5 -7
v 5 4 -7
v 5 4 -6
v 6 4 -6
v 6 4 -7
v 5 7 -7
v 5 7 -6
v 6 7 -6
v 6 4 0
v 6 4 1
v 7 4 1
v 7 4 0
v 6 6 0
v 6 6 1
v 7 6 1
v 7 6 0
v 6 4 4
v 7 4 4
v 6 5 3
v 6 5 4
v 7 5 4
v 7 5 3
v 6 4 5
v 6 4 6
v 7 4 6
v 7 4 5
v 6 7 5
v 6 7 6
v 7 7 5
v -7 5 -5
v -6 5 -5
v -7 6 -5
v -7 6 -4
v -6 6 -4
v -6 6 -5
v -7 5 -2
v -6 5 -2
v -7 6 -3
v -7 6 -2
v -6 6 -2
v -6 6 -3
v -5 5 6
v -5 5 7
v -5 6 6
v -5 6 7
v -4 6 7
v -4 6 6
v -2 5 7
v -2 5 6
v -3 6 6
v -3 6 7
v -2 6 7
v -2 6 6
v 2 5 -7
v 2 5 -6
v 2 6 -7
v 2 6 -6
v 3 6 -6
v 3 6 -7
v 5 5 -6
v 5 5 -7
v 4 6 -7
v 4 6 -6
v 5 6 -6
v 5 6 -7
v 6 5 2
v 7 5 2
v 6 6 2
v 6 6 3
v 7 6 3
v 7 6 2
v 6 5 5
v 7 5 5
v 6 6 4
v 6 6 5
v 7 6 5
v 7 6 4
v -7 7 -2
v -7 7 -1
v -6 7 -1
v -6 7 -2
v -2 7 6
v -2 7 7
v -1 7 7
v -1 7 6
v 1 7 -7
v 1 7 -6
v 2 7 -6
v 2 7 -7
v 6 7 1
v 6 7 2
v 7 7 2
v 7 7 1
v -1 7 -6
v -1 7 -7
v -7 8 -7
v -7 8 -6
v -1 8 -6
v -1 8 -7
v -7 7 -4
v 7 7 -2
v 7 7 -4
v -7 9 -4
v -7 9 -2
v 7 9 -2
v 7 9 -4
v -7 7 1
v -6 7 1
v -7 8 1
v -7 8 7
v -6 8 7
v -6 8 1
v -4 7 6
v -4 7 7
v -4 15 6
v -4 15 7
v -2 15 7
v -2 15 6
v 1 7 6
v 1 7 7
v 1 8 6
v 1 8 7
v 7 8 7
v 7 8 6
v 4 7 -6
v 4 7 -7
v 2 15 -7
v 2 15 -6
v 4 15 -6
v 4 15 -7
v 6 7 -1
v 7 7 -1
v 6 8 -7
v 6 8 -1
v 7 8 -1
v 7 8 -7
v 6 7 4
v 7 7 4
v 6 15 2
v 6 15 4
v 7 15 4
v 7 15 2
v -7 8 -1
v -2 8 -1
v -2 8 -7
v -7 9 -7
v -7 9 -1
v -2 9 -1
v -2 9 -7
v -7 8 2
v -1 8 7
v -1 8 2
v -7 9 2
v -7 9 7
v -1 9 7
v -1 9 2
v 1 8 -7
v 1 8 -6
v 7 8 -6
v 1 15 -7
v 1 15 -6
v 7 15 -6
v 7 15 -7
v 2 8 6
v 2 8 7
v 2 9 6
v 2 9 7
v 7 9 7
v 7 9 6
v 6 8 -6
v 6 8 -4
v 7 8 -4
v 6 11 -6
v 6 11 -4
v 7 11 -4
v 7 11 -6
v 6 8 1
v 6 8 6
v 7 8 1
v 6 15 1
v 7 15 6
v 7 15 1
v -7 9 0
v -3 9 0
v -3 9 -7
v -7 10 -7
v -7 10 0
v -3 10 0
v -3 10 -7
v -7 9 3
v 0 9 7
v 0 9 3
v -7 10 3
v -7 10 7
v 0 10 7
v 0 10 3
v 0 9 -7
v 0 9 -6
v 1 9 -6
v 1 9 -7
v 0 15 -7
v 0 15 -6
v 3 9 6
v 3 9 7
v 3 10 6
v 3 10 7
v 7 10 7
v 7 10 6
v 6 9 -4
v 6 9 -3
v 7 9 -3
v 6 10 -4
v 6 10 -3
v 7 10 -3
v 7 10 -4
v 6 9 0
v 6 9 1
v 7 9 1
v 7 9 0
v 6 15 0
v 7 15 0
v -7 10 1
v -4 10 1
v -4 10 -7
v -7 11 -7
v -7 11 1
v -4 11 1
v -4 11 -7
v -7 10 2
v -6 10 3
v -6 10 2
v -7 11 2
v -7 11 3
v -6 11 3
v -6 11 2
v -7 10 4
v 1 10 7
v 1 10 4
v -7 11 4
v -7 11 7
v 1 11 7
v 1 11 4
v -1 10 -7
v -1 10 -6
v 0 10 -6
v 0 10 -7
v -1 15 -7
v -1 15 -6
v 4 10 6
v 4 10 7
v 4 11 6
v 4 11 7
v 7 11 7
v 7 11 6
v 6 10 -1
v 6 10 0
v 7 10 0
v 7 10 -1
v 6 15 -1
v 7 15 -1
v -5 11 2
v -5 11 -7
v -7 12 -7
v -7 12 2
v -5 12 2
v -5 12 -7
v -6 11 4
v -7 12 3
v -7 12 4
v -6 12 4
v -6 12 3
v -7 11 5
v 2 11 7
v 2 11 5
v -7 12 5
v -7 12 7
v 2 12 7
v 2 12 5
v -4 11 -6
v -3 11 -6
v -3 11 -7
v -4 12 -7
v -4 12 -6
v -3 12 -6
v -3 12 -7
v -2 11 -7
v -2 11 -6
v -1 11 -6
v -1 11 -7
v -2 15 -7
v -2 15 -6
v 3 11 6
v 3 11 7
v 3 12 6
v 3 12 7
v 4 12 7
v 4 12 6
v 5 11 6
v 5 11 7
v 5 12 6
v 5 12 7
v 7 12 7
v 7 12 6
v 6 11 -5
v 7 11 -5
v 6 12 -6
v 6 12 -5
v 7 12 -5
v 7 12 -6
v 6 11 -3
v 7 11 -3
v 6 12 -4
v 6 12 -3
v 7 12 -3
v 7 12 -4
v 6 11 -2
v 6 11 -1
v 7 11 -1
v 7 11 -2
v 6 15 -2
v 7 15 -2
v -6 12 -7
v -7 15 -7
v -7 15 3
v -6 15 3
v -6 15 -7
v -7 12 6
v -7 15 6
v -7 15 7
v 3 15 7
v 3 15 6
v -5 12 -6
v -5 13 -7
v -5 13 -6
v -4 13 -6
v -4 13 -7
v -2 12 -6
v -2 12 -7
v -3 15 -7
v -3 15 -6
v 4 13 6
v 4 13 7
v 5 13 7
v 5 13 6
v 6 13 -5
v 6 13 -4
v 7 13 -4
v 7 13 -5
v 6 12 7
v 6 15 -3
v 6 15 7
v 7 15 7
v 7 15 -3
v -7 13 3
v -7 13 4
v -6 13 4
v -6 13 3
v -7 15 4
v -6 15 4
v -3 13 -6
v -3 13 -7
v -4 15 -7
v -4 15 -6
v 3 13 6
v 3 13 7
v 4 15 7
v 4 15 6
v 6 13 -3
v 7 13 -3
v 6 15 -4
v 7 15 -4
v -7 14 4
v -7 14 6
v -6 14 6
v -6 14 4
v -6 14 -7
v -6 14 -6
v -4 14 -6
v -4 14 -7
v 4 14 6
v 4 14 7
v 6 14 7
v 6 14 6
v 6 14 -6
v 6 14 -4
v 7 14 -4
v 7 14 -6
v -8 15 -7
v -8 15 7
v -7 15 -8
v 7 15 -8
v -7 15 8
v 7 15 8
v 8 15 7
v 8 15 -7
vt 0.0000 1.0000
vt 0.0000 0.5938
vt 0.3750 0.5938
vt 0.3750 1.0000
vt 0.0000 0.1875
vt 0.3750 0.1875
vt 0.0000 0.1562
vt 0.0312 0.1562
vt 0.0312 0.1875
vt 0.0000 0.1250
vt 0.0312 0.1250
usemtl x
f 5/7/1 6/8/1 7/9/1 8/5/1
f 4/7/2 3/8/2 2/9/2 1/5/2
f 4/7/6 1/8/6 5/9/6 8/5/6
f 2/7/5 3/8/5 7/9/5 6/5/5
f 1/7/3 2/8/3 6/9/3 5/5/3
f 3/7/4 4/8/4 8/9/4 7/5/4
f 8/7/1 12/8/1 13/9/1 14/5/1
f 11/7/2 10/8/2 9/9/2 4/5/2
f 11/7/6 4/8/6 8/9/6 14/5/6
f 9/7/5 10/8/5 13/9/5 12/5/5
f 10/7/4 11/8/4 14/9/4 13/5/4
f 18/7/1 7/8/1 19/9/1 20/5/1
f 17/7/2 16/8/2 3/9/2 15/5/2
f 17/7/6 15/8/6 18/9/6 20/5/6
f 3/7/5 16/8/5 19/9/5 7/5/5
f 16/7/4 17/8/4 20/9/4 19/5/4
f 23/7/1 24/8/1 20/9/1 13/5/1
f 10/7/2 17/8/2 22/9/2 21/5/2
f 21/7/3 22/8/3 24/9/3 23/5/3
f 17/7/4 10/8/4 13/9/4 20/5/4
f 26/7/1 27/8/1 28/9/1 29/5/1
f 8/7/6 5/8/6 26/9/6 29/5/6
f 25/7/5 12/8/5 28/9/5 27/5/5
f 5/7/3 25/8/3 27/9/3 26/5/3
f 12/7/4 8/8/4 29/9/4 28/5/4
f 31/7/1 32/8/1 33/9/1 34/5/1
f 18/7/6 30/8/6 31/9/6 34/5/6
f 6/7/5 7/8/5 33/9/5 32/5/5
f 30/7/3 6/8/3 32/9/3 31/5/3
f 7/7/4 18/8/4 34/9/4 33/5/4
f 35/10/1 36/11/1 37/8/1 38/7/1
f 23/10/2 24/11/2 18/8/2 12/7/2
f 23/10/6 12/11/6 35/8/6 38/7/6
f 18/10/5 24/11/5 37/8/5 36/7/5
f 12/10/3 18/11/3 36/8/3 35/7/3
f 24/10/4 23/11/4 38/8/4 37/7/4
f 40/7/1 41/8/1 42/9/1 43/5/1
f 14/7/6 39/8/6 40/9/6 43/5/6
f 23/7/5 13/8/5 42/9/5 41/5/5
f 39/7/3 23/8/3 41/9/3 40/5/3
f 13/7/4 14/8/4 43/9/4 42/5/4
f 45/7/1 46/8/1 47/9/1 48/5/1
f 20/7/6 24/8/6 45/9/6 48/5/6
f 44/7/5 19/8/5 47/9/5 46/5/5
f 24/7/3 44/8/3 46/9/3 45/5/3
f 19/7/4 20/8/4 48/9/4 47/5/4
f 52/10/1 53/11/1 54/8/1 55/7/1
f 51/10/6 35/11/6 52/8/6 55/7/6
f 49/10/5 50/11/5 54/8/5 53/7/5
f 35/10/3 49/11/3 53/8/3 52/7/3
f 50/10/4 51/11/4 55/8/4 54/7/4
f 60/10/1 61/11/1 62/8/1 63/7/1
f 59/10/6 56/11/6 60/8/6 63/7/6
f 57/10/5 58/11/5 62/8/5 61/7/5
f 56/10/3 57/11/3 61/8/3 60/7/3
f 58/10/4 59/11/4 63/8/4 62/7/4
f 67/10/1 68/11/1 69/8/1 70/7/1
f 66/10/6 64/11/6 67/8/6 70/7/6
f 36/10/5 65/11/5 69/8/5 68/7/5
f 64/10/3 36/11/3 68/8/3 67/7/3
f 65/10/4 66/11/4 70/8/4 69/7/4
f 75/10/1 76/11/1 77/8/1 78/7/1
f 74/2/6 71/3/6 75/4/6 78/1/6
f 72/2/5 73/3/5 77/4/5 76/1/5
f 71/5/3 72/6/3 76/3/3 75/2/3
f 73/2/4 74/3/4 78/4/4 77/1/4
f 83/10/1 84/11/1 85/8/1 86/7/1
f 80/10/5 81/11/5 85/8/5 84/7/5
f 79/10/3 80/11/3 84/8/3 83/7/3
f 81/10/4 82/11/4 86/8/4 85/7/4
f 90/10/1 91/11/1 92/8/1 93/7/1
f 89/10/6 87/11/6 90/8/6 93/7/6
f 88/10/5 37/11/5 92/8/5 91/7/5
f 87/10/3 88/11/3 91/8/3 90/7/3
f 37/10/4 89/11/4 93/8/4 92/7/4
f 98/10/1 99/11/1 100/8/1 101/7/1
f 97/10/6 94/11/6 98/8/6 101/7/6
f 94/10/3 95/11/3 99/8/3 98/7/3
f 96/10/4 97/11/4 101/8/4 100/7/4
f 105/10/1 106/11/1 107/8/1 108/7/1
f 38/10/6 102/11/6 105/8/6 108/7/6
f 103/10/5 104/11/5 107/8/5 106/7/5
f 102/10/3 103/11/3 106/8/3 105/7/3
f 104/10/4 38/11/4 108/8/4 107/7/4
f 113/10/1 114/11/1 115/8/1 116/7/1
f 112/10/6 109/11/6 113/8/6 116/7/6
f 110/10/5 111/11/5 115/8/5 114/7/5
f 111/10/4 112/11/4 116/8/4 115/7/4
f 121/10/1 122/11/1 123/8/1 124/7/1
f 120/10/6 117/11/6 121/8/6 124/7/6
f 118/10/5 119/11/5 123/8/5 122/7/5
f 117/10/3 118/11/3 122/8/3 121/7/3
f 129/10/1 130/11/1 131/8/1 132/7/1
f 126/10/5 127/11/5 131/8/5 130/7/5
f 125/10/3 126/11/3 130/8/3 129/7/3
f 127/10/4 128/11/4 132/8/4 131/7/4
f 137/10/1 138/11/1 139/8/1 140/7/1
f 136/10/6 133/11/6 137/8/6 140/7/6
f 133/10/3 134/11/3 138/8/3 137/7/3
f 135/10/4 136/11/4 140/8/4 139/7/4
f 145/10/1 146/11/1 147/8/1 148/7/1
f 144/10/6 141/11/6 145/8/6 148/7/6
f 142/10/5 143/11/5 147/8/5 146/7/5
f 143/10/4 144/11/4 148/8/4 147/7/4
f 53/10/1 153/11/1 154/8/1 155/7/1
f 152/10/2 151/11/2 150/8/2 149/7/2
f 150/10/5 151/11/5 154/8/5 153/7/5
f 149/10/3 150/11/3 153/8/3 53/7/3
f 158/10/1 159/11/1 160/8/1 161/7/1
f 157/10/2 124/11/2 121/8/2 156/7/2
f 157/10/6 156/11/6 158/8/6 161/7/6
f 121/10/5 124/11/5 160/8/5 159/7/5
f 156/10/3 121/11/3 159/8/3 158/7/3
f 166/10/1 167/11/1 168/8/1 169/7/1
f 165/10/2 164/11/2 163/8/2 162/7/2
f 165/10/6 162/11/6 166/8/6 169/7/6
f 162/10/3 163/11/3 167/8/3 166/7/3
f 174/10/1 69/11/1 175/8/1 176/7/1
f 173/10/2 172/11/2 171/8/2 170/7/2
f 171/10/5 172/11/5 175/8/5 69/7/5
f 172/10/4 173/11/4 176/8/4 175/7/4
f 179/10/1 180/11/1 181/8/1 182/7/1
f 129/10/2 130/11/2 178/8/2 177/7/2
f 178/10/5 130/11/5 181/8/5 180/7/5
f 177/10/3 178/11/3 180/8/3 179/7/3
f 130/10/4 129/11/4 182/8/4 181/7/4
f 187/10/1 188/11/1 189/8/1 190/7/1
f 186/10/2 185/11/2 184/8/2 183/7/2
f 184/10/5 185/11/5 189/8/5 188/7/5
f 183/10/3 184/11/3 188/8/3 187/7/3
f 195/10/1 196/11/1 197/8/1 198/7/1
f 194/10/2 193/11/2 192/8/2 191/7/2
f 194/10/6 191/11/6 195/8/6 198/7/6
f 193/10/4 194/11/4 198/8/4 197/7/4
f 201/10/1 202/11/1 203/8/1 204/7/1
f 200/10/2 199/11/2 139/8/2 140/7/2
f 200/10/6 140/11/6 201/8/6 204/7/6
f 140/10/3 139/11/3 202/8/3 201/7/3
f 199/10/4 200/11/4 204/8/4 203/7/4
f 209/10/1 210/11/1 211/8/1 105/7/1
f 208/10/2 207/11/2 206/8/2 205/7/2
f 208/10/6 205/11/6 209/8/6 105/7/6
f 205/10/3 206/11/3 210/8/3 209/7/3
f 216/10/1 217/11/1 218/8/1 219/7/1
f 215/10/2 214/11/2 213/8/2 212/7/2
f 213/10/5 214/11/5 218/8/5 217/7/5
f 214/10/4 215/11/4 219/8/4 218/7/4
f 222/10/1 223/11/1 224/8/1 225/7/1
f 147/10/2 221/11/2 220/8/2 146/7/2
f 147/10/6 146/11/6 222/8/6 225/7/6
f 220/10/5 221/11/5 224/8/5 223/7/5
f 221/10/4 147/11/4 225/8/4 224/7/4
f 230/10/1 231/11/1 93/8/1 232/7/1
f 229/10/2 228/11/2 227/8/2 226/7/2
f 229/10/6 226/11/6 230/8/6 232/7/6
f 228/10/4 229/11/4 232/8/4 93/7/4
f 235/10/1 236/11/1 237/8/1 238/7/1
f 234/10/2 161/11/2 158/8/2 233/7/2
f 158/10/5 161/11/5 237/8/5 236/7/5
f 233/10/3 158/11/3 236/8/3 235/7/3
f 241/10/1 242/11/1 243/8/1 244/7/1
f 160/10/2 240/11/2 239/8/2 159/7/2
f 160/10/6 159/11/6 241/8/6 244/7/6
f 239/10/5 240/11/5 243/8/5 242/7/5
f 159/10/3 239/11/3 242/8/3 241/7/3
f 247/10/1 248/11/1 249/8/1 250/7/1
f 179/10/2 180/11/2 246/8/2 245/7/2
f 246/10/5 180/11/5 249/8/5 248/7/5
f 180/10/4 179/11/4 250/8/4 249/7/4
f 253/10/1 254/11/1 255/8/1 256/7/1
f 252/10/2 251/11/2 181/8/2 182/7/2
f 181/10/5 251/11/5 255/8/5 254/7/5
f 182/10/3 181/11/3 254/8/3 253/7/3
f 251/10/4 252/11/4 256/8/4 255/7/4
f 259/10/1 260/11/1 261/8/1 262/7/1
f 201/10/2 202/11/2 258/8/2 257/7/2
f 201/10/6 257/11/6 259/8/6 262/7/6
f 257/10/3 258/11/3 260/8/3 259/7/3
f 202/10/4 201/11/4 262/8/4 261/7/4
f 265/10/1 266/11/1 267/8/1 268/7/1
f 264/10/2 263/11/2 203/8/2 204/7/2
f 264/10/6 204/11/6 265/8/6 268/7/6
f 204/10/3 203/11/3 266/8/3 265/7/3
f 271/10/1 272/11/1 273/8/1 274/7/1
f 270/10/2 225/11/2 222/8/2 269/7/2
f 270/10/6 269/11/6 271/8/6 274/7/6
f 222/10/5 225/11/5 273/8/5 272/7/5
f 225/10/4 270/11/4 274/8/4 273/7/4
f 277/10/1 278/11/1 279/8/1 280/7/1
f 224/10/2 276/11/2 275/8/2 223/7/2
f 224/10/6 223/11/6 277/8/6 280/7/6
f 276/10/4 224/11/4 280/8/4 279/7/4
f 281/10/1 282/11/1 283/8/1 284/7/1
f 243/10/2 169/11/2 166/8/2 242/7/2
f 243/10/6 242/11/6 281/8/6 284/7/6
f 166/10/5 169/11/5 283/8/5 282/7/5
f 242/10/3 166/11/3 282/8/3 281/7/3
f 285/10/1 286/11/1 287/8/1 288/7/1
f 187/10/2 188/11/2 255/8/2 256/7/2
f 255/10/5 188/11/5 287/8/5 286/7/5
f 256/10/3 255/11/3 286/8/3 285/7/3
f 188/10/4 187/11/4 288/8/4 287/7/4
f 289/10/1 290/11/1 291/8/1 292/7/1
f 259/10/2 260/11/2 197/8/2 198/7/2
f 259/10/6 198/11/6 289/8/6 292/7/6
f 198/10/3 197/11/3 290/8/3 289/7/3
f 260/10/4 259/11/4 292/8/4 291/7/4
f 293/10/1 294/11/1 295/8/1 296/7/1
f 218/10/2 274/11/2 271/8/2 217/7/2
f 218/10/6 217/11/6 293/8/6 296/7/6
f 271/10/5 274/11/5 295/8/5 294/7/5
f 274/10/4 218/11/4 296/8/4 295/7/4
f 299/10/1 300/11/1 301/8/1 302/7/1
f 298/10/6 52/11/6 299/8/6 302/7/6
f 53/10/5 297/11/5 301/8/5 300/7/5
f 52/10/3 53/11/3 300/8/3 299/7/3
f 297/10/4 298/11/4 302/8/4 301/7/4
f 306/10/1 307/11/1 308/8/1 309/7/1
f 305/10/2 304/11/2 281/8/2 303/7/2
f 305/10/6 303/11/6 306/8/6 309/7/6
f 281/10/5 304/11/5 308/8/5 307/7/5
f 303/10/3 281/11/3 307/8/3 306/7/3
f 304/10/4 305/11/4 309/8/4 308/7/4
f 312/10/1 313/11/1 314/8/1 315/7/1
f 311/10/6 310/11/6 312/8/6 315/7/6
f 68/10/5 69/11/5 314/8/5 313/7/5
f 310/10/3 68/11/3 313/8/3 312/7/3
f 69/10/4 311/11/4 315/8/4 314/7/4
f 318/10/1 319/11/1 320/8/1 321/7/1
f 285/10/2 286/11/2 317/8/2 316/7/2
f 317/10/5 286/11/5 320/8/5 319/7/5
f 316/10/3 317/11/3 319/8/3 318/7/3
f 286/10/4 285/11/4 321/8/4 320/7/4
f 324/10/1 325/11/1 326/8/1 327/7/1
f 93/10/6 322/11/6 324/8/6 327/7/6
f 323/10/5 92/11/5 326/8/5 325/7/5
f 322/10/3 323/11/3 325/8/3 324/7/3
f 92/10/4 93/11/4 327/8/4 326/7/4
f 330/10/1 331/11/1 332/8/1 333/7/1
f 329/10/2 328/11/2 291/8/2 292/7/2
f 329/10/6 292/11/6 330/8/6 333/7/6
f 292/10/3 291/11/3 331/8/3 330/7/3
f 328/10/4 329/11/4 333/8/4 332/7/4
f 336/10/1 337/11/1 338/8/1 339/7/1
f 108/10/6 105/11/6 336/8/6 339/7/6
f 334/10/5 335/11/5 338/8/5 337/7/5
f 105/10/3 334/11/3 337/8/3 336/7/3
f 335/10/4 108/11/4 339/8/4 338/7/4
f 342/10/1 343/11/1 344/8/1 345/7/1
f 295/10/2 341/11/2 340/8/2 294/7/2
f 295/10/6 294/11/6 342/8/6 345/7/6
f 340/10/5 341/11/5 344/8/5 343/7/5
f 341/10/4 295/11/4 345/8/4 344/7/4
f 349/10/1 350/11/1 351/8/1 352/7/1
f 348/10/2 347/11/2 346/8/2 299/7/2
f 348/10/6 299/11/6 349/8/6 352/7/6
f 346/10/5 347/11/5 351/8/5 350/7/5
f 299/10/3 346/11/3 350/8/3 349/7/3
f 347/10/4 348/11/4 352/8/4 351/7/4
f 356/10/1 357/11/1 358/8/1 359/7/1
f 355/10/2 354/11/2 313/8/2 353/7/2
f 355/10/6 353/11/6 356/8/6 359/7/6
f 313/10/5 354/11/5 358/8/5 357/7/5
f 353/10/3 313/11/3 357/8/3 356/7/3
f 354/10/4 355/11/4 359/8/4 358/7/4
f 363/10/1 364/11/1 365/8/1 366/7/1
f 339/10/2 362/11/2 361/8/2 360/7/2
f 339/10/6 360/11/6 363/8/6 366/7/6
f 361/10/5 362/11/5 365/8/5 364/7/5
f 360/10/3 361/11/3 364/8/3 363/7/3
f 362/10/4 339/11/4 366/8/4 365/7/4
f 369/10/1 370/11/1 371/8/1 372/7/1
f 368/10/5 326/11/5 371/8/5 370/7/5
f 367/10/3 368/11/3 370/8/3 369/7/3
f 326/10/4 327/11/4 372/8/4 371/7/4
f 376/10/1 377/11/1 378/8/1 379/7/1
f 374/10/5 375/11/5 378/8/5 377/7/5
f 375/10/4 362/11/4 379/8/4 378/7/4
f 383/10/1 77/11/1 384/8/1 385/7/1
f 382/10/2 327/11/2 381/8/2 380/7/2
f 382/10/6 380/11/6 383/8/6 385/7/6
f 327/10/4 382/11/4 385/8/4 384/7/4
f 389/10/1 390/11/1 391/8/1 392/7/1
f 388/10/2 387/11/2 386/8/2 349/7/2
f 388/10/6 349/11/6 389/8/6 392/7/6
f 386/10/5 387/11/5 391/8/5 390/7/5
f 349/10/3 386/11/3 390/8/3 389/7/3
f 387/10/4 388/11/4 392/8/4 391/7/4
f 396/10/1 397/11/1 398/8/1 399/7/1
f 395/10/2 394/11/2 357/8/2 393/7/2
f 395/10/6 393/11/6 396/8/6 399/7/6
f 357/10/5 394/11/5 398/8/5 397/7/5
f 393/10/3 357/11/3 397/8/3 396/7/3
f 394/10/4 395/11/4 399/8/4 398/7/4
f 404/10/1 405/11/1 364/8/1 363/7/1
f 403/10/2 402/11/2 401/8/2 400/7/2
f 403/10/6 400/11/6 404/8/6 363/7/6
f 400/10/3 401/11/3 405/8/3 404/7/3
f 408/10/1 409/11/1 410/8/1 411/7/1
f 407/10/5 371/11/5 410/8/5 409/7/5
f 406/10/3 407/11/3 409/8/3 408/7/3
f 371/10/4 372/11/4 411/8/4 410/7/4
f 415/10/1 416/11/1 417/8/1 418/7/1
f 413/10/5 414/11/5 417/8/5 416/7/5
f 414/10/4 309/11/4 418/8/4 417/7/4
f 423/10/1 383/11/1 385/8/1 424/7/1
f 422/10/2 421/11/2 420/8/2 419/7/2
f 422/10/6 419/11/6 423/8/6 424/7/6
f 421/10/4 422/11/4 424/8/4 385/7/4
f 428/10/1 429/11/1 430/8/1 431/7/1
f 427/10/2 426/11/2 425/8/2 389/7/2
f 427/10/6 389/11/6 428/8/6 431/7/6
f 425/10/5 426/11/5 430/8/5 429/7/5
f 389/10/3 425/11/3 429/8/3 428/7/3
f 426/10/4 427/11/4 431/8/4 430/7/4
f 435/10/1 436/11/1 437/8/1 438/7/1
f 434/10/2 433/11/2 396/8/2 432/7/2
f 434/10/6 432/11/6 435/8/6 438/7/6
f 396/10/5 433/11/5 437/8/5 436/7/5
f 432/10/3 396/11/3 436/8/3 435/7/3
f 442/10/1 443/11/1 444/8/1 445/7/1
f 441/10/2 440/11/2 397/8/2 439/7/2
f 441/10/6 439/11/6 442/8/6 445/7/6
f 397/10/5 440/11/5 444/8/5 443/7/5
f 439/10/3 397/11/3 443/8/3 442/7/3
f 440/10/4 441/11/4 445/8/4 444/7/4
f 450/10/1 451/11/1 405/8/1 404/7/1
f 449/10/2 448/11/2 447/8/2 446/7/2
f 449/10/6 446/11/6 450/8/6 404/7/6
f 446/10/3 447/11/3 451/8/3 450/7/3
f 454/10/1 455/11/1 456/8/1 457/7/1
f 453/10/5 410/11/5 456/8/5 455/7/5
f 452/10/3 453/11/3 455/8/3 454/7/3
f 410/10/4 411/11/4 457/8/4 456/7/4
f 462/10/1 423/11/1 424/8/1 463/7/1
f 461/10/2 460/11/2 459/8/2 458/7/2
f 461/10/6 458/11/6 462/8/6 463/7/6
f 460/10/4 461/11/4 463/8/4 424/7/4
f 466/10/1 467/11/1 468/8/1 469/7/1
f 465/10/2 464/11/2 435/8/2 428/7/2
f 465/10/6 428/11/6 466/8/6 469/7/6
f 435/10/5 464/11/5 468/8/5 467/7/5
f 428/10/3 435/11/3 467/8/3 466/7/3
f 464/10/4 465/11/4 469/8/4 468/7/4
f 471/10/1 472/11/1 473/8/1 474/7/1
f 437/10/2 470/11/2 442/8/2 436/7/2
f 437/10/6 436/11/6 471/8/6 474/7/6
f 442/10/5 470/11/5 473/8/5 472/7/5
f 436/10/3 442/11/3 472/8/3 471/7/3
f 478/10/1 479/11/1 480/8/1 481/7/1
f 477/10/2 476/11/2 443/8/2 475/7/2
f 477/10/6 475/11/6 478/8/6 481/7/6
f 443/10/5 476/11/5 480/8/5 479/7/5
f 475/10/3 443/11/3 479/8/3 478/7/3
f 476/10/4 477/11/4 481/8/4 480/7/4
f 485/10/1 486/11/1 487/8/1 488/7/1
f 484/10/2 483/11/2 482/8/2 431/7/2
f 484/10/6 431/11/6 485/8/6 488/7/6
f 431/10/3 482/11/3 486/8/3 485/7/3
f 483/10/4 484/11/4 488/8/4 487/7/4
f 493/10/1 494/11/1 451/8/1 450/7/1
f 492/10/2 491/11/2 490/8/2 489/7/2
f 492/10/6 489/11/6 493/8/6 450/7/6
f 489/10/3 490/11/3 494/8/3 493/7/3
f 497/10/1 498/11/1 499/8/1 500/7/1
f 454/10/2 455/11/2 496/8/2 495/7/2
f 496/10/5 455/11/5 499/8/5 498/7/5
f 495/10/3 496/11/3 498/8/3 497/7/3
f 455/10/4 454/11/4 500/8/4 499/7/4
f 503/10/1 504/11/1 505/8/1 506/7/1
f 502/10/5 456/11/5 505/8/5 504/7/5
f 501/10/3 502/11/3 504/8/3 503/7/3
f 456/10/4 457/11/4 506/8/4 505/7/4
f 509/10/1 510/11/1 511/8/1 512/7/1
f 507/10/5 508/11/5 511/8/5 510/7/5
f 508/10/4 379/11/4 512/8/4 511/7/4
f 515/10/1 516/11/1 517/8/1 518/7/1
f 378/10/2 514/11/2 513/8/2 377/7/2
f 378/10/6 377/11/6 515/8/6 518/7/6
f 513/10/5 514/11/5 517/8/5 516/7/5
f 514/10/4 378/11/4 518/8/4 517/7/4
f 523/10/1 462/11/1 463/8/1 524/7/1
f 522/10/2 521/11/2 520/8/2 519/7/2
f 522/10/6 519/11/6 523/8/6 524/7/6
f 521/10/4 522/11/4 524/8/4 463/7/4
f 526/10/1 527/11/1 528/8/1 529/7/1
f 525/10/2 474/11/2 471/8/2 466/7/2
f 525/10/6 466/11/6 526/8/6 529/7/6
f 471/10/5 474/11/5 528/8/5 527/7/5
f 466/10/3 471/11/3 527/8/3 526/7/3
f 474/10/4 525/11/4 529/8/4 528/7/4
f 531/10/1 532/11/1 533/8/1 534/7/1
f 497/10/2 498/11/2 479/8/2 530/7/2
f 497/10/6 530/11/6 531/8/6 534/7/6
f 479/10/5 498/11/5 533/8/5 532/7/5
f 530/10/3 479/11/3 532/8/3 531/7/3
f 498/10/4 497/11/4 534/8/4 533/7/4
f 536/10/1 537/11/1 538/8/1 539/7/1
f 485/10/2 486/11/2 535/8/2 469/7/2
f 485/10/6 469/11/6 536/8/6 539/7/6
f 469/10/3 535/11/3 537/8/3 536/7/3
f 486/10/4 485/11/4 539/8/4 538/7/4
f 542/10/1 543/11/1 494/8/1 493/7/1
f 541/10/2 540/11/2 487/8/2 488/7/2
f 541/10/6 488/11/6 542/8/6 493/7/6
f 488/10/3 487/11/3 543/8/3 542/7/3
f 544/10/1 545/11/1 546/8/1 547/7/1
f 503/10/2 504/11/2 499/8/2 500/7/2
f 499/10/5 504/11/5 546/8/5 545/7/5
f 500/10/3 499/11/3 545/8/3 544/7/3
f 504/10/4 503/11/4 547/8/4 546/7/4
f 548/10/1 549/11/1 550/8/1 551/7/1
f 511/10/2 518/11/2 515/8/2 510/7/2
f 511/10/6 510/11/6 548/8/6 551/7/6
f 515/10/5 518/11/5 550/8/5 549/7/5
f 518/10/4 511/11/4 551/8/4 550/7/4
f 553/10/1 554/11/1 555/8/1 556/7/1
f 517/10/2 505/11/2 552/8/2 516/7/2
f 517/10/6 516/11/6 553/8/6 556/7/6
f 552/10/5 505/11/5 555/8/5 554/7/5
f 516/10/3 552/11/3 554/8/3 553/7/3
f 505/10/4 517/11/4 556/8/4 555/7/4
f 527/10/1 561/11/1 562/8/1 528/7/1
f 560/10/2 559/11/2 558/8/2 557/7/2
f 558/10/5 559/11/5 562/8/5 561/7/5
f 557/10/3 558/11/3 561/8/3 527/7/3
f 565/10/1 566/11/1 543/8/1 542/7/1
f 564/10/2 563/11/2 538/8/2 539/7/2
f 564/10/6 539/11/6 565/8/6 542/7/6
f 539/10/3 538/11/3 566/8/3 565/7/3
f 534/10/1 533/11/1 569/8/1 570/7/1
f 544/10/2 545/11/2 568/8/2 567/7/2
f 568/10/5 545/11/5 569/8/5 533/7/5
f 545/10/4 544/11/4 570/8/4 569/7/4
f 573/10/1 553/11/1 556/8/1 574/7/1
f 550/10/2 572/11/2 571/8/2 549/7/2
f 550/10/6 549/11/6 573/8/6 574/7/6
f 572/10/4 550/11/4 574/8/4 556/7/4
f 561/10/1 531/11/1 76/8/1 562/7/1
f 578/10/2 577/11/2 576/8/2 575/7/2
f 575/10/3 576/11/3 531/8/3 561/7/3
f 529/10/1 75/11/1 566/8/1 565/7/1
f 582/10/2 581/11/2 580/8/2 579/7/2
f 582/10/6 579/11/6 529/8/6 565/7/6
f 570/10/1 569/11/1 554/8/1 77/7/1
f 586/10/2 585/11/2 584/8/2 583/7/2
f 584/10/5 585/11/5 554/8/5 569/7/5
f 78/10/1 573/11/1 574/8/1 365/7/1
f 590/10/2 589/11/2 588/8/2 587/7/2
f 589/10/4 590/11/4 365/8/4 574/7/4
f 27/7/1 31/8/1 34/9/1 28/5/1
f 526/7/2 532/8/2 592/9/2 591/5/2
f 591/7/3 592/8/3 31/9/3 27/5/3
f 532/7/4 526/8/4 28/9/4 34/5/4
f 29/7/1 28/8/1 41/9/1 40/5/1
f 594/7/2 366/8/2 526/9/2 593/5/2
f 594/7/6 593/8/6 29/9/6 40/5/6
f 526/7/5 366/8/5 41/9/5 28/5/5
f 34/7/1 33/8/1 46/9/1 45/5/1
f 555/7/2 596/8/2 595/9/2 532/5/2
f 555/7/6 532/8/6 34/9/6 45/5/6
f 595/7/5 596/8/5 46/9/5 33/5/5
f 41/7/1 45/8/1 48/9/1 42/5/1
f 598/7/2 597/8/2 555/9/2 366/5/2
f 366/7/3 555/8/3 45/9/3 41/5/3
f 597/7/4 598/8/4 42/9/4 48/5/4
