#created with MagicaVoxel and VoxelOptimizer  - v:298 - f:226
o Item_Box
mtllib Item_Box.mtl
vn 0 1 0
vn 0 -1 0
vn -1 0 0
vn 1 0 0
vn 0 0 1
vn 0 0 -1
v -8 0 -8
v -8 0 8
v -7 0 8
v -7 0 -8
v -8 1 -8
v -8 1 8
v -7 1 8
v -7 1 -8
v -7 0 -7
v 8 0 -7
v 8 0 -8
v -7 1 -7
v 8 1 -7
v 8 1 -8
v -7 0 7
v 8 0 8
v 8 0 7
v -7 1 7
v 8 1 8
v 8 1 7
v 7 0 -7
v 7 0 7
v 7 1 -7
v 7 1 7
v -8 1 -7
v -8 16 -8
v -8 16 -7
v -7 16 -7
v -7 16 -8
v -8 1 7
v -8 16 7
v -8 16 8
v -7 16 8
v -7 16 7
v -7 2 -7
v -7 2 7
v 7 2 7
v 7 2 -7
v 7 1 -8
v 7 16 -8
v 7 16 -7
v 8 16 -7
v 8 16 -8
v 7 1 8
v 7 16 7
v 7 16 8
v 8 16 8
v 8 16 7
v -7 2 -4
v -4 2 -4
v -4 2 -7
v -7 3 -7
v -7 3 -4
v -4 3 -4
v -4 3 -7
v -7 2 4
v -4 2 7
v -4 2 4
v -7 3 4
v -7 3 7
v -4 3 7
v -4 3 4
v -6 2 -4
v -6 2 4
v 6 2 4
v 6 2 -4
v -6 15 -4
v -6 15 4
v 6 15 4
v 6 15 -4
v -4 2 -6
v -4 2 6
v 6 2 6
v 6 2 -6
v -4 15 -6
v -4 15 6
v 6 15 6
v 6 15 -6
v 4 2 -7
v 4 2 7
v 6 2 7
v 6 2 -7
v 4 3 -7
v 4 3 7
v 6 3 7
v 6 3 -7
v 7 2 -4
v 6 3 -4
v 7 3 -4
v 7 3 -7
v 7 2 4
v 6 3 4
v 7 3 7
v 7 3 4
v -7 3 -5
v -5 3 -5
v -5 3 -7
v -7 15 -7
v -7 15 -5
v -5 15 -5
v -5 15 -7
v -7 3 5
v -5 3 7
v -5 3 5
v -7 15 5
v -7 15 7
v -5 15 7
v -5 15 5
v -6 3 -5
v -6 3 5
v -4 3 5
v -4 3 -5
v -6 15 -5
v -6 15 5
v -4 15 5
v -4 15 -5
v -5 3 -6
v -5 3 6
v -4 3 6
v -4 3 -6
v -5 15 -6
v -5 15 6
v 5 3 -7
v 5 3 7
v 5 15 -7
v 5 15 7
v 6 15 7
v 6 15 -7
v 6 3 -5
v 7 3 -5
v 6 15 -5
v 7 15 -5
v 7 15 -7
v 6 3 5
v 7 3 5
v 6 15 5
v 7 15 7
v 7 15 5
v -7 4 -2
v -7 4 2
v 7 4 2
v 7 4 -2
v -7 5 -2
v -7 5 2
v 7 5 2
v 7 5 -2
v -2 4 -7
v -2 4 7
v 2 4 7
v 2 4 -7
v -2 5 -7
v -2 5 7
v 2 5 7
v 2 5 -7
v -7 5 -1
v -7 5 1
v 7 5 1
v 7 5 -1
v -7 6 -1
v -7 6 1
v 7 6 1
v 7 6 -1
v -1 5 -7
v -1 5 7
v 1 5 7
v 1 5 -7
v -1 6 -7
v -1 6 7
v 1 6 7
v 1 6 -7
v -7 7 -2
v -7 7 -1
v 7 7 -1
v 7 7 -2
v -7 8 -2
v -7 8 -1
v 7 8 -1
v 7 8 -2
v -7 7 1
v -7 7 2
v 7 7 2
v 7 7 1
v -7 8 1
v -7 8 2
v 7 8 2
v 7 8 1
v -2 7 -7
v -2 7 7
v -1 7 7
v -1 7 -7
v -2 8 -7
v -2 8 7
v -1 8 7
v -1 8 -7
v 1 7 -7
v 1 7 7
v 2 7 7
v 2 7 -7
v 1 8 -7
v 1 8 7
v 2 8 7
v 2 8 -7
v -7 8 -5
v -7 8 -4
v 7 8 -4
v 7 8 -5
v -7 11 -5
v -7 11 -4
v 7 11 -4
v 7 11 -5
v -7 8 4
v -7 8 5
v 7 8 5
v 7 8 4
v -7 11 4
v -7 11 5
v 7 11 5
v 7 11 4
v -5 8 -7
v -5 8 7
v -4 8 7
v -4 8 -7
v -5 11 -7
v -5 11 7
v -4 11 7
v -4 11 -7
v 4 8 -7
v 4 8 7
v 5 8 7
v 5 8 -7
v 4 11 -7
v 4 11 7
v 5 11 7
v 5 11 -7
v -7 9 -4
v -7 9 -3
v 7 9 -3
v 7 9 -4
v -7 10 -4
v -7 10 -3
v 7 10 -3
v 7 10 -4
v -7 9 3
v -7 9 4
v 7 9 4
v 7 9 3
v -7 10 3
v -7 10 4
v 7 10 4
v 7 10 3
v -4 9 -7
v -4 9 7
v -3 9 7
v -3 9 -7
v -4 10 -7
v -4 10 7
v -3 10 7
v -3 10 -7
v 3 9 -7
v 3 9 7
v 4 9 7
v 4 9 -7
v 3 10 -7
v 3 10 7
v 4 10 7
v 4 10 -7
v -7 12 -2
v -7 12 2
v 7 12 2
v 7 12 -2
v -7 15 -2
v -7 15 2
v 7 15 2
v 7 15 -2
v -2 12 -7
v -2 12 7
v 2 12 7
v 2 12 -7
v -2 15 -7
v -2 15 7
v 2 15 7
v 2 15 -7
v -7 13 -5
v -7 13 5
v 7 13 5
v 7 13 -5
v -5 13 -7
v -5 13 7
v 5 13 7
v 5 13 -7
v -8 15 -7
v -8 15 7
v -7 15 -8
v 7 15 -8
v -7 15 8
v 7 15 8
v 8 15 7
v 8 15 -7
vt 0.0000 1.0000
vt 0.0000 0.6250
vt 0.4375 0.6250
vt 0.4375 1.0000
vt 0.4375 0.5938
vt 0.8125 0.5938
vt 0.8125 1.0000
vt 0.0000 0.2188
vt 0.3125 0.2188
vt 0.3125 0.6250
vt 0.3125 0.5938
vt 0.6250 0.2188
vt 0.6250 0.5938
vt 0.6250 0.1875
vt 0.8750 0.1875
vt 0.8750 0.5938
vt 0.0000 0.1562
vt 0.4375 0.1562
vt 0.4375 0.2188
vt 0.4375 0.1875
vt 0.8750 0.1562
vt 0.8125 0.6250
vt 0.8438 0.6250
vt 0.8438 1.0000
vt 0.3438 0.5938
vt 0.3438 0.6250
vt 0.3750 0.5938
vt 0.3750 0.6250
usemtl x
f 5/11/1 6/25/1 7/26/1 8/10/1
f 4/11/2 3/25/2 2/26/2 1/10/2
f 4/11/6 1/25/6 5/26/6 8/10/6
f 2/11/5 3/25/5 7/26/5 6/10/5
f 1/11/3 2/25/3 6/26/3 5/10/3
f 3/11/4 4/25/4 8/26/4 7/10/4
f 8/11/1 12/25/1 13/26/1 14/10/1
f 11/11/2 10/25/2 9/26/2 4/10/2
f 11/11/6 4/25/6 8/26/6 14/10/6
f 9/11/5 10/25/5 13/26/5 12/10/5
f 10/11/4 11/25/4 14/26/4 13/10/4
f 18/11/1 7/25/1 19/26/1 20/10/1
f 17/11/2 16/25/2 3/26/2 15/10/2
f 17/11/6 15/25/6 18/26/6 20/10/6
f 3/11/5 16/25/5 19/26/5 7/10/5
f 16/11/4 17/25/4 20/26/4 19/10/4
f 23/11/1 24/25/1 20/26/1 13/10/1
f 10/11/2 17/25/2 22/26/2 21/10/2
f 21/11/3 22/25/3 24/26/3 23/10/3
f 17/11/4 10/25/4 13/26/4 20/10/4
f 26/11/1 27/25/1 28/26/1 29/10/1
f 8/11/6 5/25/6 26/26/6 29/10/6
f 25/11/5 12/25/5 28/26/5 27/10/5
f 5/11/3 25/25/3 27/26/3 26/10/3
f 12/11/4 8/25/4 29/26/4 28/10/4
f 31/11/1 32/25/1 33/26/1 34/10/1
f 18/11/6 30/25/6 31/26/6 34/10/6
f 6/11/5 7/25/5 33/26/5 32/10/5
f 30/11/3 6/25/3 32/26/3 31/10/3
f 7/11/4 18/25/4 34/26/4 33/10/4
f 35/25/1 36/27/1 37/28/1 38/26/1
f 23/25/2 24/27/2 18/28/2 12/26/2
f 23/25/6 12/27/6 35/28/6 38/26/6
f 18/25/5 24/27/5 37/28/5 36/26/5
f 12/25/3 18/27/3 36/28/3 35/26/3
f 24/25/4 23/27/4 38/28/4 37/26/4
f 40/11/1 41/25/1 42/26/1 43/10/1
f 14/11/6 39/25/6 40/26/6 43/10/6
f 23/11/5 13/25/5 42/26/5 41/10/5
f 39/11/3 23/25/3 41/26/3 40/10/3
f 13/11/4 14/25/4 43/26/4 42/10/4
f 45/11/1 46/25/1 47/26/1 48/10/1
f 20/11/6 24/25/6 45/26/6 48/10/6
f 44/11/5 19/25/5 47/26/5 46/10/5
f 24/11/3 44/25/3 46/26/3 45/10/3
f 19/11/4 20/25/4 48/26/4 47/10/4
f 52/25/1 53/27/1 54/28/1 55/26/1
f 51/25/6 35/27/6 52/28/6 55/26/6
f 49/25/5 50/27/5 54/28/5 53/26/5
f 35/25/3 49/27/3 53/28/3 52/26/3
f 50/25/4 51/27/4 55/28/4 54/26/4
f 59/25/1 60/27/1 61/28/1 62/26/1
f 58/25/6 56/27/6 59/28/6 62/26/6
f 36/25/5 57/27/5 61/28/5 60/26/5
f 56/25/3 36/27/3 60/28/3 59/26/3
f 57/25/4 58/27/4 62/28/4 61/26/4
f 67/25/1 68/27/1 69/28/1 70/26/1
f 63/14/3 64/15/3 68/16/3 67/13/3
f 65/14/4 66/15/4 70/16/4 69/13/4
f 75/25/1 76/27/1 77/28/1 78/26/1
f 74/8/6 71/9/6 75/10/6 78/2/6
f 72/9/5 73/8/5 77/2/5 76/10/5
f 73/5/4 74/6/4 78/7/4 77/4/4
f 83/17/1 84/18/1 85/19/1 86/8/1
f 82/25/6 79/27/6 83/28/6 86/26/6
f 80/25/5 81/27/5 85/28/5 84/26/5
f 79/25/3 80/27/3 84/28/3 83/26/3
f 81/18/4 82/21/4 86/15/4 85/20/4
f 86/25/1 88/27/1 89/28/1 90/26/1
f 38/25/6 82/27/6 86/28/6 90/26/6
f 66/25/5 87/27/5 89/28/5 88/26/5
f 87/25/4 38/27/4 90/28/4 89/26/4
f 92/25/1 85/27/1 93/28/1 94/26/1
f 91/25/6 65/27/6 92/28/6 94/26/6
f 81/25/5 37/27/5 93/28/5 85/26/5
f 37/25/4 91/27/4 94/28/4 93/26/4
f 98/25/1 99/27/1 100/28/1 101/26/1
f 97/25/6 52/27/6 98/28/6 101/26/6
f 95/25/5 96/27/5 100/28/5 99/26/5
f 52/25/3 95/27/3 99/28/3 98/26/3
f 96/25/4 97/27/4 101/28/4 100/26/4
f 105/25/1 106/27/1 107/28/1 108/26/1
f 104/25/6 102/27/6 105/28/6 108/26/6
f 60/25/5 103/27/5 107/28/5 106/26/5
f 102/25/3 60/27/3 106/28/3 105/26/3
f 103/25/4 104/27/4 108/28/4 107/26/4
f 113/25/1 114/27/1 115/28/1 116/26/1
f 109/9/3 110/12/3 114/13/3 113/11/3
f 121/25/1 122/27/1 76/28/1 75/26/1
f 120/22/6 117/23/6 121/24/6 75/7/6
f 118/22/5 119/23/5 76/24/5 122/7/5
f 125/25/1 126/27/1 127/28/1 128/26/1
f 86/25/6 123/27/6 125/28/6 128/26/6
f 124/25/5 85/27/5 127/28/5 126/26/5
f 123/2/3 124/3/3 126/4/3 125/1/3
f 85/2/4 86/3/4 128/4/4 127/1/4
f 128/25/1 131/27/1 132/28/1 133/26/1
f 90/25/6 86/27/6 128/28/6 133/26/6
f 129/25/5 130/27/5 132/28/5 131/26/5
f 130/25/4 90/27/4 133/28/4 132/26/4
f 136/25/1 127/27/1 137/28/1 138/26/1
f 135/25/6 134/27/6 136/28/6 138/26/6
f 85/25/5 93/27/5 137/28/5 127/26/5
f 93/25/4 135/27/4 138/28/4 137/26/4
f 143/25/1 144/27/1 145/28/1 146/26/1
f 142/25/2 141/27/2 140/28/2 139/26/2
f 142/25/6 139/27/6 143/28/6 146/26/6
f 140/25/5 141/27/5 145/28/5 144/26/5
f 139/25/3 140/27/3 144/28/3 143/26/3
f 141/25/4 142/27/4 146/28/4 145/26/4
f 151/25/1 152/27/1 153/28/1 154/26/1
f 150/25/2 149/27/2 148/28/2 147/26/2
f 150/25/6 147/27/6 151/28/6 154/26/6
f 148/25/5 149/27/5 153/28/5 152/26/5
f 147/25/3 148/27/3 152/28/3 151/26/3
f 149/25/4 150/27/4 154/28/4 153/26/4
f 159/25/1 160/27/1 161/28/1 162/26/1
f 158/25/6 155/27/6 159/28/6 162/26/6
f 156/25/5 157/27/5 161/28/5 160/26/5
f 155/25/3 156/27/3 160/28/3 159/26/3
f 157/25/4 158/27/4 162/28/4 161/26/4
f 167/25/1 168/27/1 169/28/1 170/26/1
f 166/25/6 163/27/6 167/28/6 170/26/6
f 164/25/5 165/27/5 169/28/5 168/26/5
f 163/25/3 164/27/3 168/28/3 167/26/3
f 165/25/4 166/27/4 170/28/4 169/26/4
f 175/25/1 176/27/1 177/28/1 178/26/1
f 174/25/2 173/27/2 172/28/2 171/26/2
f 174/25/6 171/27/6 175/28/6 178/26/6
f 172/25/5 173/27/5 177/28/5 176/26/5
f 171/25/3 172/27/3 176/28/3 175/26/3
f 173/25/4 174/27/4 178/28/4 177/26/4
f 183/25/1 184/27/1 185/28/1 186/26/1
f 182/25/2 181/27/2 180/28/2 179/26/2
f 182/25/6 179/27/6 183/28/6 186/26/6
f 180/25/5 181/27/5 185/28/5 184/26/5
f 179/25/3 180/27/3 184/28/3 183/26/3
f 181/25/4 182/27/4 186/28/4 185/26/4
f 191/25/1 192/27/1 193/28/1 194/26/1
f 190/25/2 189/27/2 188/28/2 187/26/2
f 190/25/6 187/27/6 191/28/6 194/26/6
f 188/25/5 189/27/5 193/28/5 192/26/5
f 187/25/3 188/27/3 192/28/3 191/26/3
f 189/25/4 190/27/4 194/28/4 193/26/4
f 199/25/1 200/27/1 201/28/1 202/26/1
f 198/25/2 197/27/2 196/28/2 195/26/2
f 198/25/6 195/27/6 199/28/6 202/26/6
f 196/25/5 197/27/5 201/28/5 200/26/5
f 195/25/3 196/27/3 200/28/3 199/26/3
f 197/25/4 198/27/4 202/28/4 201/26/4
f 207/25/1 208/27/1 209/28/1 210/26/1
f 206/25/2 205/27/2 204/28/2 203/26/2
f 204/25/5 205/27/5 209/28/5 208/26/5
f 203/25/3 204/27/3 208/28/3 207/26/3
f 205/25/4 206/27/4 210/28/4 209/26/4
f 215/25/1 216/27/1 217/28/1 218/26/1
f 214/25/2 213/27/2 212/28/2 211/26/2
f 214/25/6 211/27/6 215/28/6 218/26/6
f 211/25/3 212/27/3 216/28/3 215/26/3
f 213/25/4 214/27/4 218/28/4 217/26/4
f 223/25/1 224/27/1 225/28/1 226/26/1
f 222/25/2 221/27/2 220/28/2 219/26/2
f 222/25/6 219/27/6 223/28/6 226/26/6
f 220/25/5 221/27/5 225/28/5 224/26/5
f 221/25/4 222/27/4 226/28/4 225/26/4
f 231/25/1 232/27/1 233/28/1 234/26/1
f 230/25/2 229/27/2 228/28/2 227/26/2
f 230/25/6 227/27/6 231/28/6 234/26/6
f 228/25/5 229/27/5 233/28/5 232/26/5
f 227/25/3 228/27/3 232/28/3 231/26/3
f 239/25/1 240/27/1 241/28/1 242/26/1
f 238/25/2 237/27/2 236/28/2 235/26/2
f 236/25/5 237/27/5 241/28/5 240/26/5
f 235/25/3 236/27/3 240/28/3 239/26/3
f 237/25/4 238/27/4 242/28/4 241/26/4
f 247/25/1 248/27/1 249/28/1 250/26/1
f 246/25/2 245/27/2 244/28/2 243/26/2
f 246/25/6 243/27/6 247/28/6 250/26/6
f 243/25/3 244/27/3 248/28/3 247/26/3
f 245/25/4 246/27/4 250/28/4 249/26/4
f 255/25/1 256/27/1 257/28/1 258/26/1
f 254/25/2 253/27/2 252/28/2 251/26/2
f 254/25/6 251/27/6 255/28/6 258/26/6
f 252/25/5 253/27/5 257/28/5 256/26/5
f 253/25/4 254/27/4 258/28/4 257/26/4
f 263/25/1 264/27/1 265/28/1 266/26/1
f 262/25/2 261/27/2 260/28/2 259/26/2
f 262/25/6 259/27/6 263/28/6 266/26/6
f 260/25/5 261/27/5 265/28/5 264/26/5
f 259/25/3 260/27/3 264/28/3 263/26/3
f 271/25/1 272/27/1 273/28/1 274/26/1
f 270/25/2 269/27/2 268/28/2 267/26/2
f 270/25/6 267/27/6 271/28/6 274/26/6
f 268/25/5 269/27/5 273/28/5 272/26/5
f 267/25/3 268/27/3 272/28/3 271/26/3
f 269/25/4 270/27/4 274/28/4 273/26/4
f 279/25/1 280/27/1 281/28/1 282/26/1
f 278/25/2 277/27/2 276/28/2 275/26/2
f 278/25/6 275/27/6 279/28/6 282/26/6
f 276/25/5 277/27/5 281/28/5 280/26/5
f 275/25/3 276/27/3 280/28/3 279/26/3
f 277/25/4 278/27/4 282/28/4 281/26/4
f 99/25/1 105/27/1 138/28/1 132/26/1
f 286/25/2 285/27/2 284/28/2 283/26/2
f 283/25/3 284/27/3 105/28/3 99/26/3
f 285/25/4 286/27/4 132/28/4 138/26/4
f 101/25/1 107/27/1 126/28/1 125/26/1
f 290/25/2 289/27/2 288/28/2 287/26/2
f 290/25/6 287/27/6 101/28/6 125/26/6
f 288/25/5 289/27/5 126/28/5 107/26/5
f 27/11/1 31/25/1 34/26/1 28/10/1
f 98/11/2 106/25/2 292/26/2 291/10/2
f 291/11/3 292/25/3 31/26/3 27/10/3
f 106/11/4 98/25/4 28/26/4 34/10/4
f 29/11/1 28/25/1 41/26/1 40/10/1
f 294/11/2 133/25/2 98/26/2 293/10/2
f 294/11/6 293/25/6 29/26/6 40/10/6
f 98/11/5 133/25/5 41/26/5 28/10/5
f 34/11/1 33/25/1 46/26/1 45/10/1
f 137/11/2 296/25/2 295/26/2 106/10/2
f 137/11/6 106/25/6 34/26/6 45/10/6
f 295/11/5 296/25/5 46/26/5 33/10/5
f 41/11/1 45/25/1 48/26/1 42/10/1
f 298/11/2 297/25/2 137/26/2 133/10/2
f 133/11/3 137/25/3 45/26/3 41/10/3
f 297/11/4 298/25/4 42/26/4 48/10/4
