# MagicaVoxel @ Ephtracy

# group
o 

# material
mtllib linterna.mtl
usemtl palette

# normals
vn -1 0 0
vn 1 0 0
vn 0 0 1
vn 0 0 -1
vn 0 -1 0
vn 0 1 0

# texcoords
vt 0.0214844 0.5
vt 0.986328 0.5
vt 0.994141 0.5

# verts
v -0.4 1.3 -1.49012e-08
v -0.4 1.3 -0.5
v -0.4 1.4 -1.49012e-08
v -0.4 1.4 -0.5
v -0.3 0.7 -1.49012e-08
v -0.3 0.7 -0.5
v -0.3 0.8 -0.1
v -0.3 0.8 -0.4
v -0.3 1.2 -0.1
v -0.3 1.2 -0.4
v -0.3 1.3 0.1
v -0.3 1.3 -1.49012e-08
v -0.3 1.3 -0.5
v -0.3 1.3 -0.6
v -0.3 1.4 0.1
v -0.3 1.4 -1.49012e-08
v -0.3 1.4 -0.5
v -0.3 1.4 -0.6
v -0.3 1.5 -1.49012e-08
v -0.3 1.5 -0.5
v -0.2 0.2 -0.7
v -0.2 0.2 -0.8
v -0.2 0.3 -0.6
v -0.2 0.3 -0.7
v -0.2 0.3 -0.8
v -0.2 0.4 -0.5
v -0.2 0.4 -0.6
v -0.2 0.4 -0.7
v -0.2 0.5 -0.4
v -0.2 0.5 -0.5
v -0.2 0.5 -0.6
v -0.2 0.6 -0.3
v -0.2 0.6 -0.4
v -0.2 0.6 -0.5
v -0.2 0.7 -0.3
v -0.2 0.7 -0.4
v -0.2 0.8 -0.1
v -0.2 0.8 -0.4
v -0.2 0.8 -0.5
v -0.2 0.8 -0.8
v -0.2 0.9 -0.5
v -0.2 0.9 -0.8
v -0.2 1.2 -0.1
v -0.2 1.2 -0.4
v -0.2 1.5 -0.1
v -0.2 1.5 -0.4
v -0.2 1.6 -0.1
v -0.2 1.6 -0.4
v 0.1 0.2 -0.7
v 0.1 0.2 -0.8
v 0.1 0.3 -0.6
v 0.1 0.3 -0.7
v 0.1 0.3 -0.8
v 0.1 0.4 -0.5
v 0.1 0.4 -0.6
v 0.1 0.4 -0.7
v 0.1 0.5 -0.4
v 0.1 0.5 -0.5
v 0.1 0.5 -0.6
v 0.1 0.6 -0.3
v 0.1 0.6 -0.4
v 0.1 0.6 -0.5
v 0.1 0.7 -0.3
v 0.1 0.7 -0.4
v 0.1 0.8 -0.3
v 0.1 0.8 -0.4
v 0.1 0.8 -0.5
v 0.1 0.8 -0.8
v 0.1 0.9 -0.5
v 0.1 0.9 -0.8
v 0.1 1.1 -0.3
v 0.1 1.1 -0.4
v 0.2 0.8 -1.49012e-08
v 0.2 0.8 -0.1
v 0.2 1.2 -1.49012e-08
v 0.2 1.2 -0.1
v 0.2 1.2 -0.4
v 0.2 1.3 -0.1
v 0.2 1.3 -0.4
v -0.2 0.8 -1.49012e-08
v -0.2 0.8 -0.1
v -0.2 1.2 -1.49012e-08
v -0.2 1.2 -0.1
v -0.2 1.2 -0.4
v -0.2 1.3 -0.1
v -0.2 1.3 -0.4
v -0.1 0.2 -0.7
v -0.1 0.2 -0.8
v -0.1 0.3 -0.6
v -0.1 0.3 -0.7
v -0.1 0.3 -0.8
v -0.1 0.4 -0.5
v -0.1 0.4 -0.6
v -0.1 0.4 -0.7
v -0.1 0.5 -0.4
v -0.1 0.5 -0.5
v -0.1 0.5 -0.6
v -0.1 0.6 -0.3
v -0.1 0.6 -0.4
v -0.1 0.6 -0.5
v -0.1 0.7 -0.3
v -0.1 0.7 -0.4
v -0.1 0.8 -0.3
v -0.1 0.8 -0.4
v -0.1 0.8 -0.5
v -0.1 0.8 -0.8
v -0.1 0.9 -0.5
v -0.1 0.9 -0.8
v -0.1 1.1 -0.3
v -0.1 1.1 -0.4
v 0.2 0.2 -0.7
v 0.2 0.2 -0.8
v 0.2 0.3 -0.6
v 0.2 0.3 -0.7
v 0.2 0.3 -0.8
v 0.2 0.4 -0.5
v 0.2 0.4 -0.6
v 0.2 0.4 -0.7
v 0.2 0.5 -0.4
v 0.2 0.5 -0.5
v 0.2 0.5 -0.6
v 0.2 0.6 -0.3
v 0.2 0.6 -0.4
v 0.2 0.6 -0.5
v 0.2 0.7 -0.3
v 0.2 0.7 -0.4
v 0.2 0.8 -0.1
v 0.2 0.8 -0.4
v 0.2 0.8 -0.5
v 0.2 0.8 -0.8
v 0.2 0.9 -0.5
v 0.2 0.9 -0.8
v 0.2 1.2 -0.1
v 0.2 1.2 -0.4
v 0.2 1.5 -0.1
v 0.2 1.5 -0.4
v 0.2 1.6 -0.1
v 0.2 1.6 -0.4
v 0.3 0.7 -1.49012e-08
v 0.3 0.7 -0.5
v 0.3 0.8 -0.1
v 0.3 0.8 -0.4
v 0.3 1.2 -0.1
v 0.3 1.2 -0.4
v 0.3 1.3 0.1
v 0.3 1.3 -1.49012e-08
v 0.3 1.3 -0.5
v 0.3 1.3 -0.6
v 0.3 1.4 0.1
v 0.3 1.4 -1.49012e-08
v 0.3 1.4 -0.5
v 0.3 1.4 -0.6
v 0.3 1.5 -1.49012e-08
v 0.3 1.5 -0.5
v 0.4 1.3 -1.49012e-08
v 0.4 1.3 -0.5
v 0.4 1.4 -1.49012e-08
v 0.4 1.4 -0.5
v -0.3 1.3 0.1
v -0.3 1.4 0.1
v 0.3 1.3 0.1
v 0.3 1.4 0.1
v -0.4 1.3 -1.49012e-08
v -0.4 1.4 -1.49012e-08
v -0.3 0.7 -1.49012e-08
v -0.3 1.3 -1.49012e-08
v -0.3 1.4 -1.49012e-08
v -0.3 1.5 -1.49012e-08
v -0.2 0.8 -1.49012e-08
v -0.2 1.2 -1.49012e-08
v 0.2 0.8 -1.49012e-08
v 0.2 1.2 -1.49012e-08
v 0.3 0.7 -1.49012e-08
v 0.3 1.3 -1.49012e-08
v 0.3 1.4 -1.49012e-08
v 0.3 1.5 -1.49012e-08
v 0.4 1.3 -1.49012e-08
v 0.4 1.4 -1.49012e-08
v -0.2 0.8 -0.1
v -0.2 1.2 -0.1
v -0.2 1.5 -0.1
v -0.2 1.6 -0.1
v 0.2 0.8 -0.1
v 0.2 1.2 -0.1
v 0.2 1.5 -0.1
v 0.2 1.6 -0.1
v -0.2 0.6 -0.3
v -0.2 0.7 -0.3
v -0.1 0.6 -0.3
v -0.1 0.7 -0.3
v 0.1 0.6 -0.3
v 0.1 0.7 -0.3
v 0.2 0.6 -0.3
v 0.2 0.7 -0.3
v -0.3 0.8 -0.4
v -0.3 1.2 -0.4
v -0.2 0.5 -0.4
v -0.2 0.6 -0.4
v -0.2 0.8 -0.4
v -0.2 1.2 -0.4
v -0.2 1.3 -0.4
v -0.1 0.5 -0.4
v -0.1 0.6 -0.4
v -0.1 0.8 -0.4
v -0.1 1.1 -0.4
v 0.1 0.5 -0.4
v 0.1 0.6 -0.4
v 0.1 0.8 -0.4
v 0.1 1.1 -0.4
v 0.2 0.5 -0.4
v 0.2 0.6 -0.4
v 0.2 0.8 -0.4
v 0.2 1.2 -0.4
v 0.2 1.3 -0.4
v 0.3 0.8 -0.4
v 0.3 1.2 -0.4
v -0.2 0.4 -0.5
v -0.2 0.5 -0.5
v -0.1 0.4 -0.5
v -0.1 0.5 -0.5
v 0.1 0.4 -0.5
v 0.1 0.5 -0.5
v 0.2 0.4 -0.5
v 0.2 0.5 -0.5
v -0.2 0.3 -0.6
v -0.2 0.4 -0.6
v -0.1 0.3 -0.6
v -0.1 0.4 -0.6
v 0.1 0.3 -0.6
v 0.1 0.4 -0.6
v 0.2 0.3 -0.6
v 0.2 0.4 -0.6
v -0.2 0.2 -0.7
v -0.2 0.3 -0.7
v -0.1 0.2 -0.7
v -0.1 0.3 -0.7
v 0.1 0.2 -0.7
v 0.1 0.3 -0.7
v 0.2 0.2 -0.7
v 0.2 0.3 -0.7
v -0.3 0.8 -0.1
v -0.3 1.2 -0.1
v -0.2 0.8 -0.1
v -0.2 1.2 -0.1
v -0.2 1.3 -0.1
v 0.2 0.8 -0.1
v 0.2 1.2 -0.1
v 0.2 1.3 -0.1
v 0.3 0.8 -0.1
v 0.3 1.2 -0.1
v -0.1 0.8 -0.3
v -0.1 1.1 -0.3
v 0.1 0.8 -0.3
v 0.1 1.1 -0.3
v -0.2 0.6 -0.4
v -0.2 0.7 -0.4
v -0.2 1.5 -0.4
v -0.2 1.6 -0.4
v -0.1 0.6 -0.4
v -0.1 0.7 -0.4
v 0.1 0.6 -0.4
v 0.1 0.7 -0.4
v 0.2 0.6 -0.4
v 0.2 0.7 -0.4
v 0.2 1.5 -0.4
v 0.2 1.6 -0.4
v -0.4 1.3 -0.5
v -0.4 1.4 -0.5
v -0.3 0.7 -0.5
v -0.3 1.3 -0.5
v -0.3 1.4 -0.5
v -0.3 1.5 -0.5
v -0.2 0.5 -0.5
v -0.2 0.6 -0.5
v -0.2 0.8 -0.5
v -0.2 0.9 -0.5
v -0.1 0.5 -0.5
v -0.1 0.6 -0.5
v -0.1 0.8 -0.5
v -0.1 0.9 -0.5
v 0.1 0.5 -0.5
v 0.1 0.6 -0.5
v 0.1 0.8 -0.5
v 0.1 0.9 -0.5
v 0.2 0.5 -0.5
v 0.2 0.6 -0.5
v 0.2 0.8 -0.5
v 0.2 0.9 -0.5
v 0.3 0.7 -0.5
v 0.3 1.3 -0.5
v 0.3 1.4 -0.5
v 0.3 1.5 -0.5
v 0.4 1.3 -0.5
v 0.4 1.4 -0.5
v -0.3 1.3 -0.6
v -0.3 1.4 -0.6
v -0.2 0.4 -0.6
v -0.2 0.5 -0.6
v -0.1 0.4 -0.6
v -0.1 0.5 -0.6
v 0.1 0.4 -0.6
v 0.1 0.5 -0.6
v 0.2 0.4 -0.6
v 0.2 0.5 -0.6
v 0.3 1.3 -0.6
v 0.3 1.4 -0.6
v -0.2 0.3 -0.7
v -0.2 0.4 -0.7
v -0.1 0.3 -0.7
v -0.1 0.4 -0.7
v 0.1 0.3 -0.7
v 0.1 0.4 -0.7
v 0.2 0.3 -0.7
v 0.2 0.4 -0.7
v -0.2 0.2 -0.8
v -0.2 0.3 -0.8
v -0.2 0.8 -0.8
v -0.2 0.9 -0.8
v -0.1 0.2 -0.8
v -0.1 0.3 -0.8
v -0.1 0.8 -0.8
v -0.1 0.9 -0.8
v 0.1 0.2 -0.8
v 0.1 0.3 -0.8
v 0.1 0.8 -0.8
v 0.1 0.9 -0.8
v 0.2 0.2 -0.8
v 0.2 0.3 -0.8
v 0.2 0.8 -0.8
v 0.2 0.9 -0.8
v -0.2 0.2 -0.7
v -0.1 0.2 -0.7
v 0.1 0.2 -0.7
v 0.2 0.2 -0.7
v -0.2 0.2 -0.8
v -0.1 0.2 -0.8
v 0.1 0.2 -0.8
v 0.2 0.2 -0.8
v -0.2 0.3 -0.6
v -0.1 0.3 -0.6
v 0.1 0.3 -0.6
v 0.2 0.3 -0.6
v -0.2 0.3 -0.7
v -0.1 0.3 -0.7
v 0.1 0.3 -0.7
v 0.2 0.3 -0.7
v -0.2 0.4 -0.5
v -0.1 0.4 -0.5
v 0.1 0.4 -0.5
v 0.2 0.4 -0.5
v -0.2 0.4 -0.6
v -0.1 0.4 -0.6
v 0.1 0.4 -0.6
v 0.2 0.4 -0.6
v -0.2 0.5 -0.4
v -0.1 0.5 -0.4
v 0.1 0.5 -0.4
v 0.2 0.5 -0.4
v -0.2 0.5 -0.5
v -0.1 0.5 -0.5
v 0.1 0.5 -0.5
v 0.2 0.5 -0.5
v -0.2 0.6 -0.3
v -0.1 0.6 -0.3
v 0.1 0.6 -0.3
v 0.2 0.6 -0.3
v -0.2 0.6 -0.4
v -0.1 0.6 -0.4
v 0.1 0.6 -0.4
v 0.2 0.6 -0.4
v -0.3 0.7 -1.49012e-08
v 0.3 0.7 -1.49012e-08
v -0.2 0.7 -0.3
v -0.1 0.7 -0.3
v 0.1 0.7 -0.3
v 0.2 0.7 -0.3
v -0.2 0.7 -0.4
v -0.1 0.7 -0.4
v 0.1 0.7 -0.4
v 0.2 0.7 -0.4
v -0.3 0.7 -0.5
v 0.3 0.7 -0.5
v -0.2 0.8 -0.5
v -0.1 0.8 -0.5
v 0.1 0.8 -0.5
v 0.2 0.8 -0.5
v -0.2 0.8 -0.8
v -0.1 0.8 -0.8
v 0.1 0.8 -0.8
v 0.2 0.8 -0.8
v -0.1 1.1 -0.3
v 0.1 1.1 -0.3
v -0.1 1.1 -0.4
v 0.1 1.1 -0.4
v -0.2 1.2 -1.49012e-08
v 0.2 1.2 -1.49012e-08
v -0.3 1.2 -0.1
v -0.2 1.2 -0.1
v 0.2 1.2 -0.1
v 0.3 1.2 -0.1
v -0.3 1.2 -0.4
v -0.2 1.2 -0.4
v 0.2 1.2 -0.4
v 0.3 1.2 -0.4
v -0.3 1.3 0.1
v 0.3 1.3 0.1
v -0.4 1.3 -1.49012e-08
v -0.3 1.3 -1.49012e-08
v 0.3 1.3 -1.49012e-08
v 0.4 1.3 -1.49012e-08
v -0.2 1.3 -0.1
v 0.2 1.3 -0.1
v -0.2 1.3 -0.4
v 0.2 1.3 -0.4
v -0.4 1.3 -0.5
v -0.3 1.3 -0.5
v 0.3 1.3 -0.5
v 0.4 1.3 -0.5
v -0.3 1.3 -0.6
v 0.3 1.3 -0.6
v -0.2 0.3 -0.7
v -0.1 0.3 -0.7
v 0.1 0.3 -0.7
v 0.2 0.3 -0.7
v -0.2 0.3 -0.8
v -0.1 0.3 -0.8
v 0.1 0.3 -0.8
v 0.2 0.3 -0.8
v -0.2 0.4 -0.6
v -0.1 0.4 -0.6
v 0.1 0.4 -0.6
v 0.2 0.4 -0.6
v -0.2 0.4 -0.7
v -0.1 0.4 -0.7
v 0.1 0.4 -0.7
v 0.2 0.4 -0.7
v -0.2 0.5 -0.5
v -0.1 0.5 -0.5
v 0.1 0.5 -0.5
v 0.2 0.5 -0.5
v -0.2 0.5 -0.6
v -0.1 0.5 -0.6
v 0.1 0.5 -0.6
v 0.2 0.5 -0.6
v -0.2 0.6 -0.4
v -0.1 0.6 -0.4
v 0.1 0.6 -0.4
v 0.2 0.6 -0.4
v -0.2 0.6 -0.5
v -0.1 0.6 -0.5
v 0.1 0.6 -0.5
v 0.2 0.6 -0.5
v -0.2 0.8 -1.49012e-08
v 0.2 0.8 -1.49012e-08
v -0.3 0.8 -0.1
v -0.2 0.8 -0.1
v 0.2 0.8 -0.1
v 0.3 0.8 -0.1
v -0.1 0.8 -0.3
v 0.1 0.8 -0.3
v -0.3 0.8 -0.4
v -0.2 0.8 -0.4
v -0.1 0.8 -0.4
v 0.1 0.8 -0.4
v 0.2 0.8 -0.4
v 0.3 0.8 -0.4
v -0.2 0.9 -0.5
v -0.1 0.9 -0.5
v 0.1 0.9 -0.5
v 0.2 0.9 -0.5
v -0.2 0.9 -0.8
v -0.1 0.9 -0.8
v 0.1 0.9 -0.8
v 0.2 0.9 -0.8
v -0.2 1.2 -0.1
v 0.2 1.2 -0.1
v -0.2 1.2 -0.4
v 0.2 1.2 -0.4
v -0.3 1.4 0.1
v 0.3 1.4 0.1
v -0.4 1.4 -1.49012e-08
v -0.3 1.4 -1.49012e-08
v 0.3 1.4 -1.49012e-08
v 0.4 1.4 -1.49012e-08
v -0.4 1.4 -0.5
v -0.3 1.4 -0.5
v 0.3 1.4 -0.5
v 0.4 1.4 -0.5
v -0.3 1.4 -0.6
v 0.3 1.4 -0.6
v -0.3 1.5 -1.49012e-08
v 0.3 1.5 -1.49012e-08
v -0.2 1.5 -0.1
v 0.2 1.5 -0.1
v -0.2 1.5 -0.4
v 0.2 1.5 -0.4
v -0.3 1.5 -0.5
v 0.3 1.5 -0.5
v -0.2 1.6 -0.1
v 0.2 1.6 -0.1
v -0.2 1.6 -0.4
v 0.2 1.6 -0.4

# faces
f 3/2/1 2/2/1 1/2/1
f 4/2/1 2/2/1 3/2/1
f 7/3/1 6/3/1 5/3/1
f 8/3/1 6/3/1 7/3/1
f 9/3/1 7/3/1 5/3/1
f 10/3/1 6/3/1 8/3/1
f 12/3/1 9/3/1 5/3/1
f 12/3/1 10/3/1 9/3/1
f 13/3/1 6/3/1 10/3/1
f 13/3/1 10/3/1 12/3/1
f 15/2/1 12/2/1 11/2/1
f 16/2/1 12/2/1 15/2/1
f 17/2/1 14/2/1 13/2/1
f 18/2/1 14/2/1 17/2/1
f 19/2/1 17/2/1 16/2/1
f 20/2/1 17/2/1 19/2/1
f 24/3/1 22/3/1 21/3/1
f 25/3/1 22/3/1 24/3/1
f 27/3/1 24/3/1 23/3/1
f 28/3/1 24/3/1 27/3/1
f 30/3/1 27/3/1 26/3/1
f 31/3/1 27/3/1 30/3/1
f 33/3/1 30/3/1 29/3/1
f 34/3/1 30/3/1 33/3/1
f 35/3/1 33/3/1 32/3/1
f 36/3/1 33/3/1 35/3/1
f 41/3/1 40/3/1 39/3/1
f 42/3/1 40/3/1 41/3/1
f 43/1/1 38/1/1 37/1/1
f 44/1/1 38/1/1 43/1/1
f 47/2/1 46/2/1 45/2/1
f 48/2/1 46/2/1 47/2/1
f 52/3/1 50/3/1 49/3/1
f 53/3/1 50/3/1 52/3/1
f 55/3/1 52/3/1 51/3/1
f 56/3/1 52/3/1 55/3/1
f 58/3/1 55/3/1 54/3/1
f 59/3/1 55/3/1 58/3/1
f 61/3/1 58/3/1 57/3/1
f 62/3/1 58/3/1 61/3/1
f 63/3/1 61/3/1 60/3/1
f 64/3/1 61/3/1 63/3/1
f 69/3/1 68/3/1 67/3/1
f 70/3/1 68/3/1 69/3/1
f 71/1/1 66/1/1 65/1/1
f 72/1/1 66/1/1 71/1/1
f 75/3/1 74/3/1 73/3/1
f 76/3/1 74/3/1 75/3/1
f 78/3/1 77/3/1 76/3/1
f 79/3/1 77/3/1 78/3/1
f 80/3/2 81/3/2 82/3/2
f 82/3/2 81/3/2 83/3/2
f 83/3/2 84/3/2 85/3/2
f 85/3/2 84/3/2 86/3/2
f 87/3/2 88/3/2 90/3/2
f 90/3/2 88/3/2 91/3/2
f 89/3/2 90/3/2 93/3/2
f 93/3/2 90/3/2 94/3/2
f 92/3/2 93/3/2 96/3/2
f 96/3/2 93/3/2 97/3/2
f 95/3/2 96/3/2 99/3/2
f 99/3/2 96/3/2 100/3/2
f 98/3/2 99/3/2 101/3/2
f 101/3/2 99/3/2 102/3/2
f 105/3/2 106/3/2 107/3/2
f 107/3/2 106/3/2 108/3/2
f 103/1/2 104/1/2 109/1/2
f 109/1/2 104/1/2 110/1/2
f 111/3/2 112/3/2 114/3/2
f 114/3/2 112/3/2 115/3/2
f 113/3/2 114/3/2 117/3/2
f 117/3/2 114/3/2 118/3/2
f 116/3/2 117/3/2 120/3/2
f 120/3/2 117/3/2 121/3/2
f 119/3/2 120/3/2 123/3/2
f 123/3/2 120/3/2 124/3/2
f 122/3/2 123/3/2 125/3/2
f 125/3/2 123/3/2 126/3/2
f 129/3/2 130/3/2 131/3/2
f 131/3/2 130/3/2 132/3/2
f 127/1/2 128/1/2 133/1/2
f 133/1/2 128/1/2 134/1/2
f 135/2/2 136/2/2 137/2/2
f 137/2/2 136/2/2 138/2/2
f 139/3/2 140/3/2 141/3/2
f 141/3/2 140/3/2 142/3/2
f 139/3/2 141/3/2 143/3/2
f 142/3/2 140/3/2 144/3/2
f 139/3/2 143/3/2 146/3/2
f 143/3/2 144/3/2 146/3/2
f 144/3/2 140/3/2 147/3/2
f 146/3/2 144/3/2 147/3/2
f 145/2/2 146/2/2 149/2/2
f 149/2/2 146/2/2 150/2/2
f 147/2/2 148/2/2 151/2/2
f 151/2/2 148/2/2 152/2/2
f 150/2/2 151/2/2 153/2/2
f 153/2/2 151/2/2 154/2/2
f 155/2/2 156/2/2 157/2/2
f 157/2/2 156/2/2 158/2/2
f 161/2/3 160/2/3 159/2/3
f 162/2/3 160/2/3 161/2/3
f 166/2/3 164/2/3 163/2/3
f 167/2/3 164/2/3 166/2/3
f 169/3/3 166/3/3 165/3/3
f 170/3/3 166/3/3 169/3/3
f 171/3/3 169/3/3 165/3/3
f 172/3/3 166/3/3 170/3/3
f 173/3/3 171/3/3 165/3/3
f 173/3/3 172/3/3 171/3/3
f 174/3/3 166/3/3 172/3/3
f 174/3/3 172/3/3 173/3/3
f 175/2/3 168/2/3 167/2/3
f 176/2/3 168/2/3 175/2/3
f 177/2/3 175/2/3 174/2/3
f 178/2/3 175/2/3 177/2/3
f 183/1/3 180/1/3 179/1/3
f 184/1/3 180/1/3 183/1/3
f 185/2/3 182/2/3 181/2/3
f 186/2/3 182/2/3 185/2/3
f 189/3/3 188/3/3 187/3/3
f 190/3/3 188/3/3 189/3/3
f 193/3/3 192/3/3 191/3/3
f 194/3/3 192/3/3 193/3/3
f 199/3/3 196/3/3 195/3/3
f 200/3/3 196/3/3 199/3/3
f 202/3/3 198/3/3 197/3/3
f 203/3/3 198/3/3 202/3/3
f 208/3/3 205/3/3 204/3/3
f 209/3/3 205/3/3 208/3/3
f 210/3/3 207/3/3 206/3/3
f 211/3/3 207/3/3 210/3/3
f 213/3/3 201/3/3 200/3/3
f 214/3/3 201/3/3 213/3/3
f 215/3/3 213/3/3 212/3/3
f 216/3/3 213/3/3 215/3/3
f 219/3/3 218/3/3 217/3/3
f 220/3/3 218/3/3 219/3/3
f 223/3/3 222/3/3 221/3/3
f 224/3/3 222/3/3 223/3/3
f 227/3/3 226/3/3 225/3/3
f 228/3/3 226/3/3 227/3/3
f 231/3/3 230/3/3 229/3/3
f 232/3/3 230/3/3 231/3/3
f 235/3/3 234/3/3 233/3/3
f 236/3/3 234/3/3 235/3/3
f 239/3/3 238/3/3 237/3/3
f 240/3/3 238/3/3 239/3/3
f 241/3/4 242/3/4 243/3/4
f 243/3/4 242/3/4 244/3/4
f 244/3/4 245/3/4 247/3/4
f 247/3/4 245/3/4 248/3/4
f 246/3/4 247/3/4 249/3/4
f 249/3/4 247/3/4 250/3/4
f 251/1/4 252/1/4 253/1/4
f 253/1/4 252/1/4 254/1/4
f 255/3/4 256/3/4 259/3/4
f 259/3/4 256/3/4 260/3/4
f 261/3/4 262/3/4 263/3/4
f 263/3/4 262/3/4 264/3/4
f 257/2/4 258/2/4 265/2/4
f 265/2/4 258/2/4 266/2/4
f 267/2/4 268/2/4 270/2/4
f 270/2/4 268/2/4 271/2/4
f 269/3/4 270/3/4 275/3/4
f 275/3/4 270/3/4 276/3/4
f 273/3/4 274/3/4 277/3/4
f 277/3/4 274/3/4 278/3/4
f 269/3/4 275/3/4 279/3/4
f 276/3/4 270/3/4 280/3/4
f 269/3/4 279/3/4 283/3/4
f 279/3/4 280/3/4 283/3/4
f 280/3/4 270/3/4 284/3/4
f 283/3/4 280/3/4 284/3/4
f 281/3/4 282/3/4 285/3/4
f 285/3/4 282/3/4 286/3/4
f 269/3/4 283/3/4 287/3/4
f 284/3/4 270/3/4 288/3/4
f 269/3/4 287/3/4 289/3/4
f 287/3/4 288/3/4 289/3/4
f 288/3/4 270/3/4 290/3/4
f 289/3/4 288/3/4 290/3/4
f 271/2/4 272/2/4 291/2/4
f 291/2/4 272/2/4 292/2/4
f 290/2/4 291/2/4 293/2/4
f 293/2/4 291/2/4 294/2/4
f 297/3/4 298/3/4 299/3/4
f 299/3/4 298/3/4 300/3/4
f 301/3/4 302/3/4 303/3/4
f 303/3/4 302/3/4 304/3/4
f 295/2/4 296/2/4 305/2/4
f 305/2/4 296/2/4 306/2/4
f 307/3/4 308/3/4 309/3/4
f 309/3/4 308/3/4 310/3/4
f 311/3/4 312/3/4 313/3/4
f 313/3/4 312/3/4 314/3/4
f 315/3/4 316/3/4 319/3/4
f 319/3/4 316/3/4 320/3/4
f 317/3/4 318/3/4 321/3/4
f 321/3/4 318/3/4 322/3/4
f 323/3/4 324/3/4 327/3/4
f 327/3/4 324/3/4 328/3/4
f 325/3/4 326/3/4 329/3/4
f 329/3/4 326/3/4 330/3/4
f 335/3/5 332/3/5 331/3/5
f 336/3/5 332/3/5 335/3/5
f 337/3/5 334/3/5 333/3/5
f 338/3/5 334/3/5 337/3/5
f 343/3/5 340/3/5 339/3/5
f 344/3/5 340/3/5 343/3/5
f 345/3/5 342/3/5 341/3/5
f 346/3/5 342/3/5 345/3/5
f 351/3/5 348/3/5 347/3/5
f 352/3/5 348/3/5 351/3/5
f 353/3/5 350/3/5 349/3/5
f 354/3/5 350/3/5 353/3/5
f 359/3/5 356/3/5 355/3/5
f 360/3/5 356/3/5 359/3/5
f 361/3/5 358/3/5 357/3/5
f 362/3/5 358/3/5 361/3/5
f 367/3/5 364/3/5 363/3/5
f 368/3/5 364/3/5 367/3/5
f 369/3/5 366/3/5 365/3/5
f 370/3/5 366/3/5 369/3/5
f 373/3/5 372/3/5 371/3/5
f 374/3/5 372/3/5 373/3/5
f 375/3/5 372/3/5 374/3/5
f 376/3/5 372/3/5 375/3/5
f 377/3/5 373/3/5 371/3/5
f 378/3/5 375/3/5 374/3/5
f 379/3/5 375/3/5 378/3/5
f 380/3/5 372/3/5 376/3/5
f 381/3/5 379/3/5 378/3/5
f 381/3/5 380/3/5 379/3/5
f 381/3/5 377/3/5 371/3/5
f 381/3/5 378/3/5 377/3/5
f 382/3/5 372/3/5 380/3/5
f 382/3/5 380/3/5 381/3/5
f 387/3/5 384/3/5 383/3/5
f 388/3/5 384/3/5 387/3/5
f 389/3/5 386/3/5 385/3/5
f 390/3/5 386/3/5 389/3/5
f 393/1/5 392/1/5 391/1/5
f 394/1/5 392/1/5 393/1/5
f 398/3/5 396/3/5 395/3/5
f 399/3/5 396/3/5 398/3/5
f 401/3/5 398/3/5 397/3/5
f 402/3/5 398/3/5 401/3/5
f 403/3/5 400/3/5 399/3/5
f 404/3/5 400/3/5 403/3/5
f 408/2/5 406/2/5 405/2/5
f 409/2/5 406/2/5 408/2/5
f 413/2/5 412/2/5 411/2/5
f 414/2/5 412/2/5 413/2/5
f 415/2/5 408/2/5 407/2/5
f 416/2/5 408/2/5 415/2/5
f 417/2/5 410/2/5 409/2/5
f 418/2/5 410/2/5 417/2/5
f 419/2/5 417/2/5 416/2/5
f 420/2/5 417/2/5 419/2/5
f 421/3/6 422/3/6 425/3/6
f 425/3/6 422/3/6 426/3/6
f 423/3/6 424/3/6 427/3/6
f 427/3/6 424/3/6 428/3/6
f 429/3/6 430/3/6 433/3/6
f 433/3/6 430/3/6 434/3/6
f 431/3/6 432/3/6 435/3/6
f 435/3/6 432/3/6 436/3/6
f 437/3/6 438/3/6 441/3/6
f 441/3/6 438/3/6 442/3/6
f 439/3/6 440/3/6 443/3/6
f 443/3/6 440/3/6 444/3/6
f 445/3/6 446/3/6 449/3/6
f 449/3/6 446/3/6 450/3/6
f 447/3/6 448/3/6 451/3/6
f 451/3/6 448/3/6 452/3/6
f 453/3/6 454/3/6 456/3/6
f 456/3/6 454/3/6 457/3/6
f 455/3/6 456/3/6 461/3/6
f 461/3/6 456/3/6 462/3/6
f 459/3/6 460/3/6 463/3/6
f 463/3/6 460/3/6 464/3/6
f 457/3/6 458/3/6 465/3/6
f 465/3/6 458/3/6 466/3/6
f 467/3/6 468/3/6 471/3/6
f 471/3/6 468/3/6 472/3/6
f 469/3/6 470/3/6 473/3/6
f 473/3/6 470/3/6 474/3/6
f 475/1/6 476/1/6 477/1/6
f 477/1/6 476/1/6 478/1/6
f 479/2/6 480/2/6 482/2/6
f 482/2/6 480/2/6 483/2/6
f 481/2/6 482/2/6 485/2/6
f 485/2/6 482/2/6 486/2/6
f 483/2/6 484/2/6 487/2/6
f 487/2/6 484/2/6 488/2/6
f 486/2/6 487/2/6 489/2/6
f 489/2/6 487/2/6 490/2/6
f 491/2/6 492/2/6 493/2/6
f 493/2/6 492/2/6 494/2/6
f 491/2/6 493/2/6 495/2/6
f 494/2/6 492/2/6 496/2/6
f 491/2/6 495/2/6 497/2/6
f 495/2/6 496/2/6 497/2/6
f 496/2/6 492/2/6 498/2/6
f 497/2/6 496/2/6 498/2/6
f 499/2/6 500/2/6 501/2/6
f 501/2/6 500/2/6 502/2/6
