# MagicaVoxel @ Ephtracy

# group
o 

# material
mtllib mario.mtl
usemtl palette

# normals
vn -1 0 0
vn 1 0 0
vn 0 0 1
vn 0 0 -1
vn 0 -1 0
vn 0 1 0

# texcoords
vt 0.00195312 0.5
vt 0.00585938 0.5
vt 0.00976562 0.5
vt 0.0136719 0.5
vt 0.0175781 0.5
vt 0.0214844 0.5
vt 0.0253906 0.5
vt 0.0292969 0.5
vt 0.0332031 0.5
vt 0.0371094 0.5
vt 0.0410156 0.5
vt 0.0449219 0.5
vt 0.0488281 0.5
vt 0.0527344 0.5
vt 0.0566406 0.5
vt 0.306641 0.5
vt 0.927734 0.5

# verts
v -0.6 0.4 -0.2
v -0.6 0.4 -0.3
v -0.6 0.5 -0.2
v -0.6 0.5 -0.3
v -0.6 0.6 -0.2
v -0.6 0.6 -0.3
v -0.6 1.1 -0.4
v -0.6 1.1 -0.5
v -0.6 1.1 -0.6
v -0.6 1.3 -0.4
v -0.6 1.3 -0.5
v -0.6 1.3 -0.6
v -0.6 1.4 -0.3
v -0.6 1.4 -0.5
v -0.6 1.5 -0.4
v -0.6 1.5 -0.5
v -0.6 1.6 -0.3
v -0.6 1.6 -0.4
v -0.5 0 0.3
v -0.5 0 -0.1
v -0.5 0.1 0.3
v -0.5 0.1 0.2
v -0.5 0.1 -0.1
v -0.5 0.2 0.3
v -0.5 0.2 0.2
v -0.5 0.3 -0.2
v -0.5 0.3 -0.3
v -0.5 0.4 -0.1
v -0.5 0.4 -0.2
v -0.5 0.4 -0.3
v -0.5 0.4 -0.4
v -0.5 0.5 -0.2
v -0.5 0.5 -0.3
v -0.5 0.6 -0.1
v -0.5 0.6 -0.2
v -0.5 0.6 -0.3
v -0.5 0.6 -0.4
v -0.5 0.7 -0.1
v -0.5 0.7 -0.2
v -0.5 0.7 -0.3
v -0.5 0.7 -0.4
v -0.5 1 -0.2
v -0.5 1 -0.3
v -0.5 1 -0.4
v -0.5 1.1 -0.2
v -0.5 1.1 -0.3
v -0.5 1.1 -0.4
v -0.5 1.2 -0.3
v -0.5 1.2 -0.4
v -0.5 1.3 -0.1
v -0.5 1.3 -0.3
v -0.5 1.3 -0.4
v -0.5 1.3 -0.5
v -0.5 1.3 -0.6
v -0.5 1.4 -0.1
v -0.5 1.4 -0.2
v -0.5 1.4 -0.3
v -0.5 1.4 -0.5
v -0.5 1.4 -0.6
v -0.5 1.5 -0.2
v -0.5 1.5 -0.3
v -0.5 1.6 -0.2
v -0.5 1.6 -0.3
v -0.5 1.7 -0.2
v -0.5 1.7 -0.3
v -0.4 0 -0.1
v -0.4 0 -0.2
v -0.4 0.1 0.2
v -0.4 0.1 -0.1
v -0.4 0.1 -0.2
v -0.4 0.2 0.2
v -0.4 0.2 0.1
v -0.4 0.3 0.2
v -0.4 0.3 0.1
v -0.4 0.3 -0.1
v -0.4 0.3 -0.2
v -0.4 0.3 -0.3
v -0.4 0.3 -0.4
v -0.4 0.4 0.2
v -0.4 0.4 0
v -0.4 0.4 -0.1
v -0.4 0.4 -0.2
v -0.4 0.4 -0.3
v -0.4 0.4 -0.4
v -0.4 0.6 0
v -0.4 0.6 -0.1
v -0.4 0.7 0.2
v -0.4 0.7 0.1
v -0.4 0.7 -0.1
v -0.4 0.7 -0.2
v -0.4 0.7 -0.3
v -0.4 0.8 0.2
v -0.4 0.8 0.1
v -0.4 0.8 0
v -0.4 0.8 -0.1
v -0.4 0.8 -0.2
v -0.4 0.8 -0.3
v -0.4 0.9 -0.1
v -0.4 0.9 -0.2
v -0.4 0.9 -0.3
v -0.4 0.9 -0.4
v -0.4 1 0.2
v -0.4 1 -0.1
v -0.4 1 -0.2
v -0.4 1 -0.3
v -0.4 1 -0.4
v -0.4 1 -0.5
v -0.4 1.1 0.2
v -0.4 1.1 -0.1
v -0.4 1.1 -0.2
v -0.4 1.1 -0.3
v -0.4 1.1 -0.4
v -0.4 1.1 -0.5
v -0.4 1.2 -0.1
v -0.4 1.2 -0.3
v -0.4 1.2 -0.4
v -0.4 1.2 -0.5
v -0.4 1.2 -0.6
v -0.4 1.3 -0.1
v -0.4 1.3 -0.3
v -0.4 1.3 -0.4
v -0.4 1.3 -0.5
v -0.4 1.3 -0.6
v -0.4 1.3 -0.7
v -0.4 1.4 0.2
v -0.4 1.4 -0.1
v -0.4 1.4 -0.2
v -0.4 1.4 -0.6
v -0.4 1.4 -0.7
v -0.4 1.5 0.2
v -0.4 1.5 0
v -0.4 1.5 -0.2
v -0.4 1.6 0
v -0.4 1.6 -0.1
v -0.4 1.6 -0.2
v -0.4 1.7 0
v -0.4 1.7 -0.1
v -0.4 1.7 -0.2
v -0.4 1.8 -0.1
v -0.4 1.8 -0.2
v -0.3 0.3 0.2
v -0.3 0.3 0.1
v -0.3 0.3 -0.1
v -0.3 0.4 0.3
v -0.3 0.4 0.2
v -0.3 0.4 0.1
v -0.3 0.4 0
v -0.3 0.4 -0.1
v -0.3 0.5 0.3
v -0.3 0.5 0.2
v -0.3 0.6 -0.1
v -0.3 0.6 -0.2
v -0.3 0.7 0.3
v -0.3 0.7 0.2
v -0.3 0.7 -0.1
v -0.3 0.7 -0.2
v -0.3 0.7 -0.3
v -0.3 0.7 -0.4
v -0.3 0.8 0.3
v -0.3 0.8 0.2
v -0.3 0.8 0.1
v -0.3 0.8 0
v -0.3 0.8 -0.1
v -0.3 0.8 -0.2
v -0.3 0.8 -0.3
v -0.3 0.8 -0.4
v -0.3 0.9 0.2
v -0.3 0.9 0
v -0.3 0.9 -0.1
v -0.3 0.9 -0.2
v -0.3 1 0.3
v -0.3 1 0.2
v -0.3 1 0
v -0.3 1 -0.1
v -0.3 1.1 0.3
v -0.3 1.1 0.2
v -0.3 1.1 -0.1
v -0.3 1.2 0.2
v -0.3 1.2 0.1
v -0.3 1.2 0
v -0.3 1.2 -0.1
v -0.3 1.2 -0.6
v -0.3 1.2 -0.7
v -0.3 1.3 0.1
v -0.3 1.3 0
v -0.3 1.3 -0.1
v -0.3 1.3 -0.6
v -0.3 1.3 -0.7
v -0.3 1.4 0.4
v -0.3 1.4 0.2
v -0.3 1.4 0.1
v -0.3 1.4 -0.1
v -0.3 1.4 -0.5
v -0.3 1.4 -0.6
v -0.3 1.5 0.4
v -0.3 1.5 0.2
v -0.3 1.5 0
v -0.3 1.5 -0.4
v -0.3 1.5 -0.5
v -0.3 1.5 -0.6
v -0.3 1.6 0.2
v -0.3 1.6 0.1
v -0.3 1.6 0
v -0.3 1.6 -0.3
v -0.3 1.6 -0.4
v -0.3 1.6 -0.5
v -0.3 1.7 0.1
v -0.3 1.7 0
v -0.3 1.7 -0.1
v -0.3 1.7 -0.2
v -0.3 1.7 -0.3
v -0.3 1.7 -0.4
v -0.3 1.8 0
v -0.3 1.8 -0.1
v -0.3 1.8 -0.2
v -0.3 1.8 -0.3
v -0.2 0.3 0.3
v -0.2 0.3 0.2
v -0.2 0.4 0.3
v -0.2 0.4 0.2
v -0.2 0.4 -0.4
v -0.2 0.4 -0.5
v -0.2 0.6 -0.4
v -0.2 0.6 -0.5
v -0.2 0.8 0.3
v -0.2 0.8 0.2
v -0.2 0.8 -0.2
v -0.2 0.8 -0.3
v -0.2 0.9 0.3
v -0.2 0.9 0.2
v -0.2 0.9 -0.2
v -0.2 0.9 -0.3
v -0.2 1 0.5
v -0.2 1 0.3
v -0.2 1 0.2
v -0.2 1.1 0.5
v -0.2 1.1 0.3
v -0.2 1.1 0.2
v -0.2 1.1 -0.5
v -0.2 1.1 -0.6
v -0.2 1.2 0.5
v -0.2 1.2 0.3
v -0.2 1.2 0.2
v -0.2 1.2 0.1
v -0.2 1.2 -0.5
v -0.2 1.2 -0.6
v -0.2 1.3 0.1
v -0.2 1.4 0.5
v -0.2 1.4 0.4
v -0.2 1.4 0.2
v -0.2 1.4 0.1
v -0.2 1.5 0.5
v -0.2 1.5 0.4
v -0.2 1.5 0.3
v -0.2 1.5 0.2
v -0.2 1.6 0.3
v -0.2 1.6 0.2
v -0.2 1.6 0.1
v -0.2 1.7 0.2
v -0.2 1.7 0.1
v -0.2 1.7 0
v -0.2 1.8 0.1
v -0.2 1.8 0
v -0.2 1.8 -0.1
v -0.2 1.9 0.1
v -0.2 1.9 -0.1
v -0.1 0.4 0.4
v -0.1 0.4 0.3
v -0.1 0.5 0.4
v -0.1 0.5 0.3
v -0.1 0.7 0.4
v -0.1 0.7 0.3
v -0.1 0.9 0.4
v -0.1 0.9 0.3
v -0.1 1 0.4
v -0.1 1 0.3
v -0.1 1.2 0.3
v -0.1 1.2 0.2
v -0.1 1.3 0.3
v -0.1 1.3 0.2
v -0.1 1.4 0.3
v -0.1 1.4 0.2
v -0.1 1.5 0.4
v -0.1 1.5 0.3
v -0.1 1.6 0.4
v -0.1 1.6 0.3
v -0.1 1.6 0.2
v -0.1 1.7 0.3
v -0.1 1.7 0.2
v -0.1 1.7 0.1
v -0.1 1.8 0.2
v -0.1 1.8 0.1
v 0.1 0 0.3
v 0.1 0 0.2
v 0.1 0.1 0.3
v 0.1 0.1 0.2
v 0.1 0.7 0.3
v 0.1 0.7 0.2
v 0.1 0.7 -0.3
v 0.1 0.7 -0.4
v 0.1 0.8 0.3
v 0.1 0.8 0.2
v 0.1 0.8 -0.3
v 0.1 0.8 -0.4
v 0.1 1 0.2
v 0.1 1 0.1
v 0.1 1.1 0.2
v 0.1 1.1 0.1
v 0.1 1.2 0.2
v 0.1 1.2 0.1
v 0.1 1.2 -0.4
v 0.1 1.2 -0.5
v 0.1 1.3 0.2
v 0.1 1.3 -0.4
v 0.1 1.3 -0.5
v 0.1 1.4 0.2
v 0.1 1.4 0.1
v 0.1 1.5 -0.3
v 0.1 1.5 -0.4
v 0.1 1.6 0.1
v 0.1 1.6 0
v 0.1 1.6 -0.1
v 0.1 1.6 -0.2
v 0.1 1.6 -0.3
v 0.1 1.6 -0.4
v 0.1 1.7 0.1
v 0.1 1.7 0
v 0.1 1.7 -0.1
v 0.1 1.7 -0.2
v 0.2 0.1 0.3
v 0.2 0.1 0.2
v 0.2 0.2 0.3
v 0.2 0.2 0.2
v 0.2 0.3 -0.3
v 0.2 0.3 -0.4
v 0.2 0.4 0.2
v 0.2 0.4 0.1
v 0.2 0.4 0
v 0.2 0.4 -0.3
v 0.2 0.4 -0.4
v 0.2 0.5 0.2
v 0.2 0.6 0.2
v 0.2 0.6 0
v 0.2 0.8 0.2
v 0.2 0.8 -0.2
v 0.2 0.9 0.2
v 0.2 0.9 0
v 0.2 0.9 -0.1
v 0.2 0.9 -0.2
v 0.2 1 0.2
v 0.2 1 0.1
v 0.2 1 0
v 0.2 1 -0.1
v 0.2 1.1 0.1
v 0.2 1.1 -0.1
v 0.2 1.2 0.1
v 0.2 1.2 0
v 0.2 1.2 -0.1
v 0.2 1.2 -0.2
v 0.2 1.3 0.1
v 0.2 1.3 0
v 0.2 1.3 -0.1
v 0.2 1.3 -0.2
v 0.2 1.4 0.1
v 0.2 1.4 -0.1
v 0.2 1.4 -0.4
v 0.2 1.4 -0.5
v 0.2 1.5 0.1
v 0.2 1.5 0
v 0.2 1.5 -0.2
v 0.2 1.5 -0.3
v 0.2 1.5 -0.4
v 0.2 1.5 -0.5
v 0.2 1.6 0.1
v 0.2 1.6 0
v 0.2 1.6 -0.1
v 0.2 1.6 -0.2
v 0.2 1.6 -0.3
v 0.2 1.7 0
v 0.2 1.7 -0.1
v 0.3 0.6 -0.2
v 0.3 0.6 -0.3
v 0.3 0.7 -0.2
v 0.3 0.7 -0.3
v 0.3 0.9 -0.1
v 0.3 0.9 -0.2
v 0.3 0.9 -0.3
v 0.3 1 0.1
v 0.3 1 0
v 0.3 1 -0.1
v 0.3 1 -0.2
v 0.3 1.1 0.1
v 0.3 1.1 -0.1
v 0.3 1.1 -0.2
v 0.3 1.1 -0.3
v 0.3 1.1 -0.4
v 0.3 1.2 -0.1
v 0.3 1.2 -0.2
v 0.3 1.2 -0.3
v 0.3 1.2 -0.4
v 0.3 1.3 -0.1
v 0.3 1.3 -0.2
v 0.3 1.3 -0.3
v 0.3 1.3 -0.4
v 0.3 1.4 0.1
v 0.3 1.4 -0.1
v 0.3 1.4 -0.2
v 0.3 1.4 -0.4
v 0.3 1.5 0.1
v 0.3 1.5 0
v 0.3 1.5 -0.2
v 0.3 1.5 -0.4
v 0.3 1.6 0
v 0.3 1.6 -0.2
v 0.4 0.6 -0.1
v 0.4 0.6 -0.2
v 0.4 0.7 -0.1
v 0.4 0.7 -0.2
v 0.4 1.3 -0.2
v 0.4 1.3 -0.3
v 0.4 1.3 -0.5
v 0.4 1.4 -0.2
v 0.4 1.4 -0.4
v 0.4 1.4 -0.5
v 0.5 1.1 -0.5
v 0.5 1.1 -0.6
v 0.5 1.2 -0.4
v 0.5 1.2 -0.5
v 0.5 1.3 -0.4
v 0.5 1.3 -0.5
v 0.5 1.3 -0.6
v -0.5 1.1 -0.5
v -0.5 1.1 -0.6
v -0.5 1.2 -0.4
v -0.5 1.2 -0.5
v -0.5 1.3 -0.4
v -0.5 1.3 -0.5
v -0.5 1.3 -0.6
v -0.4 0.6 -0.1
v -0.4 0.6 -0.2
v -0.4 0.7 -0.1
v -0.4 0.7 -0.2
v -0.4 1.3 -0.2
v -0.4 1.3 -0.3
v -0.4 1.3 -0.5
v -0.4 1.4 -0.2
v -0.4 1.4 -0.5
v -0.3 0.6 -0.2
v -0.3 0.6 -0.3
v -0.3 0.7 -0.2
v -0.3 0.7 -0.3
v -0.3 0.9 -0.1
v -0.3 0.9 -0.2
v -0.3 0.9 -0.3
v -0.3 1 0.1
v -0.3 1 0
v -0.3 1 -0.1
v -0.3 1 -0.2
v -0.3 1.1 0.1
v -0.3 1.1 -0.1
v -0.3 1.1 -0.2
v -0.3 1.1 -0.3
v -0.3 1.1 -0.4
v -0.3 1.2 -0.1
v -0.3 1.2 -0.2
v -0.3 1.2 -0.3
v -0.3 1.2 -0.4
v -0.3 1.3 -0.1
v -0.3 1.3 -0.2
v -0.3 1.3 -0.3
v -0.3 1.3 -0.4
v -0.3 1.4 0.1
v -0.3 1.4 -0.1
v -0.3 1.4 -0.2
v -0.3 1.4 -0.4
v -0.3 1.5 0.1
v -0.3 1.5 0
v -0.3 1.5 -0.2
v -0.3 1.5 -0.4
v -0.3 1.6 0
v -0.3 1.6 -0.2
v -0.2 0.1 0.3
v -0.2 0.1 0.2
v -0.2 0.2 0.3
v -0.2 0.2 0.2
v -0.2 0.3 -0.3
v -0.2 0.3 -0.4
v -0.2 0.4 0.2
v -0.2 0.4 0.1
v -0.2 0.4 0
v -0.2 0.4 -0.3
v -0.2 0.4 -0.4
v -0.2 0.5 0.2
v -0.2 0.6 0.2
v -0.2 0.6 0
v -0.2 0.8 0.2
v -0.2 0.8 -0.2
v -0.2 0.9 0.2
v -0.2 0.9 0
v -0.2 0.9 -0.1
v -0.2 0.9 -0.2
v -0.2 1 0.2
v -0.2 1 0.1
v -0.2 1 0
v -0.2 1 -0.1
v -0.2 1.1 0.1
v -0.2 1.1 -0.1
v -0.2 1.2 0.1
v -0.2 1.2 0
v -0.2 1.2 -0.1
v -0.2 1.2 -0.2
v -0.2 1.3 0.1
v -0.2 1.3 0
v -0.2 1.3 -0.1
v -0.2 1.3 -0.2
v -0.2 1.4 0.1
v -0.2 1.4 -0.1
v -0.2 1.4 -0.4
v -0.2 1.4 -0.5
v -0.2 1.5 0.1
v -0.2 1.5 0
v -0.2 1.5 -0.2
v -0.2 1.5 -0.3
v -0.2 1.5 -0.4
v -0.2 1.5 -0.5
v -0.2 1.6 0.1
v -0.2 1.6 0
v -0.2 1.6 -0.1
v -0.2 1.6 -0.2
v -0.2 1.6 -0.3
v -0.2 1.7 0
v -0.2 1.7 -0.1
v -0.1 0 0.3
v -0.1 0 0.2
v -0.1 0.1 0.3
v -0.1 0.1 0.2
v -0.1 0.7 0.3
v -0.1 0.7 0.2
v -0.1 0.7 -0.3
v -0.1 0.7 -0.4
v -0.1 0.8 0.3
v -0.1 0.8 0.2
v -0.1 0.8 -0.3
v -0.1 0.8 -0.4
v -0.1 1 0.2
v -0.1 1 0.1
v -0.1 1.1 0.2
v -0.1 1.1 0.1
v -0.1 1.2 0.2
v -0.1 1.2 0.1
v -0.1 1.2 -0.4
v -0.1 1.2 -0.5
v -0.1 1.3 0.2
v -0.1 1.3 -0.4
v -0.1 1.3 -0.5
v -0.1 1.4 0.2
v -0.1 1.4 0.1
v -0.1 1.5 -0.3
v -0.1 1.5 -0.4
v -0.1 1.6 0.1
v -0.1 1.6 0
v -0.1 1.6 -0.1
v -0.1 1.6 -0.2
v -0.1 1.6 -0.3
v -0.1 1.6 -0.4
v -0.1 1.7 0.1
v -0.1 1.7 0
v -0.1 1.7 -0.1
v -0.1 1.7 -0.2
v 0.1 0.4 0.4
v 0.1 0.4 0.3
v 0.1 0.5 0.4
v 0.1 0.5 0.3
v 0.1 0.7 0.4
v 0.1 0.7 0.3
v 0.1 0.9 0.4
v 0.1 0.9 0.3
v 0.1 1 0.4
v 0.1 1 0.3
v 0.1 1.2 0.3
v 0.1 1.2 0.2
v 0.1 1.3 0.3
v 0.1 1.3 0.2
v 0.1 1.4 0.3
v 0.1 1.4 0.2
v 0.1 1.5 0.4
v 0.1 1.5 0.3
v 0.1 1.6 0.4
v 0.1 1.6 0.3
v 0.1 1.6 0.2
v 0.1 1.7 0.3
v 0.1 1.7 0.2
v 0.1 1.7 0.1
v 0.1 1.8 0.2
v 0.1 1.8 0.1
v 0.2 0.3 0.3
v 0.2 0.3 0.2
v 0.2 0.4 0.3
v 0.2 0.4 0.2
v 0.2 0.4 -0.4
v 0.2 0.4 -0.5
v 0.2 0.5 -0.4
v 0.2 0.5 -0.5
v 0.2 0.6 -0.4
v 0.2 0.6 -0.5
v 0.2 0.8 0.3
v 0.2 0.8 0.2
v 0.2 0.8 -0.2
v 0.2 0.8 -0.3
v 0.2 0.9 0.3
v 0.2 0.9 0.2
v 0.2 0.9 -0.2
v 0.2 0.9 -0.3
v 0.2 1 0.5
v 0.2 1 0.3
v 0.2 1 0.2
v 0.2 1.1 0.5
v 0.2 1.1 0.3
v 0.2 1.1 0.2
v 0.2 1.1 -0.5
v 0.2 1.1 -0.6
v 0.2 1.2 0.5
v 0.2 1.2 0.3
v 0.2 1.2 0.2
v 0.2 1.2 0.1
v 0.2 1.2 -0.5
v 0.2 1.2 -0.6
v 0.2 1.3 0.1
v 0.2 1.4 0.5
v 0.2 1.4 0.4
v 0.2 1.4 0.2
v 0.2 1.4 0.1
v 0.2 1.5 0.5
v 0.2 1.5 0.4
v 0.2 1.5 0.3
v 0.2 1.5 0.2
v 0.2 1.6 0.3
v 0.2 1.6 0.2
v 0.2 1.6 0.1
v 0.2 1.7 0.2
v 0.2 1.7 0.1
v 0.2 1.7 0
v 0.2 1.8 0.1
v 0.2 1.8 0
v 0.2 1.8 -0.1
v 0.2 1.9 0.1
v 0.2 1.9 -0.1
v 0.3 0.3 0.2
v 0.3 0.3 0.1
v 0.3 0.3 -0.1
v 0.3 0.4 0.3
v 0.3 0.4 0.2
v 0.3 0.4 0.1
v 0.3 0.4 0
v 0.3 0.4 -0.1
v 0.3 0.5 0.3
v 0.3 0.5 0.2
v 0.3 0.6 0.2
v 0.3 0.6 -0.1
v 0.3 0.6 -0.2
v 0.3 0.7 0.3
v 0.3 0.7 0.2
v 0.3 0.7 -0.1
v 0.3 0.7 -0.2
v 0.3 0.7 -0.3
v 0.3 0.7 -0.4
v 0.3 0.8 0.3
v 0.3 0.8 0.2
v 0.3 0.8 0.1
v 0.3 0.8 0
v 0.3 0.8 -0.1
v 0.3 0.8 -0.2
v 0.3 0.8 -0.3
v 0.3 0.8 -0.4
v 0.3 0.9 0.2
v 0.3 0.9 0
v 0.3 0.9 -0.1
v 0.3 0.9 -0.2
v 0.3 1 0.3
v 0.3 1 0.2
v 0.3 1 0
v 0.3 1 -0.1
v 0.3 1.1 0.3
v 0.3 1.1 0.2
v 0.3 1.1 -0.1
v 0.3 1.2 0.2
v 0.3 1.2 0.1
v 0.3 1.2 0
v 0.3 1.2 -0.1
v 0.3 1.2 -0.6
v 0.3 1.2 -0.7
v 0.3 1.3 0.1
v 0.3 1.3 0
v 0.3 1.3 -0.1
v 0.3 1.3 -0.6
v 0.3 1.3 -0.7
v 0.3 1.4 0.4
v 0.3 1.4 0.2
v 0.3 1.4 0.1
v 0.3 1.4 -0.1
v 0.3 1.4 -0.5
v 0.3 1.4 -0.6
v 0.3 1.5 0.4
v 0.3 1.5 0.2
v 0.3 1.5 0
v 0.3 1.5 -0.4
v 0.3 1.5 -0.5
v 0.3 1.5 -0.6
v 0.3 1.6 0.2
v 0.3 1.6 0.1
v 0.3 1.6 0
v 0.3 1.6 -0.3
v 0.3 1.6 -0.4
v 0.3 1.6 -0.5
v 0.3 1.7 0.1
v 0.3 1.7 0
v 0.3 1.7 -0.1
v 0.3 1.7 -0.2
v 0.3 1.7 -0.3
v 0.3 1.7 -0.4
v 0.3 1.8 0
v 0.3 1.8 -0.1
v 0.3 1.8 -0.2
v 0.3 1.8 -0.3
v 0.4 0 -0.1
v 0.4 0 -0.2
v 0.4 0.1 0.2
v 0.4 0.1 -0.1
v 0.4 0.1 -0.2
v 0.4 0.2 0.2
v 0.4 0.2 0.1
v 0.4 0.3 0.2
v 0.4 0.3 0.1
v 0.4 0.3 -0.1
v 0.4 0.3 -0.2
v 0.4 0.3 -0.3
v 0.4 0.3 -0.4
v 0.4 0.4 0.2
v 0.4 0.4 0.1
v 0.4 0.4 0
v 0.4 0.4 -0.1
v 0.4 0.4 -0.2
v 0.4 0.4 -0.3
v 0.4 0.4 -0.4
v 0.4 0.6 0.2
v 0.4 0.6 0.1
v 0.4 0.6 0
v 0.4 0.6 -0.1
v 0.4 0.7 0.2
v 0.4 0.7 0.1
v 0.4 0.7 -0.1
v 0.4 0.7 -0.2
v 0.4 0.7 -0.3
v 0.4 0.8 0.2
v 0.4 0.8 0.1
v 0.4 0.8 0
v 0.4 0.8 -0.1
v 0.4 0.8 -0.2
v 0.4 0.8 -0.3
v 0.4 0.9 -0.1
v 0.4 0.9 -0.2
v 0.4 0.9 -0.3
v 0.4 0.9 -0.4
v 0.4 1 0.2
v 0.4 1 -0.1
v 0.4 1 -0.2
v 0.4 1 -0.3
v 0.4 1 -0.4
v 0.4 1 -0.5
v 0.4 1.1 0.2
v 0.4 1.1 -0.1
v 0.4 1.1 -0.2
v 0.4 1.1 -0.3
v 0.4 1.1 -0.4
v 0.4 1.1 -0.5
v 0.4 1.2 -0.1
v 0.4 1.2 -0.3
v 0.4 1.2 -0.4
v 0.4 1.2 -0.5
v 0.4 1.2 -0.6
v 0.4 1.3 -0.1
v 0.4 1.3 -0.3
v 0.4 1.3 -0.4
v 0.4 1.3 -0.5
v 0.4 1.3 -0.6
v 0.4 1.3 -0.7
v 0.4 1.4 0.2
v 0.4 1.4 -0.1
v 0.4 1.4 -0.2
v 0.4 1.4 -0.6
v 0.4 1.4 -0.7
v 0.4 1.5 0.2
v 0.4 1.5 0
v 0.4 1.5 -0.2
v 0.4 1.6 0
v 0.4 1.6 -0.1
v 0.4 1.6 -0.2
v 0.4 1.7 0
v 0.4 1.7 -0.1
v 0.4 1.7 -0.2
v 0.4 1.8 -0.1
v 0.4 1.8 -0.2
v 0.5 0 0.3
v 0.5 0 -0.1
v 0.5 0.1 0.3
v 0.5 0.1 0.2
v 0.5 0.1 -0.1
v 0.5 0.2 0.3
v 0.5 0.2 0.2
v 0.5 0.3 -0.2
v 0.5 0.3 -0.3
v 0.5 0.4 -0.1
v 0.5 0.4 -0.2
v 0.5 0.4 -0.3
v 0.5 0.4 -0.4
v 0.5 0.5 -0.2
v 0.5 0.5 -0.3
v 0.5 0.6 -0.1
v 0.5 0.6 -0.2
v 0.5 0.6 -0.3
v 0.5 0.6 -0.4
v 0.5 0.7 -0.1
v 0.5 0.7 -0.2
v 0.5 0.7 -0.3
v 0.5 0.7 -0.4
v 0.5 1 -0.2
v 0.5 1 -0.3
v 0.5 1 -0.4
v 0.5 1.1 -0.2
v 0.5 1.1 -0.3
v 0.5 1.1 -0.4
v 0.5 1.2 -0.3
v 0.5 1.2 -0.4
v 0.5 1.3 -0.1
v 0.5 1.3 -0.3
v 0.5 1.3 -0.4
v 0.5 1.3 -0.5
v 0.5 1.3 -0.6
v 0.5 1.4 -0.1
v 0.5 1.4 -0.2
v 0.5 1.4 -0.3
v 0.5 1.4 -0.4
v 0.5 1.4 -0.5
v 0.5 1.4 -0.6
v 0.5 1.5 -0.3
v 0.5 1.6 -0.2
v 0.5 1.6 -0.3
v 0.5 1.7 -0.2
v 0.5 1.7 -0.3
v 0.6 0.4 -0.2
v 0.6 0.4 -0.3
v 0.6 0.5 -0.2
v 0.6 0.5 -0.3
v 0.6 0.6 -0.2
v 0.6 0.6 -0.3
v 0.6 1.1 -0.4
v 0.6 1.1 -0.5
v 0.6 1.1 -0.6
v 0.6 1.3 -0.4
v 0.6 1.3 -0.5
v 0.6 1.3 -0.6
v 0.6 1.4 -0.3
v 0.6 1.4 -0.4
v 0.6 1.4 -0.5
v 0.6 1.5 -0.3
v 0.6 1.5 -0.4
v 0.6 1.5 -0.5
v 0.6 1.6 -0.3
v 0.6 1.6 -0.4
v -0.2 1 0.5
v -0.2 1.1 0.5
v -0.2 1.2 0.5
v -0.2 1.4 0.5
v -0.2 1.5 0.5
v 0.2 1 0.5
v 0.2 1.1 0.5
v 0.2 1.2 0.5
v 0.2 1.4 0.5
v 0.2 1.5 0.5
v -0.3 1.4 0.4
v -0.3 1.5 0.4
v -0.2 1.4 0.4
v -0.2 1.5 0.4
v -0.1 0.4 0.4
v -0.1 0.5 0.4
v -0.1 0.7 0.4
v -0.1 0.9 0.4
v -0.1 1 0.4
v -0.1 1.5 0.4
v -0.1 1.6 0.4
v 0.1 0.4 0.4
v 0.1 0.5 0.4
v 0.1 0.7 0.4
v 0.1 0.9 0.4
v 0.1 1 0.4
v 0.1 1.5 0.4
v 0.1 1.6 0.4
v 0.2 1.4 0.4
v 0.2 1.5 0.4
v 0.3 1.4 0.4
v 0.3 1.5 0.4
v -0.5 0 0.3
v -0.5 0.1 0.3
v -0.5 0.2 0.3
v -0.4 0.1 0.3
v -0.4 0.2 0.3
v -0.3 0.4 0.3
v -0.3 0.5 0.3
v -0.3 0.7 0.3
v -0.3 0.8 0.3
v -0.3 1 0.3
v -0.3 1.1 0.3
v -0.2 0.1 0.3
v -0.2 0.2 0.3
v -0.2 0.3 0.3
v -0.2 0.4 0.3
v -0.2 0.5 0.3
v -0.2 0.8 0.3
v -0.2 0.9 0.3
v -0.2 1 0.3
v -0.2 1.1 0.3
v -0.2 1.5 0.3
v -0.2 1.6 0.3
v -0.1 0 0.3
v -0.1 0.1 0.3
v -0.1 0.3 0.3
v -0.1 0.4 0.3
v -0.1 0.5 0.3
v -0.1 0.7 0.3
v -0.1 0.8 0.3
v -0.1 0.9 0.3
v -0.1 1 0.3
v -0.1 1.2 0.3
v -0.1 1.3 0.3
v -0.1 1.4 0.3
v -0.1 1.5 0.3
v -0.1 1.6 0.3
v -0.1 1.7 0.3
v 0.1 0 0.3
v 0.1 0.1 0.3
v 0.1 0.3 0.3
v 0.1 0.4 0.3
v 0.1 0.5 0.3
v 0.1 0.7 0.3
v 0.1 0.8 0.3
v 0.1 0.9 0.3
v 0.1 1 0.3
v 0.1 1.2 0.3
v 0.1 1.3 0.3
v 0.1 1.4 0.3
v 0.1 1.5 0.3
v 0.1 1.6 0.3
v 0.1 1.7 0.3
v 0.2 0.1 0.3
v 0.2 0.2 0.3
v 0.2 0.3 0.3
v 0.2 0.4 0.3
v 0.2 0.8 0.3
v 0.2 0.9 0.3
v 0.2 1 0.3
v 0.2 1.1 0.3
v 0.2 1.5 0.3
v 0.2 1.6 0.3
v 0.3 0.4 0.3
v 0.3 0.5 0.3
v 0.3 0.7 0.3
v 0.3 0.8 0.3
v 0.3 1 0.3
v 0.3 1.1 0.3
v 0.4 0.1 0.3
v 0.4 0.2 0.3
v 0.5 0 0.3
v 0.5 0.1 0.3
v 0.5 0.2 0.3
v -0.4 0.2 0.2
v -0.4 0.3 0.2
v -0.4 0.4 0.2
v -0.4 0.7 0.2
v -0.4 0.8 0.2
v -0.4 1 0.2
v -0.4 1.1 0.2
v -0.4 1.4 0.2
v -0.4 1.5 0.2
v -0.3 0.3 0.2
v -0.3 0.4 0.2
v -0.3 0.5 0.2
v -0.3 0.7 0.2
v -0.3 0.8 0.2
v -0.3 0.9 0.2
v -0.3 1 0.2
v -0.3 1.1 0.2
v -0.3 1.2 0.2
v -0.3 1.4 0.2
v -0.3 1.5 0.2
v -0.3 1.6 0.2
v -0.2 0.1 0.2
v -0.2 0.2 0.2
v -0.2 0.3 0.2
v -0.2 0.4 0.2
v -0.2 0.8 0.2
v -0.2 0.9 0.2
v -0.2 1 0.2
v -0.2 1.1 0.2
v -0.2 1.2 0.2
v -0.2 1.4 0.2
v -0.2 1.5 0.2
v -0.2 1.6 0.2
v -0.2 1.7 0.2
v -0.1 0 0.2
v -0.1 0.1 0.2
v -0.1 0.3 0.2
v -0.1 0.7 0.2
v -0.1 0.8 0.2
v -0.1 1.2 0.2
v -0.1 1.3 0.2
v -0.1 1.4 0.2
v -0.1 1.6 0.2
v -0.1 1.7 0.2
v -0.1 1.8 0.2
v -5.96046e-08 0.7 0.2
v -5.96046e-08 0.8 0.2
v 0.1 0 0.2
v 0.1 0.1 0.2
v 0.1 0.3 0.2
v 0.1 0.7 0.2
v 0.1 0.8 0.2
v 0.1 1.2 0.2
v 0.1 1.3 0.2
v 0.1 1.4 0.2
v 0.1 1.6 0.2
v 0.1 1.7 0.2
v 0.1 1.8 0.2
v 0.2 0.1 0.2
v 0.2 0.2 0.2
v 0.2 0.3 0.2
v 0.2 0.4 0.2
v 0.2 0.8 0.2
v 0.2 0.9 0.2
v 0.2 1 0.2
v 0.2 1.1 0.2
v 0.2 1.2 0.2
v 0.2 1.4 0.2
v 0.2 1.5 0.2
v 0.2 1.6 0.2
v 0.2 1.7 0.2
v 0.3 0.3 0.2
v 0.3 0.4 0.2
v 0.3 0.5 0.2
v 0.3 0.6 0.2
v 0.3 0.7 0.2
v 0.3 0.8 0.2
v 0.3 0.9 0.2
v 0.3 1 0.2
v 0.3 1.1 0.2
v 0.3 1.2 0.2
v 0.3 1.4 0.2
v 0.3 1.5 0.2
v 0.3 1.6 0.2
v 0.4 0.2 0.2
v 0.4 0.3 0.2
v 0.4 0.4 0.2
v 0.4 0.6 0.2
v 0.4 0.7 0.2
v 0.4 0.8 0.2
v 0.4 1 0.2
v 0.4 1.1 0.2
v 0.4 1.4 0.2
v 0.4 1.5 0.2
v -0.3 1.2 0.1
v -0.3 1.3 0.1
v -0.3 1.4 0.1
v -0.3 1.6 0.1
v -0.3 1.7 0.1
v -0.2 1.2 0.1
v -0.2 1.3 0.1
v -0.2 1.4 0.1
v -0.2 1.6 0.1
v -0.2 1.7 0.1
v -0.2 1.8 0.1
v -0.2 1.9 0.1
v -0.1 1.7 0.1
v -0.1 1.8 0.1
v -0.1 1.9 0.1
v 0.1 1.7 0.1
v 0.1 1.8 0.1
v 0.2 1.2 0.1
v 0.2 1.3 0.1
v 0.2 1.4 0.1
v 0.2 1.6 0.1
v 0.2 1.7 0.1
v 0.2 1.8 0.1
v 0.2 1.9 0.1
v 0.3 1.2 0.1
v 0.3 1.3 0.1
v 0.3 1.4 0.1
v 0.3 1.6 0.1
v 0.3 1.7 0.1
v -0.4 1.5 0
v -0.4 1.6 0
v -0.4 1.7 0
v -0.3 1.5 0
v -0.3 1.6 0
v -0.3 1.7 0
v -0.3 1.8 0
v -0.2 0.4 0
v -0.2 0.6 0
v -0.2 1.7 0
v -0.2 1.8 0
v 0.2 0.4 0
v 0.2 0.6 0
v 0.2 1.7 0
v 0.2 1.8 0
v 0.3 1.5 0
v 0.3 1.6 0
v 0.3 1.7 0
v 0.3 1.8 0
v 0.4 1.5 0
v 0.4 1.6 0
v 0.4 1.7 0
v -0.5 0.4 -0.1
v -0.5 0.6 -0.1
v -0.5 0.7 -0.1
v -0.5 1.3 -0.1
v -0.5 1.4 -0.1
v -0.4 0.3 -0.1
v -0.4 0.4 -0.1
v -0.4 0.6 -0.1
v -0.4 0.7 -0.1
v -0.4 0.9 -0.1
v -0.4 1 -0.1
v -0.4 1.1 -0.1
v -0.4 1.2 -0.1
v -0.4 1.3 -0.1
v -0.4 1.4 -0.1
v -0.4 1.7 -0.1
v -0.4 1.8 -0.1
v -0.3 0.3 -0.1
v -0.3 0.4 -0.1
v -0.3 0.9 -0.1
v -0.3 1 -0.1
v -0.3 1.1 -0.1
v -0.3 1.2 -0.1
v -0.3 1.3 -0.1
v -0.3 1.4 -0.1
v -0.3 1.7 -0.1
v -0.3 1.8 -0.1
v -0.2 1.6 -0.1
v -0.2 1.7 -0.1
v -0.1 1.6 -0.1
v -0.1 1.7 -0.1
v 0.1 1.6 -0.1
v 0.1 1.7 -0.1
v 0.2 1.6 -0.1
v 0.2 1.7 -0.1
v 0.3 0.3 -0.1
v 0.3 0.4 -0.1
v 0.3 0.9 -0.1
v 0.3 1 -0.1
v 0.3 1.1 -0.1
v 0.3 1.2 -0.1
v 0.3 1.3 -0.1
v 0.3 1.4 -0.1
v 0.3 1.7 -0.1
v 0.3 1.8 -0.1
v 0.4 0.3 -0.1
v 0.4 0.4 -0.1
v 0.4 0.6 -0.1
v 0.4 0.7 -0.1
v 0.4 0.9 -0.1
v 0.4 1 -0.1
v 0.4 1.1 -0.1
v 0.4 1.2 -0.1
v 0.4 1.3 -0.1
v 0.4 1.4 -0.1
v 0.4 1.7 -0.1
v 0.4 1.8 -0.1
v 0.5 0.4 -0.1
v 0.5 0.6 -0.1
v 0.5 0.7 -0.1
v 0.5 1.3 -0.1
v 0.5 1.4 -0.1
v -0.6 0.4 -0.2
v -0.6 0.5 -0.2
v -0.6 0.6 -0.2
v -0.5 0.3 -0.2
v -0.5 0.4 -0.2
v -0.5 0.5 -0.2
v -0.5 0.6 -0.2
v -0.5 1 -0.2
v -0.5 1.1 -0.2
v -0.5 1.4 -0.2
v -0.5 1.5 -0.2
v -0.5 1.6 -0.2
v -0.5 1.7 -0.2
v -0.4 0.3 -0.2
v -0.4 0.4 -0.2
v -0.4 0.6 -0.2
v -0.4 0.7 -0.2
v -0.4 1 -0.2
v -0.4 1.1 -0.2
v -0.4 1.4 -0.2
v -0.4 1.5 -0.2
v -0.4 1.6 -0.2
v -0.4 1.7 -0.2
v -0.3 0.6 -0.2
v -0.3 0.7 -0.2
v -0.3 1.5 -0.2
v -0.3 1.6 -0.2
v -0.2 0.8 -0.2
v -0.2 0.9 -0.2
v -0.2 1.5 -0.2
v -0.2 1.6 -0.2
v -0.1 1.6 -0.2
v -0.1 1.7 -0.2
v 0.1 1.6 -0.2
v 0.1 1.7 -0.2
v 0.2 0.8 -0.2
v 0.2 0.9 -0.2
v 0.2 1.5 -0.2
v 0.2 1.6 -0.2
v 0.3 0.6 -0.2
v 0.3 0.7 -0.2
v 0.3 1.5 -0.2
v 0.3 1.6 -0.2
v 0.4 0.3 -0.2
v 0.4 0.4 -0.2
v 0.4 0.6 -0.2
v 0.4 0.7 -0.2
v 0.4 1 -0.2
v 0.4 1.1 -0.2
v 0.4 1.4 -0.2
v 0.4 1.5 -0.2
v 0.4 1.6 -0.2
v 0.4 1.7 -0.2
v 0.5 0.3 -0.2
v 0.5 0.4 -0.2
v 0.5 0.5 -0.2
v 0.5 0.6 -0.2
v 0.5 1 -0.2
v 0.5 1.1 -0.2
v 0.5 1.4 -0.2
v 0.5 1.6 -0.2
v 0.5 1.7 -0.2
v 0.6 0.4 -0.2
v 0.6 0.5 -0.2
v 0.6 0.6 -0.2
v -0.6 1.4 -0.3
v -0.6 1.6 -0.3
v -0.5 1.2 -0.3
v -0.5 1.3 -0.3
v -0.5 1.4 -0.3
v -0.5 1.5 -0.3
v -0.5 1.6 -0.3
v -0.4 1.2 -0.3
v -0.4 1.3 -0.3
v -0.3 0.6 -0.3
v -0.3 0.7 -0.3
v -0.3 0.9 -0.3
v -0.3 1.1 -0.3
v -0.2 0.9 -0.3
v -0.2 1.5 -0.3
v -0.2 1.6 -0.3
v -0.1 0.7 -0.3
v -0.1 1.5 -0.3
v -0.1 1.6 -0.3
v 0.1 0.7 -0.3
v 0.1 1.5 -0.3
v 0.1 1.6 -0.3
v 0.2 0.9 -0.3
v 0.2 1.5 -0.3
v 0.2 1.6 -0.3
v 0.3 0.6 -0.3
v 0.3 0.7 -0.3
v 0.3 0.9 -0.3
v 0.3 1.1 -0.3
v 0.4 1.2 -0.3
v 0.4 1.3 -0.3
v 0.5 1.2 -0.3
v 0.5 1.3 -0.3
v 0.5 1.4 -0.3
v 0.5 1.5 -0.3
v 0.5 1.6 -0.3
v 0.6 1.4 -0.3
v 0.6 1.5 -0.3
v 0.6 1.6 -0.3
v -0.6 1.1 -0.4
v -0.6 1.3 -0.4
v -0.5 1.1 -0.4
v -0.5 1.2 -0.4
v -0.5 1.3 -0.4
v -0.4 1.1 -0.4
v -0.4 1.2 -0.4
v -0.3 1.1 -0.4
v -0.3 1.2 -0.4
v -0.3 1.3 -0.4
v -0.3 1.4 -0.4
v -0.3 1.5 -0.4
v -0.2 1.1 -0.4
v -0.2 1.2 -0.4
v -0.2 1.4 -0.4
v -0.2 1.5 -0.4
v -0.1 1.2 -0.4
v -0.1 1.3 -0.4
v -0.1 1.5 -0.4
v -0.1 1.6 -0.4
v 0.1 1.2 -0.4
v 0.1 1.3 -0.4
v 0.1 1.5 -0.4
v 0.1 1.6 -0.4
v 0.2 1.1 -0.4
v 0.2 1.2 -0.4
v 0.2 1.4 -0.4
v 0.2 1.5 -0.4
v 0.3 1.1 -0.4
v 0.3 1.2 -0.4
v 0.3 1.3 -0.4
v 0.3 1.4 -0.4
v 0.3 1.5 -0.4
v 0.4 1.1 -0.4
v 0.4 1.2 -0.4
v 0.5 1.1 -0.4
v 0.5 1.2 -0.4
v 0.5 1.3 -0.4
v 0.6 1.1 -0.4
v 0.6 1.3 -0.4
v -0.4 1.3 -0.5
v -0.4 1.4 -0.5
v -0.2 1.4 -0.5
v -0.2 1.5 -0.5
v -0.1 1.2 -0.5
v -0.1 1.3 -0.5
v -0.1 1.5 -0.5
v 0.1 1.2 -0.5
v 0.1 1.3 -0.5
v 0.2 1.4 -0.5
v 0.2 1.5 -0.5
v 0.4 1.3 -0.5
v 0.4 1.4 -0.5
v -0.5 0.1 0.2
v -0.5 0.2 0.2
v -0.4 0.1 0.2
v -0.4 0.2 0.2
v -0.2 0.4 0.2
v -0.2 0.5 0.2
v -0.2 0.6 0.2
v -0.2 0.8 0.2
v -0.2 0.9 0.2
v -0.2 1 0.2
v -0.1 0.4 0.2
v -0.1 0.5 0.2
v -0.1 0.6 0.2
v -0.1 0.8 0.2
v -0.1 1 0.2
v -0.1 1.1 0.2
v -0.1 1.2 0.2
v -0.1 1.3 0.2
v -0.1 1.4 0.2
v -5.96046e-08 0.8 0.2
v 0.1 0.4 0.2
v 0.1 0.5 0.2
v 0.1 0.6 0.2
v 0.1 0.8 0.2
v 0.1 1 0.2
v 0.1 1.1 0.2
v 0.1 1.2 0.2
v 0.1 1.3 0.2
v 0.1 1.4 0.2
v 0.2 0.4 0.2
v 0.2 0.5 0.2
v 0.2 0.6 0.2
v 0.2 0.8 0.2
v 0.2 0.9 0.2
v 0.2 1 0.2
v 0.4 0.1 0.2
v 0.4 0.2 0.2
v 0.5 0.1 0.2
v 0.5 0.2 0.2
v -0.3 1 0.1
v -0.3 1.1 0.1
v -0.3 1.4 0.1
v -0.3 1.5 0.1
v -0.2 1 0.1
v -0.2 1.1 0.1
v -0.2 1.2 0.1
v -0.2 1.3 0.1
v -0.2 1.4 0.1
v -0.2 1.5 0.1
v -0.2 1.6 0.1
v -0.1 1 0.1
v -0.1 1.1 0.1
v -0.1 1.2 0.1
v -0.1 1.4 0.1
v -0.1 1.6 0.1
v -0.1 1.7 0.1
v 0.1 1 0.1
v 0.1 1.1 0.1
v 0.1 1.2 0.1
v 0.1 1.4 0.1
v 0.1 1.6 0.1
v 0.1 1.7 0.1
v 0.2 1 0.1
v 0.2 1.1 0.1
v 0.2 1.2 0.1
v 0.2 1.3 0.1
v 0.2 1.4 0.1
v 0.2 1.5 0.1
v 0.2 1.6 0.1
v 0.3 1 0.1
v 0.3 1.1 0.1
v 0.3 1.4 0.1
v 0.3 1.5 0.1
v -0.3 1.5 0
v -0.3 1.6 0
v -0.2 1.5 0
v -0.2 1.6 0
v -0.2 1.7 0
v -0.1 1.6 0
v -0.1 1.7 0
v 0.1 1.6 0
v 0.1 1.7 0
v 0.2 1.5 0
v 0.2 1.6 0
v 0.2 1.7 0
v 0.3 1.5 0
v 0.3 1.6 0
v -0.5 0 -0.1
v -0.5 0.1 -0.1
v -0.4 0 -0.1
v -0.4 0.1 -0.1
v -0.4 0.6 -0.1
v -0.4 0.7 -0.1
v -0.3 0.6 -0.1
v -0.3 0.7 -0.1
v -0.3 0.9 -0.1
v -0.3 1 -0.1
v -0.3 1.1 -0.1
v -0.3 1.2 -0.1
v -0.3 1.3 -0.1
v -0.3 1.4 -0.1
v -0.2 0.9 -0.1
v -0.2 1 -0.1
v -0.2 1.1 -0.1
v -0.2 1.2 -0.1
v -0.2 1.3 -0.1
v -0.2 1.4 -0.1
v -0.2 1.8 -0.1
v -0.2 1.9 -0.1
v -0.1 1.8 -0.1
v -0.1 1.9 -0.1
v 0.2 0.9 -0.1
v 0.2 1 -0.1
v 0.2 1.1 -0.1
v 0.2 1.2 -0.1
v 0.2 1.3 -0.1
v 0.2 1.4 -0.1
v 0.2 1.8 -0.1
v 0.2 1.9 -0.1
v 0.3 0.6 -0.1
v 0.3 0.7 -0.1
v 0.3 0.9 -0.1
v 0.3 1 -0.1
v 0.3 1.1 -0.1
v 0.3 1.2 -0.1
v 0.3 1.3 -0.1
v 0.3 1.4 -0.1
v 0.4 0 -0.1
v 0.4 0.1 -0.1
v 0.4 0.6 -0.1
v 0.4 0.7 -0.1
v 0.5 0 -0.1
v 0.5 0.1 -0.1
v -0.4 0 -0.2
v -0.4 0.1 -0.2
v -0.4 0.3 -0.2
v -0.4 1.3 -0.2
v -0.4 1.4 -0.2
v -0.4 1.7 -0.2
v -0.4 1.8 -0.2
v -0.3 0.3 -0.2
v -0.3 0.6 -0.2
v -0.3 0.7 -0.2
v -0.3 0.8 -0.2
v -0.3 0.9 -0.2
v -0.3 1.2 -0.2
v -0.3 1.3 -0.2
v -0.3 1.4 -0.2
v -0.3 1.7 -0.2
v -0.3 1.8 -0.2
v -0.2 0.3 -0.2
v -0.2 0.8 -0.2
v -0.2 0.9 -0.2
v -0.2 1.2 -0.2
v -0.2 1.3 -0.2
v -0.1 0.1 -0.2
v -0.1 0.3 -0.2
v -0.1 0.7 -0.2
v 0.1 0.1 -0.2
v 0.1 0.3 -0.2
v 0.1 0.7 -0.2
v 0.2 0.3 -0.2
v 0.2 0.8 -0.2
v 0.2 0.9 -0.2
v 0.2 1.2 -0.2
v 0.2 1.3 -0.2
v 0.3 0.3 -0.2
v 0.3 0.6 -0.2
v 0.3 0.7 -0.2
v 0.3 0.8 -0.2
v 0.3 0.9 -0.2
v 0.3 1.2 -0.2
v 0.3 1.3 -0.2
v 0.3 1.4 -0.2
v 0.3 1.7 -0.2
v 0.3 1.8 -0.2
v 0.4 0 -0.2
v 0.4 0.1 -0.2
v 0.4 0.3 -0.2
v 0.4 1.3 -0.2
v 0.4 1.4 -0.2
v 0.4 1.7 -0.2
v 0.4 1.8 -0.2
v -0.6 0.4 -0.3
v -0.6 0.5 -0.3
v -0.6 0.6 -0.3
v -0.5 0.3 -0.3
v -0.5 0.4 -0.3
v -0.5 0.5 -0.3
v -0.5 0.6 -0.3
v -0.5 1.6 -0.3
v -0.5 1.7 -0.3
v -0.4 0.3 -0.3
v -0.4 0.4 -0.3
v -0.4 0.7 -0.3
v -0.4 0.8 -0.3
v -0.4 1.6 -0.3
v -0.4 1.7 -0.3
v -0.3 0.7 -0.3
v -0.3 0.8 -0.3
v -0.3 1.6 -0.3
v -0.3 1.7 -0.3
v -0.3 1.8 -0.3
v -0.2 0.3 -0.3
v -0.2 0.4 -0.3
v -0.2 0.8 -0.3
v -0.2 0.9 -0.3
v -0.1 0.3 -0.3
v -0.1 0.4 -0.3
v -0.1 0.7 -0.3
v -0.1 0.8 -0.3
v -0.1 1.7 -0.3
v -0.1 1.8 -0.3
v 0.1 0.3 -0.3
v 0.1 0.4 -0.3
v 0.1 0.7 -0.3
v 0.1 0.8 -0.3
v 0.2 0.3 -0.3
v 0.2 0.4 -0.3
v 0.2 0.8 -0.3
v 0.2 0.9 -0.3
v 0.3 0.7 -0.3
v 0.3 0.8 -0.3
v 0.3 1.6 -0.3
v 0.3 1.7 -0.3
v 0.3 1.8 -0.3
v 0.4 0.3 -0.3
v 0.4 0.4 -0.3
v 0.4 0.7 -0.3
v 0.4 0.8 -0.3
v 0.4 1.6 -0.3
v 0.4 1.7 -0.3
v 0.5 0.3 -0.3
v 0.5 0.4 -0.3
v 0.5 0.5 -0.3
v 0.5 0.6 -0.3
v 0.5 1.6 -0.3
v 0.5 1.7 -0.3
v 0.6 0.4 -0.3
v 0.6 0.5 -0.3
v 0.6 0.6 -0.3
v -0.6 1.5 -0.4
v -0.6 1.6 -0.4
v -0.5 0.4 -0.4
v -0.5 0.6 -0.4
v -0.5 0.7 -0.4
v -0.5 1 -0.4
v -0.5 1.1 -0.4
v -0.5 1.2 -0.4
v -0.5 1.3 -0.4
v -0.5 1.5 -0.4
v -0.5 1.6 -0.4
v -0.4 0.3 -0.4
v -0.4 0.4 -0.4
v -0.4 0.6 -0.4
v -0.4 0.7 -0.4
v -0.4 0.9 -0.4
v -0.4 1 -0.4
v -0.4 1.1 -0.4
v -0.4 1.2 -0.4
v -0.4 1.3 -0.4
v -0.4 1.5 -0.4
v -0.3 0.3 -0.4
v -0.3 0.4 -0.4
v -0.3 0.6 -0.4
v -0.3 0.7 -0.4
v -0.3 0.8 -0.4
v -0.3 1.5 -0.4
v -0.3 1.6 -0.4
v -0.3 1.7 -0.4
v -0.2 0.3 -0.4
v -0.2 0.4 -0.4
v -0.2 0.6 -0.4
v -0.1 0.7 -0.4
v -0.1 0.8 -0.4
v -0.1 1.6 -0.4
v -0.1 1.7 -0.4
v -5.96046e-08 0.6 -0.4
v 0.1 0.7 -0.4
v 0.1 0.8 -0.4
v 0.2 0.3 -0.4
v 0.2 0.4 -0.4
v 0.2 0.5 -0.4
v 0.2 0.6 -0.4
v 0.3 0.3 -0.4
v 0.3 0.4 -0.4
v 0.3 0.7 -0.4
v 0.3 0.8 -0.4
v 0.3 1.5 -0.4
v 0.3 1.6 -0.4
v 0.3 1.7 -0.4
v 0.4 0.3 -0.4
v 0.4 0.4 -0.4
v 0.4 0.6 -0.4
v 0.4 0.7 -0.4
v 0.4 0.9 -0.4
v 0.4 1 -0.4
v 0.4 1.1 -0.4
v 0.4 1.2 -0.4
v 0.4 1.3 -0.4
v 0.5 0.4 -0.4
v 0.5 0.6 -0.4
v 0.5 0.7 -0.4
v 0.5 1 -0.4
v 0.5 1.1 -0.4
v 0.5 1.2 -0.4
v 0.5 1.3 -0.4
v 0.5 1.5 -0.4
v 0.5 1.6 -0.4
v 0.6 1.5 -0.4
v 0.6 1.6 -0.4
v -0.6 1.4 -0.5
v -0.6 1.5 -0.5
v -0.5 1.1 -0.5
v -0.5 1.2 -0.5
v -0.5 1.4 -0.5
v -0.5 1.5 -0.5
v -0.4 1 -0.5
v -0.4 1.1 -0.5
v -0.4 1.2 -0.5
v -0.4 1.4 -0.5
v -0.4 1.5 -0.5
v -0.3 1.4 -0.5
v -0.3 1.5 -0.5
v -0.3 1.6 -0.5
v -0.2 0.4 -0.5
v -0.2 0.6 -0.5
v -0.2 1.1 -0.5
v -0.2 1.2 -0.5
v -0.1 1.5 -0.5
v -0.1 1.6 -0.5
v -5.96046e-08 0.5 -0.5
v -5.96046e-08 0.6 -0.5
v 0.2 0.4 -0.5
v 0.2 0.5 -0.5
v 0.2 0.6 -0.5
v 0.2 1.1 -0.5
v 0.2 1.2 -0.5
v 0.3 1.4 -0.5
v 0.3 1.5 -0.5
v 0.3 1.6 -0.5
v 0.4 1 -0.5
v 0.4 1.1 -0.5
v 0.4 1.2 -0.5
v 0.4 1.4 -0.5
v 0.5 1.1 -0.5
v 0.5 1.2 -0.5
v 0.5 1.4 -0.5
v 0.5 1.5 -0.5
v 0.6 1.4 -0.5
v 0.6 1.5 -0.5
v -0.6 1.1 -0.6
v -0.6 1.3 -0.6
v -0.5 1.1 -0.6
v -0.5 1.3 -0.6
v -0.5 1.4 -0.6
v -0.4 1.2 -0.6
v -0.4 1.3 -0.6
v -0.4 1.4 -0.6
v -0.3 1.2 -0.6
v -0.3 1.3 -0.6
v -0.3 1.4 -0.6
v -0.3 1.5 -0.6
v -0.2 1.1 -0.6
v -0.2 1.2 -0.6
v 0.2 1.1 -0.6
v 0.2 1.2 -0.6
v 0.3 1.2 -0.6
v 0.3 1.3 -0.6
v 0.3 1.4 -0.6
v 0.3 1.5 -0.6
v 0.4 1.2 -0.6
v 0.4 1.3 -0.6
v 0.4 1.4 -0.6
v 0.5 1.1 -0.6
v 0.5 1.3 -0.6
v 0.5 1.4 -0.6
v 0.6 1.1 -0.6
v 0.6 1.3 -0.6
v -0.4 1.3 -0.7
v -0.4 1.4 -0.7
v -0.3 1.2 -0.7
v -0.3 1.3 -0.7
v 0.3 1.2 -0.7
v 0.3 1.3 -0.7
v 0.4 1.3 -0.7
v 0.4 1.4 -0.7
v -0.5 0 0.3
v -0.1 0 0.3
v 0.1 0 0.3
v 0.5 0 0.3
v -0.1 0 0.2
v 0.1 0 0.2
v -0.5 0 -0.1
v -0.4 0 -0.1
v 0.4 0 -0.1
v 0.5 0 -0.1
v -0.4 0 -0.2
v 0.4 0 -0.2
v -0.2 0.3 0.3
v -0.1 0.3 0.3
v 0.1 0.3 0.3
v 0.2 0.3 0.3
v -0.2 0.3 0.2
v -0.1 0.3 0.2
v 0.1 0.3 0.2
v 0.2 0.3 0.2
v -0.5 0.3 -0.2
v -0.4 0.3 -0.2
v -0.3 0.3 -0.2
v -0.2 0.3 -0.2
v -0.1 0.3 -0.2
v 0.1 0.3 -0.2
v 0.2 0.3 -0.2
v 0.3 0.3 -0.2
v 0.4 0.3 -0.2
v 0.5 0.3 -0.2
v -0.5 0.3 -0.3
v -0.4 0.3 -0.3
v -0.3 0.3 -0.3
v -0.2 0.3 -0.3
v -0.1 0.3 -0.3
v 0.1 0.3 -0.3
v 0.2 0.3 -0.3
v 0.3 0.3 -0.3
v 0.4 0.3 -0.3
v 0.5 0.3 -0.3
v -0.4 0.3 -0.4
v -0.3 0.3 -0.4
v -0.2 0.3 -0.4
v 0.2 0.3 -0.4
v 0.3 0.3 -0.4
v 0.4 0.3 -0.4
v -0.1 0.4 0.4
v 0.1 0.4 0.4
v -0.3 0.4 0.3
v -0.2 0.4 0.3
v -0.1 0.4 0.3
v 0.1 0.4 0.3
v 0.2 0.4 0.3
v 0.3 0.4 0.3
v -0.4 0.4 0.2
v -0.3 0.4 0.2
v -0.2 0.4 0.2
v 0.2 0.4 0.2
v 0.3 0.4 0.2
v 0.4 0.4 0.2
v -0.3 0.4 0.1
v 0.3 0.4 0.1
v 0.4 0.4 0.1
v -0.4 0.4 0
v -0.3 0.4 0
v 0.3 0.4 0
v 0.4 0.4 0
v -0.5 0.4 -0.1
v -0.4 0.4 -0.1
v -0.3 0.4 -0.1
v 0.3 0.4 -0.1
v 0.4 0.4 -0.1
v 0.5 0.4 -0.1
v -0.6 0.4 -0.2
v -0.5 0.4 -0.2
v -0.4 0.4 -0.2
v 0.4 0.4 -0.2
v 0.5 0.4 -0.2
v 0.6 0.4 -0.2
v -0.6 0.4 -0.3
v -0.5 0.4 -0.3
v -0.4 0.4 -0.3
v -0.2 0.4 -0.3
v -0.1 0.4 -0.3
v 0.1 0.4 -0.3
v 0.2 0.4 -0.3
v 0.4 0.4 -0.3
v 0.5 0.4 -0.3
v 0.6 0.4 -0.3
v -0.5 0.4 -0.4
v -0.4 0.4 -0.4
v -0.2 0.4 -0.4
v 0.2 0.4 -0.4
v 0.4 0.4 -0.4
v 0.5 0.4 -0.4
v -0.2 0.4 -0.5
v 0.2 0.4 -0.5
v -0.2 0.6 0.2
v -0.1 0.6 0.2
v 0.1 0.6 0.2
v 0.2 0.6 0.2
v -0.2 0.6 0
v 0.2 0.6 0
v -0.4 0.7 -0.1
v -0.3 0.7 -0.1
v 0.3 0.7 -0.1
v 0.4 0.7 -0.1
v -0.4 0.7 -0.2
v -0.3 0.7 -0.2
v -0.1 0.7 -0.2
v 0.1 0.7 -0.2
v 0.3 0.7 -0.2
v 0.4 0.7 -0.2
v -0.3 0.7 -0.3
v -0.1 0.7 -0.3
v 0.1 0.7 -0.3
v 0.3 0.7 -0.3
v -0.1 0.8 0.3
v 0.1 0.8 0.3
v -0.1 0.8 0.2
v -5.96046e-08 0.8 0.2
v 0.1 0.8 0.2
v -0.1 0.9 0.4
v 0.1 0.9 0.4
v -0.1 0.9 0.3
v 0.1 0.9 0.3
v -0.4 0.9 -0.1
v -0.3 0.9 -0.1
v 0.3 0.9 -0.1
v 0.4 0.9 -0.1
v -0.4 0.9 -0.2
v -0.3 0.9 -0.2
v 0.3 0.9 -0.2
v 0.4 0.9 -0.2
v -0.4 0.9 -0.3
v -0.3 0.9 -0.3
v -0.2 0.9 -0.3
v 0.2 0.9 -0.3
v 0.3 0.9 -0.3
v 0.4 0.9 -0.3
v -0.4 0.9 -0.4
v 0.4 0.9 -0.4
v -0.2 1 0.5
v 0.2 1 0.5
v -0.1 1 0.4
v 0.1 1 0.4
v -0.3 1 0.3
v -0.2 1 0.3
v -0.1 1 0.3
v 0.1 1 0.3
v 0.2 1 0.3
v 0.3 1 0.3
v -0.4 1 0.2
v -0.3 1 0.2
v -0.2 1 0.2
v -0.1 1 0.2
v 0.1 1 0.2
v 0.2 1 0.2
v 0.3 1 0.2
v 0.4 1 0.2
v -0.2 1 0.1
v -0.1 1 0.1
v 0.1 1 0.1
v 0.2 1 0.1
v -0.3 1 0
v 0.3 1 0
v -0.4 1 -0.1
v -0.3 1 -0.1
v 0.3 1 -0.1
v 0.4 1 -0.1
v -0.5 1 -0.2
v -0.4 1 -0.2
v 0.4 1 -0.2
v 0.5 1 -0.2
v -0.5 1 -0.3
v -0.4 1 -0.3
v 0.4 1 -0.3
v 0.5 1 -0.3
v -0.5 1 -0.4
v -0.4 1 -0.4
v 0.4 1 -0.4
v 0.5 1 -0.4
v -0.4 1 -0.5
v 0.4 1 -0.5
v -0.1 1.1 0.2
v 0.1 1.1 0.2
v -0.3 1.1 0.1
v -0.2 1.1 0.1
v -0.1 1.1 0.1
v 0.1 1.1 0.1
v 0.2 1.1 0.1
v 0.3 1.1 0.1
v -0.3 1.1 -0.1
v -0.2 1.1 -0.1
v 0.2 1.1 -0.1
v 0.3 1.1 -0.1
v -0.6 1.1 -0.4
v -0.5 1.1 -0.4
v -0.4 1.1 -0.4
v 0.4 1.1 -0.4
v 0.5 1.1 -0.4
v 0.6 1.1 -0.4
v -0.6 1.1 -0.5
v -0.5 1.1 -0.5
v -0.4 1.1 -0.5
v -0.2 1.1 -0.5
v 0.2 1.1 -0.5
v 0.4 1.1 -0.5
v 0.5 1.1 -0.5
v 0.6 1.1 -0.5
v -0.6 1.1 -0.6
v -0.5 1.1 -0.6
v -0.2 1.1 -0.6
v 0.2 1.1 -0.6
v 0.5 1.1 -0.6
v 0.6 1.1 -0.6
v -0.3 1.2 -0.1
v -0.2 1.2 -0.1
v 0.2 1.2 -0.1
v 0.3 1.2 -0.1
v -0.3 1.2 -0.2
v -0.2 1.2 -0.2
v 0.2 1.2 -0.2
v 0.3 1.2 -0.2
v -0.5 1.2 -0.3
v -0.4 1.2 -0.3
v 0.4 1.2 -0.3
v 0.5 1.2 -0.3
v -0.5 1.2 -0.4
v -0.4 1.2 -0.4
v 0.4 1.2 -0.4
v 0.5 1.2 -0.4
v -0.4 1.2 -0.5
v -0.2 1.2 -0.5
v 0.2 1.2 -0.5
v 0.4 1.2 -0.5
v -0.4 1.2 -0.6
v -0.3 1.2 -0.6
v -0.2 1.2 -0.6
v 0.2 1.2 -0.6
v 0.3 1.2 -0.6
v 0.4 1.2 -0.6
v -0.3 1.2 -0.7
v 0.3 1.2 -0.7
v -0.5 1.3 -0.1
v -0.4 1.3 -0.1
v 0.4 1.3 -0.1
v 0.5 1.3 -0.1
v -0.5 1.3 -0.3
v -0.4 1.3 -0.3
v 0.4 1.3 -0.3
v 0.5 1.3 -0.3
v -0.5 1.3 -0.4
v -0.4 1.3 -0.4
v 0.4 1.3 -0.4
v 0.5 1.3 -0.4
v -0.5 1.3 -0.5
v -0.4 1.3 -0.5
v 0.4 1.3 -0.5
v 0.5 1.3 -0.5
v -0.5 1.3 -0.6
v -0.4 1.3 -0.6
v -0.3 1.3 -0.6
v 0.3 1.3 -0.6
v 0.4 1.3 -0.6
v 0.5 1.3 -0.6
v -0.4 1.3 -0.7
v -0.3 1.3 -0.7
v 0.3 1.3 -0.7
v 0.4 1.3 -0.7
v -0.2 1.4 0.5
v 0.2 1.4 0.5
v -0.3 1.4 0.4
v -0.2 1.4 0.4
v 0.2 1.4 0.4
v 0.3 1.4 0.4
v -0.1 1.4 0.3
v 0.1 1.4 0.3
v -0.4 1.4 0.2
v -0.3 1.4 0.2
v -0.2 1.4 0.2
v -0.1 1.4 0.2
v 0.1 1.4 0.2
v 0.2 1.4 0.2
v 0.3 1.4 0.2
v 0.4 1.4 0.2
v -0.3 1.4 0.1
v -0.2 1.4 0.1
v -0.1 1.4 0.1
v 0.1 1.4 0.1
v 0.2 1.4 0.1
v 0.3 1.4 0.1
v -0.4 1.4 -0.1
v -0.3 1.4 -0.1
v 0.3 1.4 -0.1
v 0.4 1.4 -0.1
v -0.4 1.4 -0.2
v -0.3 1.4 -0.2
v 0.3 1.4 -0.2
v 0.4 1.4 -0.2
v -0.6 1.4 -0.3
v -0.5 1.4 -0.3
v 0.5 1.4 -0.3
v 0.6 1.4 -0.3
v -0.3 1.4 -0.4
v -0.2 1.4 -0.4
v 0.2 1.4 -0.4
v 0.3 1.4 -0.4
v 0.4 1.4 -0.4
v 0.5 1.4 -0.4
v 0.6 1.4 -0.4
v -0.6 1.4 -0.5
v -0.5 1.4 -0.5
v -0.4 1.4 -0.5
v -0.2 1.4 -0.5
v 0.2 1.4 -0.5
v 0.4 1.4 -0.5
v 0.5 1.4 -0.5
v 0.6 1.4 -0.5
v -0.3 1.5 0.1
v -0.2 1.5 0.1
v 0.2 1.5 0.1
v 0.3 1.5 0.1
v -0.3 1.5 0
v -0.2 1.5 0
v 0.2 1.5 0
v 0.3 1.5 0
v -0.3 1.5 -0.2
v -0.2 1.5 -0.2
v 0.2 1.5 -0.2
v 0.3 1.5 -0.2
v -0.2 1.5 -0.3
v -0.1 1.5 -0.3
v 0.1 1.5 -0.3
v 0.2 1.5 -0.3
v -0.3 1.5 -0.4
v -0.2 1.5 -0.4
v -0.1 1.5 -0.4
v 0.1 1.5 -0.4
v 0.2 1.5 -0.4
v 0.3 1.5 -0.4
v -0.2 1.5 -0.5
v -0.1 1.5 -0.5
v 0.2 1.5 -0.5
v -0.2 1.6 0.1
v -0.1 1.6 0.1
v 0.1 1.6 0.1
v 0.2 1.6 0.1
v -0.3 1.6 0
v -0.2 1.6 0
v -0.1 1.6 0
v 0.1 1.6 0
v 0.2 1.6 0
v 0.3 1.6 0
v -0.2 1.6 -0.1
v -0.1 1.6 -0.1
v 0.1 1.6 -0.1
v 0.2 1.6 -0.1
v -0.3 1.6 -0.2
v -0.2 1.6 -0.2
v -0.1 1.6 -0.2
v 0.1 1.6 -0.2
v 0.2 1.6 -0.2
v 0.3 1.6 -0.2
v -0.2 1.6 -0.3
v -0.1 1.6 -0.3
v 0.1 1.6 -0.3
v 0.2 1.6 -0.3
v -0.1 1.6 -0.4
v 0.1 1.6 -0.4
v -0.1 1.7 0.1
v 0.1 1.7 0.1
v -0.2 1.7 0
v -0.1 1.7 0
v 0.1 1.7 0
v 0.2 1.7 0
v -0.2 1.7 -0.1
v -0.1 1.7 -0.1
v 0.1 1.7 -0.1
v 0.2 1.7 -0.1
v -0.1 1.7 -0.2
v 0.1 1.7 -0.2
v -0.2 0.1 0.3
v -0.1 0.1 0.3
v 0.1 0.1 0.3
v 0.2 0.1 0.3
v -0.5 0.1 0.2
v -0.4 0.1 0.2
v -0.2 0.1 0.2
v -0.1 0.1 0.2
v 0.1 0.1 0.2
v 0.2 0.1 0.2
v 0.4 0.1 0.2
v 0.5 0.1 0.2
v -0.5 0.1 -0.1
v -0.4 0.1 -0.1
v 0.4 0.1 -0.1
v 0.5 0.1 -0.1
v -0.5 0.2 0.3
v -0.4 0.2 0.3
v -0.2 0.2 0.3
v 0.2 0.2 0.3
v 0.4 0.2 0.3
v 0.5 0.2 0.3
v -0.5 0.2 0.2
v -0.4 0.2 0.2
v -0.2 0.2 0.2
v 0.2 0.2 0.2
v 0.4 0.2 0.2
v 0.5 0.2 0.2
v -0.4 0.3 0.2
v -0.3 0.3 0.2
v 0.3 0.3 0.2
v 0.4 0.3 0.2
v -0.4 0.3 0.1
v -0.3 0.3 0.1
v 0.3 0.3 0.1
v 0.4 0.3 0.1
v -0.4 0.3 -0.1
v -0.3 0.3 -0.1
v 0.3 0.3 -0.1
v 0.4 0.3 -0.1
v -0.2 0.4 0.2
v -0.1 0.4 0.2
v 0.1 0.4 0.2
v 0.2 0.4 0.2
v -0.2 0.4 0.1
v -0.1 0.4 0.1
v 0.1 0.4 0.1
v 0.2 0.4 0.1
v -0.2 0.4 0
v 0.2 0.4 0
v -0.4 0.6 -0.1
v -0.3 0.6 -0.1
v 0.3 0.6 -0.1
v 0.4 0.6 -0.1
v -0.6 0.6 -0.2
v -0.5 0.6 -0.2
v -0.4 0.6 -0.2
v -0.3 0.6 -0.2
v 0.3 0.6 -0.2
v 0.4 0.6 -0.2
v 0.5 0.6 -0.2
v 0.6 0.6 -0.2
v -0.6 0.6 -0.3
v -0.5 0.6 -0.3
v -0.3 0.6 -0.3
v 0.3 0.6 -0.3
v 0.5 0.6 -0.3
v 0.6 0.6 -0.3
v -0.2 0.6 -0.4
v -5.96046e-08 0.6 -0.4
v 0.2 0.6 -0.4
v -0.2 0.6 -0.5
v -5.96046e-08 0.6 -0.5
v 0.2 0.6 -0.5
v -0.1 0.7 0.4
v 0.1 0.7 0.4
v -0.1 0.7 0.3
v 0.1 0.7 0.3
v -0.1 0.7 0.2
v -5.96046e-08 0.7 0.2
v 0.1 0.7 0.2
v -0.5 0.7 -0.1
v -0.4 0.7 -0.1
v 0.4 0.7 -0.1
v 0.5 0.7 -0.1
v -0.5 0.7 -0.2
v -0.4 0.7 -0.2
v 0.4 0.7 -0.2
v 0.5 0.7 -0.2
v -0.5 0.7 -0.3
v -0.4 0.7 -0.3
v -0.3 0.7 -0.3
v -0.1 0.7 -0.3
v 0.1 0.7 -0.3
v 0.3 0.7 -0.3
v 0.4 0.7 -0.3
v 0.5 0.7 -0.3
v -0.5 0.7 -0.4
v -0.4 0.7 -0.4
v -0.3 0.7 -0.4
v -0.1 0.7 -0.4
v 0.1 0.7 -0.4
v 0.3 0.7 -0.4
v 0.4 0.7 -0.4
v 0.5 0.7 -0.4
v -0.3 0.8 0.3
v -0.2 0.8 0.3
v 0.2 0.8 0.3
v 0.3 0.8 0.3
v -0.4 0.8 0.2
v -0.3 0.8 0.2
v -0.2 0.8 0.2
v -0.1 0.8 0.2
v -5.96046e-08 0.8 0.2
v 0.1 0.8 0.2
v 0.2 0.8 0.2
v 0.3 0.8 0.2
v 0.4 0.8 0.2
v -0.4 0.8 0.1
v -0.3 0.8 0.1
v -0.1 0.8 0.1
v -5.96046e-08 0.8 0.1
v 0.1 0.8 0.1
v 0.3 0.8 0.1
v 0.4 0.8 0.1
v -0.4 0.8 0
v -0.3 0.8 0
v 0.3 0.8 0
v 0.4 0.8 0
v -0.4 0.8 -0.1
v -0.3 0.8 -0.1
v 0.3 0.8 -0.1
v 0.4 0.8 -0.1
v -0.4 0.8 -0.2
v -0.3 0.8 -0.2
v -0.2 0.8 -0.2
v 0.2 0.8 -0.2
v 0.3 0.8 -0.2
v 0.4 0.8 -0.2
v -0.4 0.8 -0.3
v -0.3 0.8 -0.3
v -0.2 0.8 -0.3
v -0.1 0.8 -0.3
v 0.1 0.8 -0.3
v 0.2 0.8 -0.3
v 0.3 0.8 -0.3
v 0.4 0.8 -0.3
v -0.3 0.8 -0.4
v -0.1 0.8 -0.4
v 0.1 0.8 -0.4
v 0.3 0.8 -0.4
v -0.3 0.9 -0.1
v -0.2 0.9 -0.1
v 0.2 0.9 -0.1
v 0.3 0.9 -0.1
v -0.3 0.9 -0.2
v -0.2 0.9 -0.2
v 0.2 0.9 -0.2
v 0.3 0.9 -0.2
v -0.2 0.9 -0.3
v 0.2 0.9 -0.3
v -0.3 1 0.1
v -0.2 1 0.1
v 0.2 1 0.1
v 0.3 1 0.1
v -0.3 1 0
v -0.2 1 0
v 0.2 1 0
v 0.3 1 0
v -0.3 1 -0.1
v -0.2 1 -0.1
v 0.2 1 -0.1
v 0.3 1 -0.1
v -0.3 1.1 0.3
v -0.2 1.1 0.3
v 0.2 1.1 0.3
v 0.3 1.1 0.3
v -0.4 1.1 0.2
v -0.3 1.1 0.2
v -0.2 1.1 0.2
v 0.2 1.1 0.2
v 0.3 1.1 0.2
v 0.4 1.1 0.2
v -0.4 1.1 -0.1
v -0.3 1.1 -0.1
v 0.3 1.1 -0.1
v 0.4 1.1 -0.1
v -0.5 1.1 -0.2
v -0.4 1.1 -0.2
v 0.4 1.1 -0.2
v 0.5 1.1 -0.2
v -0.5 1.1 -0.3
v -0.4 1.1 -0.3
v -0.3 1.1 -0.3
v 0.3 1.1 -0.3
v 0.4 1.1 -0.3
v 0.5 1.1 -0.3
v -0.5 1.1 -0.4
v -0.4 1.1 -0.4
v -0.3 1.1 -0.4
v -0.2 1.1 -0.4
v 0.2 1.1 -0.4
v 0.3 1.1 -0.4
v 0.4 1.1 -0.4
v 0.5 1.1 -0.4
v -0.2 1.2 0.5
v 0.2 1.2 0.5
v -0.2 1.2 0.3
v -0.1 1.2 0.3
v 0.1 1.2 0.3
v 0.2 1.2 0.3
v -0.3 1.2 0.2
v -0.2 1.2 0.2
v -0.1 1.2 0.2
v 0.1 1.2 0.2
v 0.2 1.2 0.2
v 0.3 1.2 0.2
v -0.3 1.2 0.1
v -0.2 1.2 0.1
v -0.1 1.2 0.1
v 0.1 1.2 0.1
v 0.2 1.2 0.1
v 0.3 1.2 0.1
v -0.5 1.2 -0.4
v -0.4 1.2 -0.4
v -0.1 1.2 -0.4
v 0.1 1.2 -0.4
v 0.4 1.2 -0.4
v 0.5 1.2 -0.4
v -0.5 1.2 -0.5
v -0.4 1.2 -0.5
v -0.1 1.2 -0.5
v 0.1 1.2 -0.5
v 0.4 1.2 -0.5
v 0.5 1.2 -0.5
v -0.3 1.3 -0.1
v -0.2 1.3 -0.1
v 0.2 1.3 -0.1
v 0.3 1.3 -0.1
v -0.4 1.3 -0.2
v -0.3 1.3 -0.2
v -0.2 1.3 -0.2
v 0.2 1.3 -0.2
v 0.3 1.3 -0.2
v 0.4 1.3 -0.2
v -0.4 1.3 -0.3
v -0.3 1.3 -0.3
v 0.3 1.3 -0.3
v 0.4 1.3 -0.3
v -0.6 1.3 -0.4
v -0.5 1.3 -0.4
v -0.3 1.3 -0.4
v -0.1 1.3 -0.4
v 0.1 1.3 -0.4
v 0.3 1.3 -0.4
v 0.5 1.3 -0.4
v 0.6 1.3 -0.4
v -0.6 1.3 -0.5
v -0.5 1.3 -0.5
v -0.4 1.3 -0.5
v -0.1 1.3 -0.5
v 0.1 1.3 -0.5
v 0.4 1.3 -0.5
v 0.5 1.3 -0.5
v 0.6 1.3 -0.5
v -0.6 1.3 -0.6
v -0.5 1.3 -0.6
v 0.5 1.3 -0.6
v 0.6 1.3 -0.6
v -0.3 1.4 0.1
v -0.2 1.4 0.1
v 0.2 1.4 0.1
v 0.3 1.4 0.1
v -0.5 1.4 -0.1
v -0.4 1.4 -0.1
v -0.3 1.4 -0.1
v -0.2 1.4 -0.1
v 0.2 1.4 -0.1
v 0.3 1.4 -0.1
v 0.4 1.4 -0.1
v 0.5 1.4 -0.1
v -0.5 1.4 -0.2
v -0.4 1.4 -0.2
v 0.4 1.4 -0.2
v 0.5 1.4 -0.2
v -0.5 1.4 -0.5
v -0.4 1.4 -0.5
v -0.3 1.4 -0.5
v 0.3 1.4 -0.5
v 0.4 1.4 -0.5
v 0.5 1.4 -0.5
v -0.5 1.4 -0.6
v -0.4 1.4 -0.6
v -0.3 1.4 -0.6
v 0.3 1.4 -0.6
v 0.4 1.4 -0.6
v 0.5 1.4 -0.6
v -0.4 1.4 -0.7
v 0.4 1.4 -0.7
v -0.2 1.5 0.5
v 0.2 1.5 0.5
v -0.3 1.5 0.4
v -0.2 1.5 0.4
v -0.1 1.5 0.4
v 0.1 1.5 0.4
v 0.2 1.5 0.4
v 0.3 1.5 0.4
v -0.2 1.5 0.3
v -0.1 1.5 0.3
v 0.1 1.5 0.3
v 0.2 1.5 0.3
v -0.4 1.5 0.2
v -0.3 1.5 0.2
v -0.2 1.5 0.2
v 0.2 1.5 0.2
v 0.3 1.5 0.2
v 0.4 1.5 0.2
v -0.4 1.5 0
v -0.3 1.5 0
v 0.3 1.5 0
v 0.4 1.5 0
v -0.6 1.5 -0.4
v -0.5 1.5 -0.4
v -0.4 1.5 -0.4
v -0.3 1.5 -0.4
v 0.3 1.5 -0.4
v 0.5 1.5 -0.4
v 0.6 1.5 -0.4
v -0.6 1.5 -0.5
v -0.5 1.5 -0.5
v -0.4 1.5 -0.5
v -0.3 1.5 -0.5
v -0.1 1.5 -0.5
v 0.3 1.5 -0.5
v 0.5 1.5 -0.5
v 0.6 1.5 -0.5
v -0.3 1.5 -0.6
v 0.3 1.5 -0.6
v -0.1 1.6 0.4
v 0.1 1.6 0.4
v -0.2 1.6 0.3
v -0.1 1.6 0.3
v 0.1 1.6 0.3
v 0.2 1.6 0.3
v -0.3 1.6 0.2
v -0.2 1.6 0.2
v -0.1 1.6 0.2
v 0.1 1.6 0.2
v 0.2 1.6 0.2
v 0.3 1.6 0.2
v -0.3 1.6 0.1
v -0.2 1.6 0.1
v 0.2 1.6 0.1
v 0.3 1.6 0.1
v -0.6 1.6 -0.3
v -0.5 1.6 -0.3
v -0.4 1.6 -0.3
v -0.3 1.6 -0.3
v 0.3 1.6 -0.3
v 0.4 1.6 -0.3
v 0.5 1.6 -0.3
v 0.6 1.6 -0.3
v -0.6 1.6 -0.4
v -0.5 1.6 -0.4
v -0.3 1.6 -0.4
v -0.1 1.6 -0.4
v 0.3 1.6 -0.4
v 0.5 1.6 -0.4
v 0.6 1.6 -0.4
v -0.3 1.6 -0.5
v -0.1 1.6 -0.5
v 0.3 1.6 -0.5
v -0.1 1.7 0.3
v 0.1 1.7 0.3
v -0.2 1.7 0.2
v -0.1 1.7 0.2
v 0.1 1.7 0.2
v 0.2 1.7 0.2
v -0.3 1.7 0.1
v -0.2 1.7 0.1
v -0.1 1.7 0.1
v 0.1 1.7 0.1
v 0.2 1.7 0.1
v 0.3 1.7 0.1
v -0.4 1.7 0
v -0.3 1.7 0
v -0.2 1.7 0
v 0.2 1.7 0
v 0.3 1.7 0
v 0.4 1.7 0
v -0.4 1.7 -0.1
v -0.3 1.7 -0.1
v 0.3 1.7 -0.1
v 0.4 1.7 -0.1
v -0.5 1.7 -0.2
v -0.4 1.7 -0.2
v -0.3 1.7 -0.2
v 0.3 1.7 -0.2
v 0.4 1.7 -0.2
v 0.5 1.7 -0.2
v -0.5 1.7 -0.3
v -0.4 1.7 -0.3
v -0.3 1.7 -0.3
v -0.1 1.7 -0.3
v 0.3 1.7 -0.3
v 0.4 1.7 -0.3
v 0.5 1.7 -0.3
v -0.3 1.7 -0.4
v -0.1 1.7 -0.4
v 0.3 1.7 -0.4
v -0.1 1.8 0.2
v 0.1 1.8 0.2
v -0.1 1.8 0.1
v 0.1 1.8 0.1
v -0.3 1.8 0
v -0.2 1.8 0
v 0.2 1.8 0
v 0.3 1.8 0
v -0.4 1.8 -0.1
v -0.3 1.8 -0.1
v -0.2 1.8 -0.1
v -0.1 1.8 -0.1
v 0.2 1.8 -0.1
v 0.3 1.8 -0.1
v 0.4 1.8 -0.1
v -0.4 1.8 -0.2
v -0.3 1.8 -0.2
v 0.3 1.8 -0.2
v 0.4 1.8 -0.2
v -0.3 1.8 -0.3
v -0.1 1.8 -0.3
v 0.3 1.8 -0.3
v -0.2 1.9 0.1
v -0.1 1.9 0.1
v 0.2 1.9 0.1
v -0.2 1.9 -0.1
v -0.1 1.9 -0.1
v 0.2 1.9 -0.1

# faces
f 3/6/1 2/6/1 1/6/1
f 4/6/1 2/6/1 3/6/1
f 5/5/1 4/5/1 3/5/1
f 6/5/1 4/5/1 5/5/1
f 10/14/1 8/14/1 7/14/1
f 11/8/1 9/8/1 8/8/1
f 11/14/1 8/14/1 10/14/1
f 12/8/1 9/8/1 11/8/1
f 15/1/1 14/1/1 13/1/1
f 16/1/1 14/1/1 15/1/1
f 17/1/1 15/1/1 13/1/1
f 18/1/1 15/1/1 17/1/1
f 21/15/1 20/15/1 19/15/1
f 22/15/1 20/15/1 21/15/1
f 23/15/1 20/15/1 22/15/1
f 24/14/1 22/14/1 21/14/1
f 25/14/1 22/14/1 24/14/1
f 29/5/1 27/5/1 26/5/1
f 30/5/1 27/5/1 29/5/1
f 32/6/1 29/6/1 28/6/1
f 33/5/1 31/5/1 30/5/1
f 34/6/1 32/6/1 28/6/1
f 35/6/1 32/6/1 34/6/1
f 36/5/1 31/5/1 33/5/1
f 37/5/1 31/5/1 36/5/1
f 38/5/1 35/5/1 34/5/1
f 39/2/1 36/2/1 35/2/1
f 39/5/1 35/5/1 38/5/1
f 40/1/1 37/1/1 36/1/1
f 40/2/1 36/2/1 39/2/1
f 41/1/1 37/1/1 40/1/1
f 45/9/1 43/9/1 42/9/1
f 46/7/1 44/7/1 43/7/1
f 46/9/1 43/9/1 45/9/1
f 47/7/1 44/7/1 46/7/1
f 51/6/1 49/6/1 48/6/1
f 52/6/1 49/6/1 51/6/1
f 55/6/1 52/6/1 51/6/1
f 55/6/1 51/6/1 50/6/1
f 55/6/1 53/6/1 52/6/1
f 56/6/1 53/6/1 55/6/1
f 57/6/1 53/6/1 56/6/1
f 58/4/1 54/4/1 53/4/1
f 58/6/1 53/6/1 57/6/1
f 59/4/1 54/4/1 58/4/1
f 60/1/1 57/1/1 56/1/1
f 61/1/1 57/1/1 60/1/1
f 62/2/1 61/2/1 60/2/1
f 63/2/1 61/2/1 62/2/1
f 64/1/1 63/1/1 62/1/1
f 65/1/1 63/1/1 64/1/1
f 69/15/1 67/15/1 66/15/1
f 70/15/1 67/15/1 69/15/1
f 71/13/1 69/13/1 68/13/1
f 71/13/1 70/13/1 69/13/1
f 72/13/1 70/13/1 71/13/1
f 73/14/1 72/14/1 71/14/1
f 74/13/1 70/13/1 72/13/1
f 74/14/1 72/14/1 73/14/1
f 75/13/1 70/13/1 74/13/1
f 76/13/1 70/13/1 75/13/1
f 81/5/1 76/5/1 75/5/1
f 82/5/1 76/5/1 81/5/1
f 83/5/1 78/5/1 77/5/1
f 84/5/1 78/5/1 83/5/1
f 85/12/1 80/12/1 79/12/1
f 85/5/1 81/5/1 80/5/1
f 86/5/1 81/5/1 85/5/1
f 87/12/1 85/12/1 79/12/1
f 88/12/1 85/12/1 87/12/1
f 89/4/1 86/4/1 85/4/1
f 92/3/1 88/3/1 87/3/1
f 93/12/1 85/12/1 88/12/1
f 93/3/1 88/3/1 92/3/1
f 94/4/1 89/4/1 85/4/1
f 94/12/1 85/12/1 93/12/1
f 95/2/1 90/2/1 89/2/1
f 95/4/1 89/4/1 94/4/1
f 96/1/1 91/1/1 90/1/1
f 96/2/1 90/2/1 95/2/1
f 97/1/1 91/1/1 96/1/1
f 103/9/1 99/9/1 98/9/1
f 104/7/1 100/7/1 99/7/1
f 104/9/1 99/9/1 103/9/1
f 105/6/1 101/6/1 100/6/1
f 105/7/1 100/7/1 104/7/1
f 106/6/1 101/6/1 105/6/1
f 108/6/1 103/6/1 102/6/1
f 108/6/1 104/6/1 103/6/1
f 109/6/1 104/6/1 108/6/1
f 110/6/1 104/6/1 109/6/1
f 112/6/1 107/6/1 106/6/1
f 113/6/1 107/6/1 112/6/1
f 114/9/1 111/9/1 110/9/1
f 114/9/1 112/9/1 111/9/1
f 114/9/1 110/9/1 109/9/1
f 115/9/1 112/9/1 114/9/1
f 116/9/1 112/9/1 115/9/1
f 119/7/1 115/7/1 114/7/1
f 120/7/1 115/7/1 119/7/1
f 121/4/1 117/4/1 116/4/1
f 121/4/1 118/4/1 117/4/1
f 122/4/1 118/4/1 121/4/1
f 123/4/1 118/4/1 122/4/1
f 128/3/1 124/3/1 123/3/1
f 129/3/1 124/3/1 128/3/1
f 130/6/1 127/6/1 126/6/1
f 130/6/1 126/6/1 125/6/1
f 131/6/1 127/6/1 130/6/1
f 132/6/1 127/6/1 131/6/1
f 133/3/1 132/3/1 131/3/1
f 134/3/1 132/3/1 133/3/1
f 135/3/1 132/3/1 134/3/1
f 136/2/1 134/2/1 133/2/1
f 137/1/1 135/1/1 134/1/1
f 137/2/1 134/2/1 136/2/1
f 138/1/1 135/1/1 137/1/1
f 139/1/1 138/1/1 137/1/1
f 140/1/1 138/1/1 139/1/1
f 145/10/1 142/10/1 141/10/1
f 146/12/1 143/12/1 142/12/1
f 146/10/1 142/10/1 145/10/1
f 147/12/1 143/12/1 146/12/1
f 148/12/1 143/12/1 147/12/1
f 149/12/1 145/12/1 144/12/1
f 150/12/1 145/12/1 149/12/1
f 153/14/1 150/14/1 149/14/1
f 154/14/1 150/14/1 153/14/1
f 155/11/1 152/11/1 151/11/1
f 156/11/1 152/11/1 155/11/1
f 159/12/1 154/12/1 153/12/1
f 160/12/1 154/12/1 159/12/1
f 165/12/1 158/12/1 157/12/1
f 166/12/1 158/12/1 165/12/1
f 167/7/1 164/7/1 163/7/1
f 167/7/1 161/7/1 160/7/1
f 167/7/1 163/7/1 162/7/1
f 167/7/1 162/7/1 161/7/1
f 168/7/1 164/7/1 167/7/1
f 169/7/1 164/7/1 168/7/1
f 170/7/1 164/7/1 169/7/1
f 172/6/1 168/6/1 167/6/1
f 173/9/1 169/9/1 168/9/1
f 173/6/1 168/6/1 172/6/1
f 174/9/1 169/9/1 173/9/1
f 175/6/1 172/6/1 171/6/1
f 176/6/1 172/6/1 175/6/1
f 178/9/1 177/9/1 176/9/1
f 179/9/1 177/9/1 178/9/1
f 180/9/1 177/9/1 179/9/1
f 181/9/1 177/9/1 180/9/1
f 184/9/1 180/9/1 179/9/1
f 185/7/1 181/7/1 180/7/1
f 185/9/1 180/9/1 184/9/1
f 186/7/1 181/7/1 185/7/1
f 187/4/1 183/4/1 182/4/1
f 188/4/1 183/4/1 187/4/1
f 191/7/1 186/7/1 185/7/1
f 191/7/1 185/7/1 184/7/1
f 192/7/1 186/7/1 191/7/1
f 195/6/1 190/6/1 189/6/1
f 196/6/1 190/6/1 195/6/1
f 199/3/1 194/3/1 193/3/1
f 200/3/1 194/3/1 199/3/1
f 201/6/1 197/6/1 196/6/1
f 202/6/1 197/6/1 201/6/1
f 203/6/1 197/6/1 202/6/1
f 205/3/1 199/3/1 198/3/1
f 206/3/1 199/3/1 205/3/1
f 207/3/1 203/3/1 202/3/1
f 208/3/1 203/3/1 207/3/1
f 211/3/1 205/3/1 204/3/1
f 212/3/1 205/3/1 211/3/1
f 213/1/1 209/1/1 208/1/1
f 214/1/1 209/1/1 213/1/1
f 215/3/1 211/3/1 210/3/1
f 216/3/1 211/3/1 215/3/1
f 219/10/1 218/10/1 217/10/1
f 220/10/1 218/10/1 219/10/1
f 223/10/1 222/10/1 221/10/1
f 224/10/1 222/10/1 223/10/1
f 229/7/1 226/7/1 225/7/1
f 230/7/1 226/7/1 229/7/1
f 231/6/1 228/6/1 227/6/1
f 232/6/1 228/6/1 231/6/1
f 234/6/1 230/6/1 229/6/1
f 235/6/1 230/6/1 234/6/1
f 236/9/1 234/9/1 233/9/1
f 237/9/1 234/9/1 236/9/1
f 241/8/1 237/8/1 236/8/1
f 242/9/1 238/9/1 237/9/1
f 242/8/1 237/8/1 241/8/1
f 243/9/1 238/9/1 242/9/1
f 245/4/1 240/4/1 239/4/1
f 246/4/1 240/4/1 245/4/1
f 247/6/1 244/6/1 243/6/1
f 250/6/1 247/6/1 243/6/1
f 251/6/1 247/6/1 250/6/1
f 252/6/1 249/6/1 248/6/1
f 253/6/1 249/6/1 252/6/1
f 256/6/1 255/6/1 254/6/1
f 257/6/1 255/6/1 256/6/1
f 259/5/1 258/5/1 257/5/1
f 260/5/1 258/5/1 259/5/1
f 262/3/1 261/3/1 260/3/1
f 263/3/1 261/3/1 262/3/1
f 265/1/1 263/1/1 262/1/1
f 265/1/1 264/1/1 263/1/1
f 266/1/1 264/1/1 265/1/1
f 269/10/1 268/10/1 267/10/1
f 270/10/1 268/10/1 269/10/1
f 271/12/1 270/12/1 269/12/1
f 272/12/1 270/12/1 271/12/1
f 275/6/1 274/6/1 273/6/1
f 276/6/1 274/6/1 275/6/1
f 279/9/1 278/9/1 277/9/1
f 280/9/1 278/9/1 279/9/1
f 281/7/1 280/7/1 279/7/1
f 282/7/1 280/7/1 281/7/1
f 285/6/1 284/6/1 283/6/1
f 286/6/1 284/6/1 285/6/1
f 288/5/1 287/5/1 286/5/1
f 289/5/1 287/5/1 288/5/1
f 291/5/1 290/5/1 289/5/1
f 292/5/1 290/5/1 291/5/1
f 295/15/1 294/15/1 293/15/1
f 296/15/1 294/15/1 295/15/1
f 301/12/1 298/12/1 297/12/1
f 302/12/1 298/12/1 301/12/1
f 303/12/1 300/12/1 299/12/1
f 304/12/1 300/12/1 303/12/1
f 307/9/1 306/9/1 305/9/1
f 308/9/1 306/9/1 307/9/1
f 313/6/1 310/6/1 309/6/1
f 314/4/1 312/4/1 311/4/1
f 315/4/1 312/4/1 314/4/1
f 316/6/1 310/6/1 313/6/1
f 317/6/1 310/6/1 316/6/1
f 324/3/1 319/3/1 318/3/1
f 325/3/1 319/3/1 324/3/1
f 326/4/1 321/4/1 320/4/1
f 327/4/1 321/4/1 326/4/1
f 328/4/1 323/4/1 322/4/1
f 329/4/1 323/4/1 328/4/1
f 332/13/1 331/13/1 330/13/1
f 333/13/1 331/13/1 332/13/1
f 339/10/1 335/10/1 334/10/1
f 340/10/1 335/10/1 339/10/1
f 341/11/1 338/11/1 337/11/1
f 341/11/1 337/11/1 336/11/1
f 342/11/1 338/11/1 341/11/1
f 343/11/1 338/11/1 342/11/1
f 346/7/1 345/7/1 344/7/1
f 347/7/1 345/7/1 346/7/1
f 348/7/1 345/7/1 347/7/1
f 349/7/1 345/7/1 348/7/1
f 350/6/1 347/6/1 346/6/1
f 351/6/1 347/6/1 350/6/1
f 352/9/1 348/9/1 347/9/1
f 352/6/1 347/6/1 351/6/1
f 353/9/1 348/9/1 352/9/1
f 356/9/1 355/9/1 354/9/1
f 357/9/1 355/9/1 356/9/1
f 358/9/1 355/9/1 357/9/1
f 360/9/1 357/9/1 356/9/1
f 361/7/1 358/7/1 357/7/1
f 361/9/1 357/9/1 360/9/1
f 361/7/1 359/7/1 358/7/1
f 362/7/1 359/7/1 361/7/1
f 363/7/1 359/7/1 362/7/1
f 364/7/1 361/7/1 360/7/1
f 364/7/1 362/7/1 361/7/1
f 365/7/1 362/7/1 364/7/1
f 372/2/1 367/2/1 366/2/1
f 373/2/1 367/2/1 372/2/1
f 374/6/1 369/6/1 368/6/1
f 375/6/1 369/6/1 374/6/1
f 377/3/1 371/3/1 370/3/1
f 378/3/1 371/3/1 377/3/1
f 379/4/1 376/4/1 375/4/1
f 380/4/1 376/4/1 379/4/1
f 383/1/1 382/1/1 381/1/1
f 384/1/1 382/1/1 383/1/1
f 390/9/1 386/9/1 385/9/1
f 391/7/1 387/7/1 386/7/1
f 391/9/1 386/9/1 390/9/1
f 392/6/1 389/6/1 388/6/1
f 392/6/1 390/6/1 389/6/1
f 392/6/1 391/6/1 390/6/1
f 393/6/1 391/6/1 392/6/1
f 394/7/1 387/7/1 391/7/1
f 394/6/1 391/6/1 393/6/1
f 395/7/1 387/7/1 394/7/1
f 397/9/1 395/9/1 394/9/1
f 397/9/1 396/9/1 395/9/1
f 397/9/1 394/9/1 393/9/1
f 398/9/1 396/9/1 397/9/1
f 399/9/1 396/9/1 398/9/1
f 400/9/1 396/9/1 399/9/1
f 402/7/1 399/7/1 398/7/1
f 403/4/1 400/4/1 399/4/1
f 403/7/1 399/7/1 402/7/1
f 404/4/1 400/4/1 403/4/1
f 406/6/1 402/6/1 401/6/1
f 407/6/1 402/6/1 406/6/1
f 409/6/1 406/6/1 405/6/1
f 409/6/1 407/6/1 406/6/1
f 410/6/1 407/6/1 409/6/1
f 411/3/1 408/3/1 407/3/1
f 411/6/1 407/6/1 410/6/1
f 412/3/1 408/3/1 411/3/1
f 413/3/1 411/3/1 410/3/1
f 414/3/1 411/3/1 413/3/1
f 417/5/1 416/5/1 415/5/1
f 418/5/1 416/5/1 417/5/1
f 422/6/1 420/6/1 419/6/1
f 422/6/1 421/6/1 420/6/1
f 423/6/1 421/6/1 422/6/1
f 424/6/1 421/6/1 423/6/1
f 428/8/1 426/8/1 425/8/1
f 429/14/1 428/14/1 427/14/1
f 430/8/1 426/8/1 428/8/1
f 430/14/1 428/14/1 429/14/1
f 431/8/1 426/8/1 430/8/1
f 432/8/2 433/8/2 435/8/2
f 434/14/2 435/14/2 436/14/2
f 435/8/2 433/8/2 437/8/2
f 436/14/2 435/14/2 437/14/2
f 437/8/2 433/8/2 438/8/2
f 439/5/2 440/5/2 441/5/2
f 441/5/2 440/5/2 442/5/2
f 443/6/2 444/6/2 446/6/2
f 444/6/2 445/6/2 446/6/2
f 446/6/2 445/6/2 447/6/2
f 448/1/2 449/1/2 450/1/2
f 450/1/2 449/1/2 451/1/2
f 452/9/2 453/9/2 457/9/2
f 453/7/2 454/7/2 458/7/2
f 457/9/2 453/9/2 458/9/2
f 455/6/2 456/6/2 459/6/2
f 456/6/2 457/6/2 459/6/2
f 457/6/2 458/6/2 459/6/2
f 459/6/2 458/6/2 460/6/2
f 458/7/2 454/7/2 461/7/2
f 460/6/2 458/6/2 461/6/2
f 461/7/2 454/7/2 462/7/2
f 461/9/2 462/9/2 464/9/2
f 462/9/2 463/9/2 464/9/2
f 460/9/2 461/9/2 464/9/2
f 464/9/2 463/9/2 465/9/2
f 465/9/2 463/9/2 466/9/2
f 466/9/2 463/9/2 467/9/2
f 465/7/2 466/7/2 469/7/2
f 466/4/2 467/4/2 470/4/2
f 469/7/2 466/7/2 470/7/2
f 470/4/2 467/4/2 471/4/2
f 468/6/2 469/6/2 473/6/2
f 473/6/2 469/6/2 474/6/2
f 472/6/2 473/6/2 476/6/2
f 473/6/2 474/6/2 476/6/2
f 476/6/2 474/6/2 477/6/2
f 474/3/2 475/3/2 478/3/2
f 477/6/2 474/6/2 478/6/2
f 478/3/2 475/3/2 479/3/2
f 477/3/2 478/3/2 480/3/2
f 480/3/2 478/3/2 481/3/2
f 482/13/2 483/13/2 484/13/2
f 484/13/2 483/13/2 485/13/2
f 486/10/2 487/10/2 491/10/2
f 491/10/2 487/10/2 492/10/2
f 489/11/2 490/11/2 493/11/2
f 488/11/2 489/11/2 493/11/2
f 493/11/2 490/11/2 494/11/2
f 494/11/2 490/11/2 495/11/2
f 496/7/2 497/7/2 498/7/2
f 498/7/2 497/7/2 499/7/2
f 499/7/2 497/7/2 500/7/2
f 500/7/2 497/7/2 501/7/2
f 498/6/2 499/6/2 502/6/2
f 502/6/2 499/6/2 503/6/2
f 499/9/2 500/9/2 504/9/2
f 503/6/2 499/6/2 504/6/2
f 504/9/2 500/9/2 505/9/2
f 506/9/2 507/9/2 508/9/2
f 508/9/2 507/9/2 509/9/2
f 509/9/2 507/9/2 510/9/2
f 508/9/2 509/9/2 512/9/2
f 509/7/2 510/7/2 513/7/2
f 512/9/2 509/9/2 513/9/2
f 510/7/2 511/7/2 513/7/2
f 513/7/2 511/7/2 514/7/2
f 514/7/2 511/7/2 515/7/2
f 512/7/2 513/7/2 516/7/2
f 513/7/2 514/7/2 516/7/2
f 516/7/2 514/7/2 517/7/2
f 518/3/2 519/3/2 524/3/2
f 524/3/2 519/3/2 525/3/2
f 520/6/2 521/6/2 526/6/2
f 526/6/2 521/6/2 527/6/2
f 522/3/2 523/3/2 529/3/2
f 529/3/2 523/3/2 530/3/2
f 527/4/2 528/4/2 531/4/2
f 531/4/2 528/4/2 532/4/2
f 533/15/2 534/15/2 535/15/2
f 535/15/2 534/15/2 536/15/2
f 537/12/2 538/12/2 541/12/2
f 541/12/2 538/12/2 542/12/2
f 539/12/2 540/12/2 543/12/2
f 543/12/2 540/12/2 544/12/2
f 545/9/2 546/9/2 547/9/2
f 547/9/2 546/9/2 548/9/2
f 549/6/2 550/6/2 553/6/2
f 551/4/2 552/4/2 554/4/2
f 554/4/2 552/4/2 555/4/2
f 553/6/2 550/6/2 556/6/2
f 556/6/2 550/6/2 557/6/2
f 558/3/2 559/3/2 564/3/2
f 564/3/2 559/3/2 565/3/2
f 560/4/2 561/4/2 566/4/2
f 566/4/2 561/4/2 567/4/2
f 562/4/2 563/4/2 568/4/2
f 568/4/2 563/4/2 569/4/2
f 570/10/2 571/10/2 572/10/2
f 572/10/2 571/10/2 573/10/2
f 572/12/2 573/12/2 574/12/2
f 574/12/2 573/12/2 575/12/2
f 576/6/2 577/6/2 578/6/2
f 578/6/2 577/6/2 579/6/2
f 580/9/2 581/9/2 582/9/2
f 582/9/2 581/9/2 583/9/2
f 582/7/2 583/7/2 584/7/2
f 584/7/2 583/7/2 585/7/2
f 586/6/2 587/6/2 588/6/2
f 588/6/2 587/6/2 589/6/2
f 589/5/2 590/5/2 591/5/2
f 591/5/2 590/5/2 592/5/2
f 592/5/2 593/5/2 594/5/2
f 594/5/2 593/5/2 595/5/2
f 596/10/2 597/10/2 598/10/2
f 598/10/2 597/10/2 599/10/2
f 600/10/2 601/10/2 602/10/2
f 602/10/2 601/10/2 603/10/2
f 602/12/2 603/12/2 604/12/2
f 604/12/2 603/12/2 605/12/2
f 606/7/2 607/7/2 610/7/2
f 610/7/2 607/7/2 611/7/2
f 608/6/2 609/6/2 612/6/2
f 612/6/2 609/6/2 613/6/2
f 610/6/2 611/6/2 615/6/2
f 615/6/2 611/6/2 616/6/2
f 614/9/2 615/9/2 617/9/2
f 617/9/2 615/9/2 618/9/2
f 617/8/2 618/8/2 622/8/2
f 618/9/2 619/9/2 623/9/2
f 622/8/2 618/8/2 623/8/2
f 623/9/2 619/9/2 624/9/2
f 620/4/2 621/4/2 626/4/2
f 626/4/2 621/4/2 627/4/2
f 624/6/2 625/6/2 628/6/2
f 624/6/2 628/6/2 631/6/2
f 631/6/2 628/6/2 632/6/2
f 629/6/2 630/6/2 633/6/2
f 633/6/2 630/6/2 634/6/2
f 635/6/2 636/6/2 637/6/2
f 637/6/2 636/6/2 638/6/2
f 638/5/2 639/5/2 640/5/2
f 640/5/2 639/5/2 641/5/2
f 641/3/2 642/3/2 643/3/2
f 643/3/2 642/3/2 644/3/2
f 643/4/2 644/4/2 646/4/2
f 644/4/2 645/4/2 646/4/2
f 646/4/2 645/4/2 647/4/2
f 648/10/2 649/10/2 652/10/2
f 649/12/2 650/12/2 653/12/2
f 652/10/2 649/10/2 653/10/2
f 653/12/2 650/12/2 654/12/2
f 654/12/2 650/12/2 655/12/2
f 651/10/2 652/10/2 656/10/2
f 656/10/2 652/10/2 657/10/2
f 656/14/2 657/14/2 658/14/2
f 656/14/2 658/14/2 661/14/2
f 661/14/2 658/14/2 662/14/2
f 659/11/2 660/11/2 663/11/2
f 663/11/2 660/11/2 664/11/2
f 661/12/2 662/12/2 667/12/2
f 667/12/2 662/12/2 668/12/2
f 665/12/2 666/12/2 673/12/2
f 673/12/2 666/12/2 674/12/2
f 671/7/2 672/7/2 675/7/2
f 668/7/2 669/7/2 675/7/2
f 670/7/2 671/7/2 675/7/2
f 669/7/2 670/7/2 675/7/2
f 675/7/2 672/7/2 676/7/2
f 676/7/2 672/7/2 677/7/2
f 677/7/2 672/7/2 678/7/2
f 675/6/2 676/6/2 680/6/2
f 676/9/2 677/9/2 681/9/2
f 680/6/2 676/6/2 681/6/2
f 681/9/2 677/9/2 682/9/2
f 679/6/2 680/6/2 683/6/2
f 683/6/2 680/6/2 684/6/2
f 684/9/2 685/9/2 686/9/2
f 686/9/2 685/9/2 687/9/2
f 687/9/2 685/9/2 688/9/2
f 688/9/2 685/9/2 689/9/2
f 687/9/2 688/9/2 692/9/2
f 688/7/2 689/7/2 693/7/2
f 692/9/2 688/9/2 693/9/2
f 693/7/2 689/7/2 694/7/2
f 690/4/2 691/4/2 695/4/2
f 695/4/2 691/4/2 696/4/2
f 693/7/2 694/7/2 699/7/2
f 692/7/2 693/7/2 699/7/2
f 699/7/2 694/7/2 700/7/2
f 697/6/2 698/6/2 703/6/2
f 703/6/2 698/6/2 704/6/2
f 701/3/2 702/3/2 707/3/2
f 707/3/2 702/3/2 708/3/2
f 704/6/2 705/6/2 709/6/2
f 709/6/2 705/6/2 710/6/2
f 710/6/2 705/6/2 711/6/2
f 706/2/2 707/2/2 713/2/2
f 713/2/2 707/2/2 714/2/2
f 710/3/2 711/3/2 715/3/2
f 715/3/2 711/3/2 716/3/2
f 712/2/2 713/2/2 719/2/2
f 719/2/2 713/2/2 720/2/2
f 716/1/2 717/1/2 721/1/2
f 721/1/2 717/1/2 722/1/2
f 718/2/2 719/2/2 723/2/2
f 723/2/2 719/2/2 724/2/2
f 725/15/2 726/15/2 728/15/2
f 728/15/2 726/15/2 729/15/2
f 727/13/2 728/13/2 730/13/2
f 728/13/2 729/13/2 730/13/2
f 730/13/2 729/13/2 731/13/2
f 730/14/2 731/14/2 732/14/2
f 731/13/2 729/13/2 733/13/2
f 732/14/2 731/14/2 733/14/2
f 733/13/2 729/13/2 734/13/2
f 734/13/2 729/13/2 735/13/2
f 734/5/2 735/5/2 741/5/2
f 741/5/2 735/5/2 742/5/2
f 736/5/2 737/5/2 743/5/2
f 743/5/2 737/5/2 744/5/2
f 738/10/2 739/10/2 745/10/2
f 739/12/2 740/12/2 746/12/2
f 745/10/2 739/10/2 746/10/2
f 740/5/2 741/5/2 747/5/2
f 746/12/2 740/12/2 747/12/2
f 747/5/2 741/5/2 748/5/2
f 745/12/2 746/12/2 749/12/2
f 746/12/2 747/12/2 749/12/2
f 749/12/2 747/12/2 750/12/2
f 747/4/2 748/4/2 751/4/2
f 749/4/2 750/4/2 754/4/2
f 750/12/2 747/12/2 755/12/2
f 754/4/2 750/4/2 755/4/2
f 747/4/2 751/4/2 756/4/2
f 755/12/2 747/12/2 756/12/2
f 751/2/2 752/2/2 757/2/2
f 756/4/2 751/4/2 757/4/2
f 752/1/2 753/1/2 758/1/2
f 757/2/2 752/2/2 758/2/2
f 758/1/2 753/1/2 759/1/2
f 760/9/2 761/9/2 765/9/2
f 761/7/2 762/7/2 766/7/2
f 765/9/2 761/9/2 766/9/2
f 762/6/2 763/6/2 767/6/2
f 766/7/2 762/7/2 767/7/2
f 767/6/2 763/6/2 768/6/2
f 764/6/2 765/6/2 770/6/2
f 765/6/2 766/6/2 770/6/2
f 770/6/2 766/6/2 771/6/2
f 771/6/2 766/6/2 772/6/2
f 768/6/2 769/6/2 774/6/2
f 774/6/2 769/6/2 775/6/2
f 772/9/2 773/9/2 776/9/2
f 773/9/2 774/9/2 776/9/2
f 771/9/2 772/9/2 776/9/2
f 776/9/2 774/9/2 777/9/2
f 777/9/2 774/9/2 778/9/2
f 776/7/2 777/7/2 781/7/2
f 781/7/2 777/7/2 782/7/2
f 778/4/2 779/4/2 783/4/2
f 779/4/2 780/4/2 783/4/2
f 783/4/2 780/4/2 784/4/2
f 784/4/2 780/4/2 785/4/2
f 785/3/2 786/3/2 790/3/2
f 790/3/2 786/3/2 791/3/2
f 788/6/2 789/6/2 792/6/2
f 787/6/2 788/6/2 792/6/2
f 792/6/2 789/6/2 793/6/2
f 793/6/2 789/6/2 794/6/2
f 793/3/2 794/3/2 795/3/2
f 795/3/2 794/3/2 796/3/2
f 796/3/2 794/3/2 797/3/2
f 795/1/2 796/1/2 798/1/2
f 796/3/2 797/3/2 799/3/2
f 798/1/2 796/1/2 799/1/2
f 799/3/2 797/3/2 800/3/2
f 799/1/2 800/1/2 801/1/2
f 801/1/2 800/1/2 802/1/2
f 803/15/2 804/15/2 805/15/2
f 805/15/2 804/15/2 806/15/2
f 806/15/2 804/15/2 807/15/2
f 805/14/2 806/14/2 808/14/2
f 808/14/2 806/14/2 809/14/2
f 810/5/2 811/5/2 813/5/2
f 813/5/2 811/5/2 814/5/2
f 812/6/2 813/6/2 816/6/2
f 814/5/2 815/5/2 817/5/2
f 812/6/2 816/6/2 818/6/2
f 818/6/2 816/6/2 819/6/2
f 817/5/2 815/5/2 820/5/2
f 820/5/2 815/5/2 821/5/2
f 818/5/2 819/5/2 822/5/2
f 819/2/2 820/2/2 823/2/2
f 822/5/2 819/5/2 823/5/2
f 820/1/2 821/1/2 824/1/2
f 823/2/2 820/2/2 824/2/2
f 824/1/2 821/1/2 825/1/2
f 826/9/2 827/9/2 829/9/2
f 827/7/2 828/7/2 830/7/2
f 829/9/2 827/9/2 830/9/2
f 830/7/2 828/7/2 831/7/2
f 832/6/2 833/6/2 835/6/2
f 835/6/2 833/6/2 836/6/2
f 835/6/2 836/6/2 839/6/2
f 834/6/2 835/6/2 839/6/2
f 836/6/2 837/6/2 839/6/2
f 839/6/2 837/6/2 840/6/2
f 840/6/2 837/6/2 841/6/2
f 841/6/2 837/6/2 842/6/2
f 837/1/2 838/1/2 843/1/2
f 842/6/2 837/6/2 843/6/2
f 843/1/2 838/1/2 844/1/2
f 840/3/2 841/3/2 845/3/2
f 840/3/2 845/3/2 846/3/2
f 846/3/2 845/3/2 847/3/2
f 846/1/2 847/1/2 848/1/2
f 848/1/2 847/1/2 849/1/2
f 850/6/2 851/6/2 852/6/2
f 852/6/2 851/6/2 853/6/2
f 852/5/2 853/5/2 854/5/2
f 854/5/2 853/5/2 855/5/2
f 856/14/2 857/14/2 859/14/2
f 857/8/2 858/8/2 860/8/2
f 859/14/2 857/14/2 860/14/2
f 860/8/2 858/8/2 861/8/2
f 862/4/2 863/4/2 865/4/2
f 863/1/2 864/1/2 866/1/2
f 865/4/2 863/4/2 866/4/2
f 866/1/2 864/1/2 867/1/2
f 865/1/2 866/1/2 868/1/2
f 868/1/2 866/1/2 869/1/2
f 875/9/3 871/9/3 870/9/3
f 876/8/3 872/8/3 871/8/3
f 876/9/3 871/9/3 875/9/3
f 877/8/3 872/8/3 876/8/3
f 878/6/3 874/6/3 873/6/3
f 879/6/3 874/6/3 878/6/3
f 882/6/3 881/6/3 880/6/3
f 883/6/3 881/6/3 882/6/3
f 891/10/3 885/10/3 884/10/3
f 892/12/3 886/12/3 885/12/3
f 892/10/3 885/10/3 891/10/3
f 893/12/3 886/12/3 892/12/3
f 894/6/3 888/6/3 887/6/3
f 895/6/3 888/6/3 894/6/3
f 896/6/3 890/6/3 889/6/3
f 897/6/3 890/6/3 896/6/3
f 900/6/3 899/6/3 898/6/3
f 901/6/3 899/6/3 900/6/3
f 905/15/3 903/15/3 902/15/3
f 905/14/3 904/14/3 903/14/3
f 906/14/3 904/14/3 905/14/3
f 913/15/3 905/15/3 902/15/3
f 913/13/3 906/13/3 905/13/3
f 914/13/3 906/13/3 913/13/3
f 916/12/3 908/12/3 907/12/3
f 917/14/3 909/14/3 908/14/3
f 917/12/3 908/12/3 916/12/3
f 918/12/3 910/12/3 909/12/3
f 920/6/3 912/6/3 911/6/3
f 921/6/3 912/6/3 920/6/3
f 924/15/3 913/15/3 902/15/3
f 925/15/3 913/15/3 924/15/3
f 926/10/3 916/10/3 915/10/3
f 926/10/3 917/10/3 916/10/3
f 927/10/3 917/10/3 926/10/3
f 928/14/3 909/14/3 917/14/3
f 928/10/3 917/10/3 927/10/3
f 929/12/3 918/12/3 909/12/3
f 929/14/3 909/14/3 928/14/3
f 930/7/3 919/7/3 918/7/3
f 930/12/3 918/12/3 929/12/3
f 931/6/3 920/6/3 919/6/3
f 931/7/3 919/7/3 930/7/3
f 932/6/3 920/6/3 931/6/3
f 936/6/3 923/6/3 922/6/3
f 937/6/3 923/6/3 936/6/3
f 941/11/3 927/11/3 926/11/3
f 942/11/3 927/11/3 941/11/3
f 945/7/3 931/7/3 930/7/3
f 946/7/3 931/7/3 945/7/3
f 948/9/3 934/9/3 933/9/3
f 949/7/3 935/7/3 934/7/3
f 949/9/3 934/9/3 948/9/3
f 950/7/3 935/7/3 949/7/3
f 952/5/3 938/5/3 937/5/3
f 953/5/3 938/5/3 952/5/3
f 954/15/3 940/15/3 939/15/3
f 956/10/3 942/10/3 941/10/3
f 956/10/3 943/10/3 942/10/3
f 957/10/3 943/10/3 956/10/3
f 958/12/3 945/12/3 944/12/3
f 958/7/3 946/7/3 945/7/3
f 959/6/3 947/6/3 946/6/3
f 959/7/3 946/7/3 958/7/3
f 960/6/3 947/6/3 959/6/3
f 962/6/3 952/6/3 951/6/3
f 963/6/3 952/6/3 962/6/3
f 964/10/3 943/10/3 957/10/3
f 965/14/3 944/14/3 943/14/3
f 965/10/3 943/10/3 964/10/3
f 966/12/3 958/12/3 944/12/3
f 966/14/3 944/14/3 965/14/3
f 967/12/3 958/12/3 966/12/3
f 968/6/3 961/6/3 960/6/3
f 969/6/3 961/6/3 968/6/3
f 970/13/3 955/13/3 954/13/3
f 970/15/3 954/15/3 939/15/3
f 971/13/3 955/13/3 970/13/3
f 972/15/3 970/15/3 939/15/3
f 973/14/3 971/14/3 970/14/3
f 973/15/3 970/15/3 972/15/3
f 974/14/3 971/14/3 973/14/3
f 984/14/3 976/14/3 975/14/3
f 985/12/3 978/12/3 977/12/3
f 986/12/3 978/12/3 985/12/3
f 987/3/3 979/3/3 978/3/3
f 987/12/3 978/12/3 986/12/3
f 988/3/3 979/3/3 987/3/3
f 990/6/3 981/6/3 980/6/3
f 991/6/3 981/6/3 990/6/3
f 993/6/3 983/6/3 982/6/3
f 994/6/3 983/6/3 993/6/3
f 997/14/3 984/14/3 975/14/3
f 998/10/3 985/10/3 984/10/3
f 998/14/3 984/14/3 997/14/3
f 999/10/3 985/10/3 998/10/3
f 1000/7/3 989/7/3 988/7/3
f 1001/6/3 990/6/3 989/6/3
f 1001/7/3 989/7/3 1000/7/3
f 1002/6/3 990/6/3 1001/6/3
f 1003/9/3 992/9/3 991/9/3
f 1004/9/3 992/9/3 1003/9/3
f 1006/6/3 995/6/3 994/6/3
f 1007/6/3 995/6/3 1006/6/3
f 1010/13/3 997/13/3 996/13/3
f 1010/13/3 998/13/3 997/13/3
f 1011/13/3 998/13/3 1010/13/3
f 1014/6/3 1005/6/3 1004/6/3
f 1015/6/3 1005/6/3 1014/6/3
f 1016/6/3 1005/6/3 1015/6/3
f 1017/5/3 1008/5/3 1007/5/3
f 1018/5/3 1008/5/3 1017/5/3
f 1020/2/3 1013/2/3 1012/2/3
f 1021/2/3 1013/2/3 1020/2/3
f 1022/15/3 1010/15/3 1009/15/3
f 1022/15/3 1011/15/3 1010/15/3
f 1023/15/3 1011/15/3 1022/15/3
f 1024/15/3 1011/15/3 1023/15/3
f 1025/3/3 1021/3/3 1020/3/3
f 1026/3/3 1021/3/3 1025/3/3
f 1031/5/3 1019/5/3 1018/5/3
f 1032/5/3 1019/5/3 1031/5/3
f 1033/13/3 1024/13/3 1023/13/3
f 1034/13/3 1024/13/3 1033/13/3
f 1035/13/3 1024/13/3 1034/13/3
f 1041/6/3 1029/6/3 1028/6/3
f 1041/6/3 1028/6/3 1027/6/3
f 1042/6/3 1029/6/3 1041/6/3
f 1044/5/3 1031/5/3 1030/5/3
f 1045/5/3 1031/5/3 1044/5/3
f 1046/14/3 1035/14/3 1034/14/3
f 1046/10/3 1036/10/3 1035/10/3
f 1047/10/3 1036/10/3 1046/10/3
f 1051/7/3 1038/7/3 1037/7/3
f 1052/6/3 1039/6/3 1038/6/3
f 1052/7/3 1038/7/3 1051/7/3
f 1053/6/3 1039/6/3 1052/6/3
f 1054/9/3 1041/9/3 1040/9/3
f 1055/9/3 1041/9/3 1054/9/3
f 1057/6/3 1044/6/3 1043/6/3
f 1058/6/3 1044/6/3 1057/6/3
f 1059/14/3 1046/14/3 1034/14/3
f 1060/14/3 1046/14/3 1059/14/3
f 1061/10/3 1048/10/3 1047/10/3
f 1061/10/3 1049/10/3 1048/10/3
f 1062/12/3 1050/12/3 1049/12/3
f 1062/10/3 1049/10/3 1061/10/3
f 1063/4/3 1051/4/3 1050/4/3
f 1063/12/3 1050/12/3 1062/12/3
f 1064/4/3 1051/4/3 1063/4/3
f 1065/6/3 1054/6/3 1053/6/3
f 1066/6/3 1054/6/3 1065/6/3
f 1067/6/3 1057/6/3 1056/6/3
f 1068/6/3 1057/6/3 1067/6/3
f 1074/9/3 1070/9/3 1069/9/3
f 1075/7/3 1071/7/3 1070/7/3
f 1075/9/3 1070/9/3 1074/9/3
f 1076/7/3 1071/7/3 1075/7/3
f 1077/3/3 1073/3/3 1072/3/3
f 1078/3/3 1073/3/3 1077/3/3
f 1081/3/3 1079/3/3 1078/3/3
f 1082/1/3 1080/1/3 1079/1/3
f 1082/3/3 1079/3/3 1081/3/3
f 1083/1/3 1080/1/3 1082/1/3
f 1085/4/3 1083/4/3 1082/4/3
f 1090/3/3 1085/3/3 1084/3/3
f 1091/4/3 1083/4/3 1085/4/3
f 1091/3/3 1085/3/3 1090/3/3
f 1092/4/3 1083/4/3 1091/4/3
f 1093/9/3 1087/9/3 1086/9/3
f 1094/7/3 1088/7/3 1087/7/3
f 1094/9/3 1087/9/3 1093/9/3
f 1095/7/3 1088/7/3 1094/7/3
f 1096/3/3 1090/3/3 1089/3/3
f 1097/3/3 1090/3/3 1096/3/3
f 1101/3/3 1099/3/3 1098/3/3
f 1102/2/3 1100/2/3 1099/2/3
f 1102/3/3 1099/3/3 1101/3/3
f 1103/2/3 1100/2/3 1102/2/3
f 1107/1/3 1104/1/3 1103/1/3
f 1108/1/3 1104/1/3 1107/1/3
f 1109/11/3 1106/11/3 1105/11/3
f 1110/11/3 1106/11/3 1109/11/3
f 1115/1/3 1112/1/3 1111/1/3
f 1116/1/3 1112/1/3 1115/1/3
f 1117/3/3 1114/3/3 1113/3/3
f 1118/1/3 1115/1/3 1114/1/3
f 1118/3/3 1114/3/3 1117/3/3
f 1119/1/3 1115/1/3 1118/1/3
f 1126/6/3 1121/6/3 1120/6/3
f 1127/5/3 1122/5/3 1121/5/3
f 1127/6/3 1121/6/3 1126/6/3
f 1128/5/3 1122/5/3 1127/5/3
f 1133/6/3 1124/6/3 1123/6/3
f 1134/6/3 1124/6/3 1133/6/3
f 1137/5/3 1126/5/3 1125/5/3
f 1138/5/3 1126/5/3 1137/5/3
f 1139/9/3 1130/9/3 1129/9/3
f 1140/9/3 1130/9/3 1139/9/3
f 1141/9/3 1132/9/3 1131/9/3
f 1142/7/3 1133/7/3 1132/7/3
f 1142/9/3 1132/9/3 1141/9/3
f 1143/6/3 1134/6/3 1133/6/3
f 1143/7/3 1133/7/3 1142/7/3
f 1144/6/3 1134/6/3 1143/6/3
f 1145/1/3 1136/1/3 1135/1/3
f 1146/1/3 1136/1/3 1145/1/3
f 1149/4/3 1148/4/3 1147/4/3
f 1150/4/3 1148/4/3 1149/4/3
f 1153/4/3 1152/4/3 1151/4/3
f 1154/4/3 1152/4/3 1153/4/3
f 1165/5/3 1156/5/3 1155/5/3
f 1166/5/3 1156/5/3 1165/5/3
f 1169/9/3 1158/9/3 1157/9/3
f 1170/9/3 1158/9/3 1169/9/3
f 1171/9/3 1160/9/3 1159/9/3
f 1172/7/3 1161/7/3 1160/7/3
f 1172/9/3 1160/9/3 1171/9/3
f 1173/6/3 1162/6/3 1161/6/3
f 1173/7/3 1161/7/3 1172/7/3
f 1174/6/3 1162/6/3 1173/6/3
f 1175/1/3 1164/1/3 1163/1/3
f 1176/1/3 1164/1/3 1175/1/3
f 1177/6/3 1167/6/3 1166/6/3
f 1178/5/3 1168/5/3 1167/5/3
f 1178/6/3 1167/6/3 1177/6/3
f 1179/5/3 1168/5/3 1178/5/3
f 1180/6/3 1174/6/3 1173/6/3
f 1181/6/3 1174/6/3 1180/6/3
f 1186/6/3 1183/6/3 1182/6/3
f 1187/5/3 1184/5/3 1183/5/3
f 1187/6/3 1183/6/3 1186/6/3
f 1188/5/3 1184/5/3 1187/5/3
f 1195/5/3 1186/5/3 1185/5/3
f 1196/5/3 1186/5/3 1195/5/3
f 1199/9/3 1190/9/3 1189/9/3
f 1200/9/3 1190/9/3 1199/9/3
f 1201/1/3 1192/1/3 1191/1/3
f 1202/2/3 1193/2/3 1192/2/3
f 1202/1/3 1192/1/3 1201/1/3
f 1203/1/3 1194/1/3 1193/1/3
f 1203/2/3 1193/2/3 1202/2/3
f 1204/1/3 1194/1/3 1203/1/3
f 1205/1/3 1198/1/3 1197/1/3
f 1206/1/3 1198/1/3 1205/1/3
f 1211/3/3 1208/3/3 1207/3/3
f 1212/3/3 1208/3/3 1211/3/3
f 1215/2/3 1214/2/3 1213/2/3
f 1216/2/3 1214/2/3 1215/2/3
f 1217/6/3 1210/6/3 1209/6/3
f 1218/6/3 1210/6/3 1217/6/3
f 1223/3/3 1220/3/3 1219/3/3
f 1224/3/3 1220/3/3 1223/3/3
f 1227/1/3 1222/1/3 1221/1/3
f 1228/1/3 1222/1/3 1227/1/3
f 1235/5/3 1226/5/3 1225/5/3
f 1236/5/3 1226/5/3 1235/5/3
f 1239/9/3 1230/9/3 1229/9/3
f 1240/9/3 1230/9/3 1239/9/3
f 1241/3/3 1233/3/3 1232/3/3
f 1241/3/3 1232/3/3 1231/3/3
f 1242/1/3 1234/1/3 1233/1/3
f 1242/3/3 1233/3/3 1241/3/3
f 1243/1/3 1234/1/3 1242/1/3
f 1244/6/3 1237/6/3 1236/6/3
f 1245/5/3 1238/5/3 1237/5/3
f 1245/6/3 1237/6/3 1244/6/3
f 1246/5/3 1238/5/3 1245/5/3
f 1251/1/3 1248/1/3 1247/1/3
f 1252/1/3 1248/1/3 1251/1/3
f 1253/1/3 1248/1/3 1252/1/3
f 1254/6/3 1250/6/3 1249/6/3
f 1255/6/3 1250/6/3 1254/6/3
f 1260/6/3 1259/6/3 1258/6/3
f 1263/12/3 1257/12/3 1256/12/3
f 1264/3/3 1262/3/3 1261/3/3
f 1265/3/3 1262/3/3 1264/3/3
f 1266/12/3 1263/12/3 1256/12/3
f 1269/6/3 1259/6/3 1260/6/3
f 1270/3/3 1268/3/3 1267/3/3
f 1271/3/3 1268/3/3 1270/3/3
f 1272/12/3 1266/12/3 1256/12/3
f 1273/12/3 1266/12/3 1272/12/3
f 1274/6/3 1259/6/3 1269/6/3
f 1275/6/3 1259/6/3 1274/6/3
f 1278/6/3 1277/6/3 1276/6/3
f 1279/6/3 1277/6/3 1278/6/3
f 1283/4/3 1281/4/3 1280/4/3
f 1284/1/3 1282/1/3 1281/1/3
f 1284/4/3 1281/4/3 1283/4/3
f 1285/1/3 1282/1/3 1284/1/3
f 1288/14/3 1287/14/3 1286/14/3
f 1289/14/3 1287/14/3 1288/14/3
f 1290/14/3 1287/14/3 1289/14/3
f 1291/9/3 1289/9/3 1288/9/3
f 1292/9/3 1289/9/3 1291/9/3
f 1298/6/3 1294/6/3 1293/6/3
f 1299/4/3 1295/4/3 1294/4/3
f 1299/6/3 1294/6/3 1298/6/3
f 1300/3/3 1297/3/3 1296/3/3
f 1301/3/3 1297/3/3 1300/3/3
f 1302/4/3 1295/4/3 1299/4/3
f 1302/4/3 1299/4/3 1298/4/3
f 1303/4/3 1295/4/3 1302/4/3
f 1306/4/3 1302/4/3 1298/4/3
f 1308/2/3 1305/2/3 1304/2/3
f 1309/2/3 1305/2/3 1308/2/3
f 1310/4/3 1307/4/3 1306/4/3
f 1310/4/3 1306/4/3 1298/4/3
f 1311/4/3 1307/4/3 1310/4/3
f 1314/6/3 1311/6/3 1310/6/3
f 1315/4/3 1307/4/3 1311/4/3
f 1315/6/3 1311/6/3 1314/6/3
f 1316/4/3 1307/4/3 1315/4/3
f 1317/2/3 1313/2/3 1312/2/3
f 1318/2/3 1313/2/3 1317/2/3
f 1321/9/3 1320/9/3 1319/9/3
f 1322/9/3 1320/9/3 1321/9/3
f 1324/14/3 1322/14/3 1321/14/3
f 1324/14/3 1323/14/3 1322/14/3
f 1325/14/3 1323/14/3 1324/14/3
f 1328/3/3 1327/3/3 1326/3/3
f 1331/3/3 1328/3/3 1326/3/3
f 1331/3/3 1329/3/3 1328/3/3
f 1332/3/3 1329/3/3 1331/3/3
f 1333/4/3 1331/4/3 1330/4/3
f 1334/3/3 1332/3/3 1331/3/3
f 1334/4/3 1331/4/3 1333/4/3
f 1335/3/3 1332/3/3 1334/3/3
f 1336/3/3 1332/3/3 1335/3/3
f 1337/3/3 1335/3/3 1334/3/3
f 1338/3/3 1335/3/3 1337/3/3
f 1339/14/4 1340/14/4 1341/14/4
f 1341/14/4 1340/14/4 1342/14/4
f 1343/10/4 1344/10/4 1349/10/4
f 1344/14/4 1345/14/4 1350/14/4
f 1349/10/4 1344/10/4 1350/10/4
f 1350/14/4 1345/14/4 1351/14/4
f 1346/7/4 1347/7/4 1352/7/4
f 1347/6/4 1348/6/4 1353/6/4
f 1352/7/4 1347/7/4 1358/7/4
f 1350/17/4 1351/17/4 1359/17/4
f 1349/17/4 1350/17/4 1359/17/4
f 1359/17/4 1351/17/4 1360/17/4
f 1360/17/4 1351/17/4 1361/17/4
f 1358/7/4 1347/7/4 1362/7/4
f 1347/6/4 1353/6/4 1363/6/4
f 1353/9/4 1354/9/4 1363/9/4
f 1363/9/4 1354/9/4 1364/9/4
f 1355/9/4 1356/9/4 1365/9/4
f 1356/7/4 1357/7/4 1366/7/4
f 1365/9/4 1356/9/4 1366/9/4
f 1366/7/4 1357/7/4 1367/7/4
f 1359/10/4 1360/10/4 1368/10/4
f 1360/14/4 1361/14/4 1369/14/4
f 1368/10/4 1360/10/4 1369/10/4
f 1369/14/4 1361/14/4 1370/14/4
f 1362/7/4 1347/7/4 1371/7/4
f 1347/6/4 1363/6/4 1372/6/4
f 1371/7/4 1347/7/4 1372/7/4
f 1372/6/4 1363/6/4 1373/6/4
f 1374/14/4 1375/14/4 1376/14/4
f 1376/14/4 1375/14/4 1377/14/4
f 1378/9/4 1379/9/4 1382/9/4
f 1382/9/4 1379/9/4 1383/9/4
f 1380/6/4 1381/6/4 1386/6/4
f 1386/6/4 1381/6/4 1387/6/4
f 1382/9/4 1383/9/4 1389/9/4
f 1383/9/4 1384/9/4 1389/9/4
f 1389/9/4 1384/9/4 1390/9/4
f 1384/6/4 1385/6/4 1391/6/4
f 1390/9/4 1384/9/4 1391/9/4
f 1387/6/4 1388/6/4 1391/6/4
f 1386/6/4 1387/6/4 1391/6/4
f 1385/6/4 1386/6/4 1391/6/4
f 1391/6/4 1388/6/4 1392/6/4
f 1392/6/4 1388/6/4 1393/6/4
f 1390/9/4 1391/9/4 1396/9/4
f 1396/9/4 1391/9/4 1397/9/4
f 1392/6/4 1393/6/4 1398/6/4
f 1393/5/4 1394/5/4 1399/5/4
f 1398/6/4 1393/6/4 1399/6/4
f 1399/5/4 1394/5/4 1400/5/4
f 1396/9/4 1397/9/4 1401/9/4
f 1395/9/4 1396/9/4 1401/9/4
f 1401/9/4 1397/9/4 1402/9/4
f 1397/6/4 1398/6/4 1403/6/4
f 1402/9/4 1397/9/4 1403/9/4
f 1398/6/4 1399/6/4 1403/6/4
f 1403/6/4 1399/6/4 1404/6/4
f 1404/6/4 1399/6/4 1405/6/4
f 1405/6/4 1399/6/4 1406/6/4
f 1406/6/4 1399/6/4 1407/6/4
f 1401/9/4 1402/9/4 1408/9/4
f 1408/9/4 1402/9/4 1409/9/4
f 1405/6/4 1406/6/4 1410/6/4
f 1410/6/4 1406/6/4 1411/6/4
f 1412/6/4 1413/6/4 1414/6/4
f 1414/6/4 1413/6/4 1415/6/4
f 1415/4/4 1416/4/4 1417/4/4
f 1417/4/4 1416/4/4 1418/4/4
f 1419/4/4 1420/4/4 1422/4/4
f 1422/4/4 1420/4/4 1423/4/4
f 1421/6/4 1422/6/4 1424/6/4
f 1424/6/4 1422/6/4 1425/6/4
f 1426/15/4 1427/15/4 1428/15/4
f 1428/15/4 1427/15/4 1429/15/4
f 1430/4/4 1431/4/4 1432/4/4
f 1432/4/4 1431/4/4 1433/4/4
f 1434/9/4 1435/9/4 1440/9/4
f 1440/9/4 1435/9/4 1441/9/4
f 1436/9/4 1437/9/4 1442/9/4
f 1442/9/4 1437/9/4 1443/9/4
f 1438/7/4 1439/7/4 1444/7/4
f 1444/7/4 1439/7/4 1445/7/4
f 1446/1/4 1447/1/4 1448/1/4
f 1448/1/4 1447/1/4 1449/1/4
f 1448/4/4 1449/4/4 1456/4/4
f 1456/4/4 1449/4/4 1457/4/4
f 1450/9/4 1451/9/4 1460/9/4
f 1460/9/4 1451/9/4 1461/9/4
f 1452/9/4 1453/9/4 1462/9/4
f 1462/9/4 1453/9/4 1463/9/4
f 1454/7/4 1455/7/4 1464/7/4
f 1464/7/4 1455/7/4 1465/7/4
f 1458/4/4 1459/4/4 1468/4/4
f 1468/4/4 1459/4/4 1469/4/4
f 1466/15/4 1467/15/4 1470/15/4
f 1470/15/4 1467/15/4 1471/15/4
f 1473/13/4 1474/13/4 1479/13/4
f 1475/6/4 1476/6/4 1485/6/4
f 1485/6/4 1476/6/4 1486/6/4
f 1477/1/4 1478/1/4 1487/1/4
f 1487/1/4 1478/1/4 1488/1/4
f 1473/13/4 1479/13/4 1489/13/4
f 1482/7/4 1483/7/4 1490/7/4
f 1490/7/4 1483/7/4 1491/7/4
f 1484/7/4 1485/7/4 1492/7/4
f 1492/7/4 1485/7/4 1493/7/4
f 1472/15/4 1473/15/4 1494/15/4
f 1473/13/4 1489/13/4 1494/13/4
f 1494/13/4 1489/13/4 1495/13/4
f 1480/11/4 1481/11/4 1496/11/4
f 1494/15/4 1495/15/4 1497/15/4
f 1472/15/4 1494/15/4 1497/15/4
f 1497/15/4 1495/15/4 1498/15/4
f 1480/11/4 1496/11/4 1499/11/4
f 1497/13/4 1498/13/4 1500/13/4
f 1497/13/4 1500/13/4 1505/13/4
f 1480/11/4 1499/11/4 1506/11/4
f 1506/11/4 1499/11/4 1507/11/4
f 1501/7/4 1502/7/4 1508/7/4
f 1508/7/4 1502/7/4 1509/7/4
f 1503/7/4 1504/7/4 1510/7/4
f 1510/7/4 1504/7/4 1511/7/4
f 1472/15/4 1497/15/4 1515/15/4
f 1497/13/4 1505/13/4 1516/13/4
f 1515/15/4 1497/15/4 1516/15/4
f 1516/13/4 1505/13/4 1517/13/4
f 1511/6/4 1512/6/4 1518/6/4
f 1518/6/4 1512/6/4 1519/6/4
f 1513/1/4 1514/1/4 1520/1/4
f 1520/1/4 1514/1/4 1521/1/4
f 1522/6/4 1523/6/4 1526/6/4
f 1523/5/4 1524/5/4 1527/5/4
f 1526/6/4 1523/6/4 1527/6/4
f 1527/5/4 1524/5/4 1528/5/4
f 1525/5/4 1526/5/4 1531/5/4
f 1531/5/4 1526/5/4 1532/5/4
f 1529/1/4 1530/1/4 1535/1/4
f 1535/1/4 1530/1/4 1536/1/4
f 1533/1/4 1534/1/4 1537/1/4
f 1537/1/4 1534/1/4 1538/1/4
f 1535/3/4 1536/3/4 1539/3/4
f 1539/3/4 1536/3/4 1540/3/4
f 1542/10/4 1543/10/4 1546/10/4
f 1546/10/4 1543/10/4 1547/10/4
f 1544/6/4 1545/6/4 1549/6/4
f 1540/3/4 1541/3/4 1550/3/4
f 1550/3/4 1541/3/4 1551/3/4
f 1546/11/4 1547/11/4 1552/11/4
f 1552/11/4 1547/11/4 1553/11/4
f 1548/4/4 1549/4/4 1554/4/4
f 1549/6/4 1545/6/4 1555/6/4
f 1554/4/4 1549/4/4 1555/4/4
f 1552/10/4 1553/10/4 1556/10/4
f 1556/10/4 1553/10/4 1557/10/4
f 1555/6/4 1545/6/4 1558/6/4
f 1558/6/4 1545/6/4 1559/6/4
f 1550/2/4 1551/2/4 1563/2/4
f 1563/2/4 1551/2/4 1564/2/4
f 1560/1/4 1561/1/4 1567/1/4
f 1567/1/4 1561/1/4 1568/1/4
f 1562/2/4 1563/2/4 1569/2/4
f 1569/2/4 1563/2/4 1570/2/4
f 1565/5/4 1566/5/4 1571/5/4
f 1571/5/4 1566/5/4 1572/5/4
f 1569/1/4 1570/1/4 1575/1/4
f 1575/1/4 1570/1/4 1576/1/4
f 1572/6/4 1573/6/4 1577/6/4
f 1573/5/4 1574/5/4 1578/5/4
f 1577/6/4 1573/6/4 1578/6/4
f 1578/5/4 1574/5/4 1579/5/4
f 1580/1/4 1581/1/4 1589/1/4
f 1589/1/4 1581/1/4 1590/1/4
f 1582/5/4 1583/5/4 1592/5/4
f 1583/1/4 1584/1/4 1593/1/4
f 1592/5/4 1583/5/4 1593/5/4
f 1593/1/4 1584/1/4 1594/1/4
f 1585/7/4 1586/7/4 1596/7/4
f 1596/7/4 1586/7/4 1597/7/4
f 1587/6/4 1588/6/4 1598/6/4
f 1598/6/4 1588/6/4 1599/6/4
f 1589/3/4 1590/3/4 1600/3/4
f 1591/5/4 1592/5/4 1601/5/4
f 1593/10/4 1594/10/4 1602/10/4
f 1601/5/4 1592/5/4 1602/5/4
f 1592/10/4 1593/10/4 1602/10/4
f 1602/10/4 1594/10/4 1603/10/4
f 1603/10/4 1594/10/4 1604/10/4
f 1600/3/4 1590/3/4 1606/3/4
f 1606/3/4 1590/3/4 1607/3/4
f 1601/10/4 1602/10/4 1609/10/4
f 1602/10/4 1603/10/4 1609/10/4
f 1609/10/4 1603/10/4 1610/10/4
f 1604/12/4 1605/12/4 1611/12/4
f 1610/10/4 1603/10/4 1611/10/4
f 1603/12/4 1604/12/4 1611/12/4
f 1611/12/4 1605/12/4 1612/12/4
f 1612/12/4 1605/12/4 1613/12/4
f 1607/3/4 1608/3/4 1614/3/4
f 1614/3/4 1608/3/4 1615/3/4
f 1611/12/4 1612/12/4 1616/12/4
f 1616/12/4 1612/12/4 1617/12/4
f 1616/12/4 1617/12/4 1622/12/4
f 1617/12/4 1618/12/4 1622/12/4
f 1619/10/4 1620/10/4 1623/10/4
f 1620/12/4 1621/12/4 1624/12/4
f 1623/10/4 1620/10/4 1624/10/4
f 1621/12/4 1622/12/4 1624/12/4
f 1622/12/4 1618/12/4 1625/12/4
f 1624/12/4 1622/12/4 1625/12/4
f 1625/12/4 1618/12/4 1626/12/4
f 1614/2/4 1615/2/4 1628/2/4
f 1628/2/4 1615/2/4 1629/2/4
f 1623/5/4 1624/5/4 1630/5/4
f 1624/12/4 1625/12/4 1631/12/4
f 1630/5/4 1624/5/4 1631/5/4
f 1631/12/4 1625/12/4 1632/12/4
f 1632/12/4 1625/12/4 1633/12/4
f 1595/6/4 1596/6/4 1634/6/4
f 1634/6/4 1596/6/4 1635/6/4
f 1631/5/4 1632/5/4 1639/5/4
f 1632/1/4 1633/1/4 1640/1/4
f 1639/5/4 1632/5/4 1640/5/4
f 1640/1/4 1633/1/4 1641/1/4
f 1635/7/4 1636/7/4 1642/7/4
f 1642/7/4 1636/7/4 1643/7/4
f 1637/6/4 1638/6/4 1644/6/4
f 1644/6/4 1638/6/4 1645/6/4
f 1627/2/4 1628/2/4 1646/2/4
f 1646/2/4 1628/2/4 1647/2/4
f 1646/1/4 1647/1/4 1648/1/4
f 1648/1/4 1647/1/4 1649/1/4
f 1650/1/4 1651/1/4 1654/1/4
f 1654/1/4 1651/1/4 1655/1/4
f 1652/9/4 1653/9/4 1657/9/4
f 1657/9/4 1653/9/4 1658/9/4
f 1654/4/4 1655/4/4 1659/4/4
f 1659/4/4 1655/4/4 1660/4/4
f 1659/3/4 1660/3/4 1661/3/4
f 1661/3/4 1660/3/4 1662/3/4
f 1657/6/4 1658/6/4 1666/6/4
f 1656/6/4 1657/6/4 1666/6/4
f 1666/6/4 1658/6/4 1667/6/4
f 1662/3/4 1663/3/4 1668/3/4
f 1668/3/4 1663/3/4 1669/3/4
f 1664/10/4 1665/10/4 1670/10/4
f 1670/10/4 1665/10/4 1671/10/4
f 1664/10/4 1670/10/4 1672/10/4
f 1670/12/4 1671/12/4 1673/12/4
f 1672/10/4 1670/10/4 1673/10/4
f 1673/12/4 1671/12/4 1674/12/4
f 1656/6/4 1666/6/4 1675/6/4
f 1668/2/4 1669/2/4 1678/2/4
f 1678/2/4 1669/2/4 1679/2/4
f 1675/6/4 1676/6/4 1680/6/4
f 1656/6/4 1675/6/4 1680/6/4
f 1680/6/4 1676/6/4 1681/6/4
f 1681/6/4 1676/6/4 1682/6/4
f 1677/2/4 1678/2/4 1683/2/4
f 1681/9/4 1682/9/4 1684/9/4
f 1684/9/4 1682/9/4 1685/9/4
f 1683/2/4 1678/2/4 1686/2/4
f 1686/2/4 1678/2/4 1687/2/4
f 1686/1/4 1687/1/4 1688/1/4
f 1688/1/4 1687/1/4 1689/1/4
f 1690/8/4 1691/8/4 1692/8/4
f 1692/8/4 1691/8/4 1693/8/4
f 1693/4/4 1694/4/4 1696/4/4
f 1696/4/4 1694/4/4 1697/4/4
f 1695/4/4 1696/4/4 1698/4/4
f 1698/4/4 1696/4/4 1699/4/4
f 1702/4/4 1703/4/4 1704/4/4
f 1704/4/4 1703/4/4 1705/4/4
f 1700/3/4 1701/3/4 1708/3/4
f 1708/3/4 1701/3/4 1709/3/4
f 1706/4/4 1707/4/4 1710/4/4
f 1710/4/4 1707/4/4 1711/4/4
f 1711/1/4 1712/1/4 1714/1/4
f 1714/1/4 1712/1/4 1715/1/4
f 1713/8/4 1714/8/4 1716/8/4
f 1716/8/4 1714/8/4 1717/8/4
f 1718/3/4 1719/3/4 1721/3/4
f 1720/4/4 1721/4/4 1722/4/4
f 1721/3/4 1719/3/4 1723/3/4
f 1722/4/4 1721/4/4 1723/4/4
f 1723/3/4 1719/3/4 1724/3/4
f 1724/3/4 1719/3/4 1725/3/4
f 1730/15/5 1727/15/5 1726/15/5
f 1731/15/5 1729/15/5 1728/15/5
f 1732/15/5 1730/15/5 1726/15/5
f 1732/15/5 1731/15/5 1730/15/5
f 1733/15/5 1731/15/5 1732/15/5
f 1734/15/5 1729/15/5 1731/15/5
f 1734/15/5 1731/15/5 1733/15/5
f 1735/15/5 1729/15/5 1734/15/5
f 1736/15/5 1734/15/5 1733/15/5
f 1737/15/5 1734/15/5 1736/15/5
f 1742/10/5 1739/10/5 1738/10/5
f 1743/11/5 1740/11/5 1739/11/5
f 1743/10/5 1739/10/5 1742/10/5
f 1744/10/5 1741/10/5 1740/10/5
f 1744/11/5 1740/11/5 1743/11/5
f 1745/10/5 1741/10/5 1744/10/5
f 1756/5/5 1747/5/5 1746/5/5
f 1756/5/5 1748/5/5 1747/5/5
f 1757/5/5 1748/5/5 1756/5/5
f 1758/11/5 1749/11/5 1748/11/5
f 1758/5/5 1748/5/5 1757/5/5
f 1759/10/5 1750/10/5 1749/10/5
f 1759/11/5 1749/11/5 1758/11/5
f 1760/11/5 1751/11/5 1750/11/5
f 1760/10/5 1750/10/5 1759/10/5
f 1761/10/5 1752/10/5 1751/10/5
f 1761/11/5 1751/11/5 1760/11/5
f 1762/11/5 1753/11/5 1752/11/5
f 1762/10/5 1752/10/5 1761/10/5
f 1763/5/5 1755/5/5 1754/5/5
f 1763/11/5 1753/11/5 1762/11/5
f 1763/5/5 1754/5/5 1753/5/5
f 1764/5/5 1755/5/5 1763/5/5
f 1765/5/5 1755/5/5 1764/5/5
f 1766/5/5 1758/5/5 1757/5/5
f 1767/10/5 1759/10/5 1758/10/5
f 1767/5/5 1758/5/5 1766/5/5
f 1768/10/5 1759/10/5 1767/10/5
f 1769/10/5 1763/10/5 1762/10/5
f 1770/5/5 1764/5/5 1763/5/5
f 1770/10/5 1763/10/5 1769/10/5
f 1771/5/5 1764/5/5 1770/5/5
f 1776/10/5 1773/10/5 1772/10/5
f 1777/10/5 1773/10/5 1776/10/5
f 1781/12/5 1775/12/5 1774/12/5
f 1782/12/5 1775/12/5 1781/12/5
f 1783/10/5 1779/10/5 1778/10/5
f 1784/10/5 1779/10/5 1783/10/5
f 1786/12/5 1781/12/5 1780/12/5
f 1787/10/5 1785/10/5 1784/10/5
f 1788/10/5 1785/10/5 1787/10/5
f 1789/12/5 1786/12/5 1780/12/5
f 1790/12/5 1786/12/5 1789/12/5
f 1791/12/5 1788/12/5 1787/12/5
f 1792/12/5 1788/12/5 1791/12/5
f 1794/5/5 1790/5/5 1789/5/5
f 1795/5/5 1790/5/5 1794/5/5
f 1796/5/5 1792/5/5 1791/5/5
f 1797/5/5 1792/5/5 1796/5/5
f 1800/6/5 1794/6/5 1793/6/5
f 1801/6/5 1794/6/5 1800/6/5
f 1802/6/5 1798/6/5 1797/6/5
f 1803/6/5 1798/6/5 1802/6/5
f 1805/6/5 1800/6/5 1799/6/5
f 1806/6/5 1800/6/5 1805/6/5
f 1813/6/5 1804/6/5 1803/6/5
f 1814/6/5 1804/6/5 1813/6/5
f 1815/5/5 1807/5/5 1806/5/5
f 1816/5/5 1807/5/5 1815/5/5
f 1817/11/5 1811/11/5 1810/11/5
f 1817/11/5 1809/11/5 1808/11/5
f 1817/11/5 1810/11/5 1809/11/5
f 1818/11/5 1811/11/5 1817/11/5
f 1819/5/5 1813/5/5 1812/5/5
f 1820/5/5 1813/5/5 1819/5/5
f 1821/10/5 1818/10/5 1817/10/5
f 1822/10/5 1818/10/5 1821/10/5
f 1827/11/5 1824/11/5 1823/11/5
f 1827/11/5 1826/11/5 1825/11/5
f 1827/11/5 1825/11/5 1824/11/5
f 1828/11/5 1826/11/5 1827/11/5
f 1833/2/5 1830/2/5 1829/2/5
f 1834/2/5 1830/2/5 1833/2/5
f 1837/2/5 1832/2/5 1831/2/5
f 1838/2/5 1832/2/5 1837/2/5
f 1839/11/5 1835/11/5 1834/11/5
f 1840/4/5 1836/4/5 1835/4/5
f 1840/11/5 1835/11/5 1839/11/5
f 1841/11/5 1837/11/5 1836/11/5
f 1841/4/5 1836/4/5 1840/4/5
f 1842/11/5 1837/11/5 1841/11/5
f 1845/7/5 1844/7/5 1843/7/5
f 1846/7/5 1844/7/5 1845/7/5
f 1847/7/5 1844/7/5 1846/7/5
f 1850/6/5 1849/6/5 1848/6/5
f 1851/6/5 1849/6/5 1850/6/5
f 1856/9/5 1853/9/5 1852/9/5
f 1857/9/5 1853/9/5 1856/9/5
f 1858/9/5 1855/9/5 1854/9/5
f 1859/9/5 1855/9/5 1858/9/5
f 1860/7/5 1857/7/5 1856/7/5
f 1861/7/5 1857/7/5 1860/7/5
f 1864/7/5 1859/7/5 1858/7/5
f 1865/7/5 1859/7/5 1864/7/5
f 1866/6/5 1863/6/5 1862/6/5
f 1866/6/5 1861/6/5 1860/6/5
f 1866/6/5 1865/6/5 1864/6/5
f 1866/6/5 1864/6/5 1863/6/5
f 1866/6/5 1862/6/5 1861/6/5
f 1867/6/5 1865/6/5 1866/6/5
f 1870/9/5 1869/9/5 1868/9/5
f 1871/9/5 1869/9/5 1870/9/5
f 1873/9/5 1870/9/5 1868/9/5
f 1874/9/5 1870/9/5 1873/9/5
f 1875/9/5 1869/9/5 1871/9/5
f 1876/9/5 1869/9/5 1875/9/5
f 1879/6/5 1873/6/5 1872/6/5
f 1880/6/5 1873/6/5 1879/6/5
f 1883/6/5 1877/6/5 1876/6/5
f 1884/6/5 1877/6/5 1883/6/5
f 1886/9/5 1881/9/5 1880/9/5
f 1887/9/5 1881/9/5 1886/9/5
f 1888/9/5 1883/9/5 1882/9/5
f 1889/9/5 1883/9/5 1888/9/5
f 1890/6/5 1879/6/5 1878/6/5
f 1891/6/5 1885/6/5 1884/6/5
f 1892/6/5 1890/6/5 1878/6/5
f 1893/6/5 1890/6/5 1892/6/5
f 1894/6/5 1885/6/5 1891/6/5
f 1895/6/5 1885/6/5 1894/6/5
f 1900/9/5 1897/9/5 1896/9/5
f 1901/9/5 1897/9/5 1900/9/5
f 1902/9/5 1899/9/5 1898/9/5
f 1903/9/5 1899/9/5 1902/9/5
f 1904/7/5 1901/7/5 1900/7/5
f 1905/7/5 1901/7/5 1904/7/5
f 1906/7/5 1903/7/5 1902/7/5
f 1907/7/5 1903/7/5 1906/7/5
f 1908/6/5 1906/6/5 1905/6/5
f 1909/6/5 1906/6/5 1908/6/5
f 1914/9/5 1911/9/5 1910/9/5
f 1915/9/5 1911/9/5 1914/9/5
f 1918/9/5 1913/9/5 1912/9/5
f 1919/9/5 1913/9/5 1918/9/5
f 1920/9/5 1917/9/5 1916/9/5
f 1921/9/5 1917/9/5 1920/9/5
f 1928/14/5 1923/14/5 1922/14/5
f 1929/9/5 1924/9/5 1923/9/5
f 1929/14/5 1923/14/5 1928/14/5
f 1930/9/5 1924/9/5 1929/9/5
f 1933/9/5 1926/9/5 1925/9/5
f 1934/14/5 1927/14/5 1926/14/5
f 1934/9/5 1926/9/5 1933/9/5
f 1935/14/5 1927/14/5 1934/14/5
f 1936/8/5 1929/8/5 1928/8/5
f 1937/8/5 1929/8/5 1936/8/5
f 1938/4/5 1932/4/5 1931/4/5
f 1939/4/5 1932/4/5 1938/4/5
f 1940/8/5 1935/8/5 1934/8/5
f 1941/8/5 1935/8/5 1940/8/5
f 1946/7/5 1943/7/5 1942/7/5
f 1947/7/5 1943/7/5 1946/7/5
f 1948/7/5 1945/7/5 1944/7/5
f 1949/7/5 1945/7/5 1948/7/5
f 1954/6/5 1951/6/5 1950/6/5
f 1955/6/5 1951/6/5 1954/6/5
f 1956/6/5 1953/6/5 1952/6/5
f 1957/6/5 1953/6/5 1956/6/5
f 1962/4/5 1959/4/5 1958/4/5
f 1963/4/5 1959/4/5 1962/4/5
f 1964/4/5 1959/4/5 1963/4/5
f 1965/4/5 1961/4/5 1960/4/5
f 1966/4/5 1961/4/5 1965/4/5
f 1967/4/5 1961/4/5 1966/4/5
f 1968/4/5 1964/4/5 1963/4/5
f 1968/4/5 1966/4/5 1965/4/5
f 1968/4/5 1965/4/5 1964/4/5
f 1969/4/5 1966/4/5 1968/4/5
f 1974/6/5 1971/6/5 1970/6/5
f 1975/6/5 1971/6/5 1974/6/5
f 1976/6/5 1973/6/5 1972/6/5
f 1977/6/5 1973/6/5 1976/6/5
f 1982/6/5 1979/6/5 1978/6/5
f 1983/6/5 1979/6/5 1982/6/5
f 1984/6/5 1981/6/5 1980/6/5
f 1985/6/5 1981/6/5 1984/6/5
f 1986/4/5 1983/4/5 1982/4/5
f 1987/4/5 1983/4/5 1986/4/5
f 1990/1/5 1985/1/5 1984/1/5
f 1991/1/5 1985/1/5 1990/1/5
f 1992/3/5 1988/3/5 1987/3/5
f 1993/3/5 1988/3/5 1992/3/5
f 1994/3/5 1990/3/5 1989/3/5
f 1995/3/5 1990/3/5 1994/3/5
f 1999/6/5 1997/6/5 1996/6/5
f 2000/6/5 1997/6/5 1999/6/5
f 2002/6/5 1999/6/5 1998/6/5
f 2002/6/5 2001/6/5 2000/6/5
f 2002/6/5 2000/6/5 1999/6/5
f 2003/6/5 2001/6/5 2002/6/5
f 2005/6/5 2002/6/5 1998/6/5
f 2006/6/5 2002/6/5 2005/6/5
f 2007/6/5 2002/6/5 2006/6/5
f 2008/6/5 2001/6/5 2003/6/5
f 2009/6/5 2001/6/5 2008/6/5
f 2010/6/5 2001/6/5 2009/6/5
f 2012/6/5 2005/6/5 2004/6/5
f 2012/6/5 2006/6/5 2005/6/5
f 2013/6/5 2006/6/5 2012/6/5
f 2014/6/5 2008/6/5 2007/6/5
f 2015/6/5 2008/6/5 2014/6/5
f 2016/6/5 2011/6/5 2010/6/5
f 2016/6/5 2010/6/5 2009/6/5
f 2017/6/5 2011/6/5 2016/6/5
f 2018/6/5 2012/6/5 2004/6/5
f 2019/6/5 2012/6/5 2018/6/5
f 2020/6/5 2011/6/5 2017/6/5
f 2021/6/5 2011/6/5 2020/6/5
f 2030/3/5 2023/3/5 2022/3/5
f 2033/3/5 2025/3/5 2024/3/5
f 2034/3/5 2025/3/5 2033/3/5
f 2035/4/5 2029/4/5 2028/4/5
f 2036/4/5 2029/4/5 2035/4/5
f 2037/1/5 2027/1/5 2026/1/5
f 2038/1/5 2027/1/5 2037/1/5
f 2039/3/5 2031/3/5 2030/3/5
f 2039/3/5 2030/3/5 2022/3/5
f 2040/3/5 2031/3/5 2039/3/5
f 2041/2/5 2034/2/5 2033/2/5
f 2041/2/5 2033/2/5 2032/2/5
f 2042/2/5 2034/2/5 2041/2/5
f 2043/1/5 2036/1/5 2035/1/5
f 2044/1/5 2036/1/5 2043/1/5
f 2049/6/5 2046/6/5 2045/6/5
f 2050/6/5 2046/6/5 2049/6/5
f 2051/6/5 2048/6/5 2047/6/5
f 2052/6/5 2048/6/5 2051/6/5
f 2057/3/5 2054/3/5 2053/3/5
f 2060/3/5 2056/3/5 2055/3/5
f 2061/3/5 2058/3/5 2057/3/5
f 2061/3/5 2057/3/5 2053/3/5
f 2062/3/5 2058/3/5 2061/3/5
f 2063/3/5 2058/3/5 2062/3/5
f 2064/3/5 2060/3/5 2059/3/5
f 2065/3/5 2056/3/5 2060/3/5
f 2065/3/5 2060/3/5 2064/3/5
f 2066/3/5 2056/3/5 2065/3/5
f 2067/3/5 2063/3/5 2062/3/5
f 2068/2/5 2064/2/5 2063/2/5
f 2068/3/5 2063/3/5 2067/3/5
f 2068/2/5 2065/2/5 2064/2/5
f 2069/2/5 2065/2/5 2068/2/5
f 2075/4/5 2071/4/5 2070/4/5
f 2076/4/5 2071/4/5 2075/4/5
f 2077/4/5 2073/4/5 2072/4/5
f 2078/4/5 2073/4/5 2077/4/5
f 2080/4/5 2075/4/5 2074/4/5
f 2083/4/5 2079/4/5 2078/4/5
f 2084/4/5 2081/4/5 2080/4/5
f 2084/4/5 2080/4/5 2074/4/5
f 2085/4/5 2081/4/5 2084/4/5
f 2086/4/5 2081/4/5 2085/4/5
f 2087/4/5 2083/4/5 2082/4/5
f 2088/4/5 2079/4/5 2083/4/5
f 2088/4/5 2083/4/5 2087/4/5
f 2089/4/5 2079/4/5 2088/4/5
f 2090/3/5 2086/3/5 2085/3/5
f 2091/2/5 2087/2/5 2086/2/5
f 2091/3/5 2086/3/5 2090/3/5
f 2091/2/5 2088/2/5 2087/2/5
f 2092/2/5 2088/2/5 2091/2/5
f 2093/2/5 2088/2/5 2092/2/5
f 2094/2/5 2092/2/5 2091/2/5
f 2095/2/5 2092/2/5 2094/2/5
f 2099/4/5 2097/4/5 2096/4/5
f 2100/4/5 2097/4/5 2099/4/5
f 2102/4/5 2099/4/5 2098/4/5
f 2102/4/5 2101/4/5 2100/4/5
f 2102/4/5 2100/4/5 2099/4/5
f 2103/4/5 2101/4/5 2102/4/5
f 2104/4/5 2101/4/5 2103/4/5
f 2105/4/5 2101/4/5 2104/4/5
f 2106/2/5 2104/2/5 2103/2/5
f 2107/2/5 2104/2/5 2106/2/5
f 2108/15/6 2109/15/6 2114/15/6
f 2114/15/6 2109/15/6 2115/15/6
f 2110/15/6 2111/15/6 2116/15/6
f 2116/15/6 2111/15/6 2117/15/6
f 2112/15/6 2113/15/6 2120/15/6
f 2120/15/6 2113/15/6 2121/15/6
f 2118/15/6 2119/15/6 2122/15/6
f 2122/15/6 2119/15/6 2123/15/6
f 2124/14/6 2125/14/6 2130/14/6
f 2125/13/6 2126/13/6 2131/13/6
f 2130/14/6 2125/14/6 2131/14/6
f 2131/13/6 2126/13/6 2132/13/6
f 2127/13/6 2128/13/6 2133/13/6
f 2128/14/6 2129/14/6 2134/14/6
f 2133/13/6 2128/13/6 2134/13/6
f 2134/14/6 2129/14/6 2135/14/6
f 2136/14/6 2137/14/6 2140/14/6
f 2140/14/6 2137/14/6 2141/14/6
f 2138/14/6 2139/14/6 2142/14/6
f 2142/14/6 2139/14/6 2143/14/6
f 2140/13/6 2141/13/6 2144/13/6
f 2144/13/6 2141/13/6 2145/13/6
f 2142/13/6 2143/13/6 2146/13/6
f 2146/13/6 2143/13/6 2147/13/6
f 2148/10/6 2149/10/6 2152/10/6
f 2149/17/6 2150/17/6 2153/17/6
f 2152/10/6 2149/10/6 2153/10/6
f 2150/10/6 2151/10/6 2154/10/6
f 2153/17/6 2150/17/6 2154/17/6
f 2154/10/6 2151/10/6 2155/10/6
f 2152/17/6 2153/17/6 2156/17/6
f 2153/17/6 2154/17/6 2156/17/6
f 2154/17/6 2155/17/6 2156/17/6
f 2156/17/6 2155/17/6 2157/17/6
f 2158/5/6 2159/5/6 2164/5/6
f 2164/5/6 2159/5/6 2165/5/6
f 2160/5/6 2161/5/6 2166/5/6
f 2166/5/6 2161/5/6 2167/5/6
f 2162/5/6 2163/5/6 2170/5/6
f 2170/5/6 2163/5/6 2171/5/6
f 2165/11/6 2166/11/6 2172/11/6
f 2172/11/6 2166/11/6 2173/11/6
f 2168/5/6 2169/5/6 2174/5/6
f 2174/5/6 2169/5/6 2175/5/6
f 2176/10/6 2177/10/6 2179/10/6
f 2177/12/6 2178/12/6 2180/12/6
f 2179/10/6 2177/10/6 2180/10/6
f 2180/12/6 2178/12/6 2181/12/6
f 2182/12/6 2183/12/6 2184/12/6
f 2184/12/6 2183/12/6 2185/12/6
f 2184/3/6 2185/3/6 2186/3/6
f 2186/3/6 2185/3/6 2187/3/6
f 2187/3/6 2185/3/6 2188/3/6
f 2189/5/6 2190/5/6 2193/5/6
f 2193/5/6 2190/5/6 2194/5/6
f 2191/5/6 2192/5/6 2195/5/6
f 2195/5/6 2192/5/6 2196/5/6
f 2193/2/6 2194/2/6 2197/2/6
f 2197/2/6 2194/2/6 2198/2/6
f 2195/2/6 2196/2/6 2203/2/6
f 2203/2/6 2196/2/6 2204/2/6
f 2197/1/6 2198/1/6 2205/1/6
f 2198/10/6 2199/10/6 2206/10/6
f 2205/1/6 2198/1/6 2206/1/6
f 2206/10/6 2199/10/6 2207/10/6
f 2200/12/6 2201/12/6 2208/12/6
f 2208/12/6 2201/12/6 2209/12/6
f 2202/12/6 2203/12/6 2210/12/6
f 2203/1/6 2204/1/6 2211/1/6
f 2210/12/6 2203/12/6 2211/12/6
f 2211/1/6 2204/1/6 2212/1/6
f 2213/12/6 2214/12/6 2218/12/6
f 2218/12/6 2214/12/6 2219/12/6
f 2215/12/6 2216/12/6 2223/12/6
f 2223/12/6 2216/12/6 2224/12/6
f 2217/3/6 2218/3/6 2226/3/6
f 2226/3/6 2218/3/6 2227/3/6
f 2219/11/6 2220/11/6 2228/11/6
f 2220/2/6 2221/2/6 2228/2/6
f 2221/3/6 2222/3/6 2229/3/6
f 2228/2/6 2221/2/6 2229/2/6
f 2222/11/6 2223/11/6 2230/11/6
f 2229/3/6 2222/3/6 2230/3/6
f 2224/4/6 2225/4/6 2231/4/6
f 2231/4/6 2225/4/6 2232/4/6
f 2226/12/6 2227/12/6 2233/12/6
f 2233/12/6 2227/12/6 2234/12/6
f 2231/12/6 2232/12/6 2235/12/6
f 2235/12/6 2232/12/6 2236/12/6
f 2233/4/6 2234/4/6 2237/4/6
f 2237/4/6 2234/4/6 2238/4/6
f 2235/4/6 2236/4/6 2239/4/6
f 2239/4/6 2236/4/6 2240/4/6
f 2237/2/6 2238/2/6 2241/2/6
f 2241/2/6 2238/2/6 2242/2/6
f 2219/11/6 2228/11/6 2243/11/6
f 2228/11/6 2229/11/6 2243/11/6
f 2229/11/6 2230/11/6 2243/11/6
f 2230/11/6 2223/11/6 2244/11/6
f 2243/11/6 2230/11/6 2244/11/6
f 2239/2/6 2240/2/6 2245/2/6
f 2245/2/6 2240/2/6 2246/2/6
f 2241/1/6 2242/1/6 2247/1/6
f 2242/11/6 2243/11/6 2248/11/6
f 2247/1/6 2242/1/6 2248/1/6
f 2248/11/6 2243/11/6 2249/11/6
f 2244/11/6 2245/11/6 2252/11/6
f 2245/1/6 2246/1/6 2253/1/6
f 2252/11/6 2245/11/6 2253/11/6
f 2253/1/6 2246/1/6 2254/1/6
f 2249/12/6 2250/12/6 2255/12/6
f 2248/12/6 2249/12/6 2255/12/6
f 2255/12/6 2250/12/6 2256/12/6
f 2251/12/6 2252/12/6 2257/12/6
f 2252/12/6 2253/12/6 2257/12/6
f 2257/12/6 2253/12/6 2258/12/6
f 2259/7/6 2260/7/6 2263/7/6
f 2263/7/6 2260/7/6 2264/7/6
f 2261/7/6 2262/7/6 2265/7/6
f 2265/7/6 2262/7/6 2266/7/6
f 2264/6/6 2265/6/6 2267/6/6
f 2267/6/6 2265/6/6 2268/6/6
f 2269/6/6 2270/6/6 2273/6/6
f 2273/6/6 2270/6/6 2274/6/6
f 2271/6/6 2272/6/6 2275/6/6
f 2275/6/6 2272/6/6 2276/6/6
f 2273/9/6 2274/9/6 2277/9/6
f 2277/9/6 2274/9/6 2278/9/6
f 2275/9/6 2276/9/6 2279/9/6
f 2279/9/6 2276/9/6 2280/9/6
f 2281/6/6 2282/6/6 2286/6/6
f 2286/6/6 2282/6/6 2287/6/6
f 2283/6/6 2284/6/6 2288/6/6
f 2288/6/6 2284/6/6 2289/6/6
f 2285/6/6 2286/6/6 2291/6/6
f 2291/6/6 2286/6/6 2292/6/6
f 2289/6/6 2290/6/6 2293/6/6
f 2293/6/6 2290/6/6 2294/6/6
f 2295/9/6 2296/9/6 2299/9/6
f 2299/9/6 2296/9/6 2300/9/6
f 2297/9/6 2298/9/6 2303/9/6
f 2303/9/6 2298/9/6 2304/9/6
f 2299/7/6 2300/7/6 2305/7/6
f 2305/7/6 2300/7/6 2306/7/6
f 2301/6/6 2302/6/6 2307/6/6
f 2307/6/6 2302/6/6 2308/6/6
f 2308/6/6 2302/6/6 2309/6/6
f 2309/6/6 2302/6/6 2310/6/6
f 2303/7/6 2304/7/6 2311/7/6
f 2311/7/6 2304/7/6 2312/7/6
f 2313/8/6 2314/8/6 2315/8/6
f 2315/8/6 2314/8/6 2316/8/6
f 2316/8/6 2314/8/6 2317/8/6
f 2317/8/6 2314/8/6 2318/8/6
f 2315/9/6 2316/9/6 2320/9/6
f 2320/9/6 2316/9/6 2321/9/6
f 2317/9/6 2318/9/6 2322/9/6
f 2322/9/6 2318/9/6 2323/9/6
f 2319/9/6 2320/9/6 2325/9/6
f 2325/9/6 2320/9/6 2326/9/6
f 2321/9/6 2322/9/6 2327/9/6
f 2327/9/6 2322/9/6 2328/9/6
f 2323/9/6 2324/9/6 2329/9/6
f 2329/9/6 2324/9/6 2330/9/6
f 2331/9/6 2332/9/6 2337/9/6
f 2337/9/6 2332/9/6 2338/9/6
f 2333/4/6 2334/4/6 2339/4/6
f 2339/4/6 2334/4/6 2340/4/6
f 2335/9/6 2336/9/6 2341/9/6
f 2341/9/6 2336/9/6 2342/9/6
f 2343/7/6 2344/7/6 2348/7/6
f 2348/7/6 2344/7/6 2349/7/6
f 2345/7/6 2346/7/6 2350/7/6
f 2350/7/6 2346/7/6 2351/7/6
f 2347/7/6 2348/7/6 2353/7/6
f 2353/7/6 2348/7/6 2354/7/6
f 2351/7/6 2352/7/6 2355/7/6
f 2355/7/6 2352/7/6 2356/7/6
f 2353/4/6 2354/4/6 2359/4/6
f 2355/4/6 2356/4/6 2362/4/6
f 2357/14/6 2358/14/6 2365/14/6
f 2365/14/6 2358/14/6 2366/14/6
f 2359/4/6 2360/4/6 2367/4/6
f 2353/4/6 2359/4/6 2367/4/6
f 2367/4/6 2360/4/6 2368/4/6
f 2361/4/6 2362/4/6 2369/4/6
f 2362/4/6 2356/4/6 2370/4/6
f 2369/4/6 2362/4/6 2370/4/6
f 2363/14/6 2364/14/6 2371/14/6
f 2371/14/6 2364/14/6 2372/14/6
f 2365/8/6 2366/8/6 2373/8/6
f 2373/8/6 2366/8/6 2374/8/6
f 2371/8/6 2372/8/6 2375/8/6
f 2375/8/6 2372/8/6 2376/8/6
f 2377/7/6 2378/7/6 2383/7/6
f 2383/7/6 2378/7/6 2384/7/6
f 2379/7/6 2380/7/6 2385/7/6
f 2385/7/6 2380/7/6 2386/7/6
f 2381/6/6 2382/6/6 2389/6/6
f 2389/6/6 2382/6/6 2390/6/6
f 2387/6/6 2388/6/6 2391/6/6
f 2391/6/6 2388/6/6 2392/6/6
f 2393/4/6 2394/4/6 2399/4/6
f 2394/3/6 2395/3/6 2400/3/6
f 2399/4/6 2394/4/6 2400/4/6
f 2400/3/6 2395/3/6 2401/3/6
f 2396/3/6 2397/3/6 2402/3/6
f 2397/1/6 2398/1/6 2403/1/6
f 2402/3/6 2397/3/6 2403/3/6
f 2403/1/6 2398/1/6 2404/1/6
f 2401/3/6 2402/3/6 2405/3/6
f 2400/3/6 2401/3/6 2405/3/6
f 2402/3/6 2403/3/6 2405/3/6
f 2405/3/6 2403/3/6 2406/3/6
f 2407/6/6 2408/6/6 2410/6/6
f 2410/6/6 2408/6/6 2411/6/6
f 2411/6/6 2408/6/6 2412/6/6
f 2412/6/6 2408/6/6 2413/6/6
f 2409/6/6 2410/6/6 2415/6/6
f 2410/6/6 2411/6/6 2415/6/6
f 2415/6/6 2411/6/6 2416/6/6
f 2413/6/6 2414/6/6 2417/6/6
f 2412/6/6 2413/6/6 2417/6/6
f 2417/6/6 2414/6/6 2418/6/6
f 2409/6/6 2415/6/6 2420/6/6
f 2420/6/6 2415/6/6 2421/6/6
f 2418/6/6 2414/6/6 2422/6/6
f 2422/6/6 2414/6/6 2423/6/6
f 2419/6/6 2420/6/6 2425/6/6
f 2425/6/6 2420/6/6 2426/6/6
f 2423/6/6 2424/6/6 2427/6/6
f 2427/6/6 2424/6/6 2428/6/6
f 2429/1/6 2430/1/6 2436/1/6
f 2430/4/6 2431/4/6 2437/4/6
f 2436/1/6 2430/1/6 2437/1/6
f 2431/3/6 2432/3/6 2438/3/6
f 2437/4/6 2431/4/6 2438/4/6
f 2438/3/6 2432/3/6 2439/3/6
f 2433/2/6 2434/2/6 2441/2/6
f 2434/1/6 2435/1/6 2442/1/6
f 2441/2/6 2434/2/6 2442/2/6
f 2442/1/6 2435/1/6 2443/1/6
f 2440/3/6 2441/3/6 2444/3/6
f 2439/3/6 2440/3/6 2444/3/6
f 2444/3/6 2441/3/6 2445/3/6
f 2446/6/6 2447/6/6 2449/6/6
f 2449/6/6 2447/6/6 2450/6/6
f 2448/6/6 2449/6/6 2453/6/6
f 2453/6/6 2449/6/6 2454/6/6
f 2450/6/6 2451/6/6 2455/6/6
f 2455/6/6 2451/6/6 2456/6/6
f 2452/6/6 2453/6/6 2458/6/6
f 2458/6/6 2453/6/6 2459/6/6
f 2456/6/6 2457/6/6 2460/6/6
f 2460/6/6 2457/6/6 2461/6/6
f 2462/1/6 2463/1/6 2470/1/6
f 2464/3/6 2465/3/6 2471/3/6
f 2470/1/6 2463/1/6 2471/1/6
f 2463/3/6 2464/3/6 2471/3/6
f 2471/3/6 2465/3/6 2472/3/6
f 2467/2/6 2468/2/6 2474/2/6
f 2466/2/6 2467/2/6 2474/2/6
f 2468/1/6 2469/1/6 2475/1/6
f 2474/2/6 2468/2/6 2475/2/6
f 2475/1/6 2469/1/6 2476/1/6
f 2472/3/6 2473/3/6 2477/3/6
f 2473/2/6 2474/2/6 2478/2/6
f 2477/3/6 2473/3/6 2478/3/6
f 2478/2/6 2474/2/6 2479/2/6
f 2480/5/6 2481/5/6 2483/5/6
f 2483/5/6 2481/5/6 2484/5/6
f 2482/5/6 2483/5/6 2487/5/6
f 2487/5/6 2483/5/6 2488/5/6
f 2484/5/6 2485/5/6 2489/5/6
f 2489/5/6 2485/5/6 2490/5/6
f 2486/3/6 2487/3/6 2493/3/6
f 2493/3/6 2487/3/6 2494/3/6
f 2490/3/6 2491/3/6 2495/3/6
f 2495/3/6 2491/3/6 2496/3/6
f 2492/2/6 2493/2/6 2498/2/6
f 2498/2/6 2493/2/6 2499/2/6
f 2496/1/6 2497/1/6 2500/1/6
f 2500/1/6 2497/1/6 2501/1/6
f 2502/1/6 2503/1/6 2508/1/6
f 2503/3/6 2504/3/6 2509/3/6
f 2508/1/6 2503/1/6 2509/1/6
f 2509/3/6 2504/3/6 2510/3/6
f 2505/2/6 2506/2/6 2512/2/6
f 2506/1/6 2507/1/6 2513/1/6
f 2512/2/6 2506/2/6 2513/2/6
f 2513/1/6 2507/1/6 2514/1/6
f 2510/3/6 2511/3/6 2515/3/6
f 2511/2/6 2512/2/6 2516/2/6
f 2515/3/6 2511/3/6 2516/3/6
f 2516/2/6 2512/2/6 2517/2/6
f 2518/5/6 2519/5/6 2520/5/6
f 2520/5/6 2519/5/6 2521/5/6
f 2522/1/6 2523/1/6 2527/1/6
f 2527/1/6 2523/1/6 2528/1/6
f 2524/1/6 2525/1/6 2530/1/6
f 2530/1/6 2525/1/6 2531/1/6
f 2526/1/6 2527/1/6 2533/1/6
f 2528/3/6 2529/3/6 2534/3/6
f 2533/1/6 2527/1/6 2534/1/6
f 2527/3/6 2528/3/6 2534/3/6
f 2531/1/6 2532/1/6 2535/1/6
f 2530/2/6 2531/2/6 2535/2/6
f 2529/2/6 2530/2/6 2535/2/6
f 2535/1/6 2532/1/6 2536/1/6
f 2534/3/6 2529/3/6 2537/3/6
f 2529/2/6 2535/2/6 2538/2/6
f 2537/3/6 2529/3/6 2538/3/6
f 2538/2/6 2535/2/6 2539/2/6
f 2540/1/6 2541/1/6 2543/1/6
f 2541/4/6 2542/4/6 2544/4/6
f 2543/1/6 2541/1/6 2544/1/6
f 2544/4/6 2542/4/6 2545/4/6
