#created with MagicaVoxel and VoxelOptimizer  - v:231 - f:204
o neutralWalll
mtllib neutralWalll.mtl
vn 0 1 0
vn 0 -1 0
vn -1 0 0
vn 1 0 0
vn 0 0 1
vn 0 0 -1
v -8 0 -4
v -8 0 5
v -1 0 5
v -1 0 -4
v -8 3 -4
v -8 3 5
v -1 3 5
v -1 3 -4
v -7 0 -5
v -7 0 -4
v 0 0 -4
v 0 0 -5
v -7 3 -5
v -7 3 -4
v 0 3 -4
v 0 3 -5
v -1 0 4
v 8 0 4
v 8 0 -4
v -1 16 -4
v -1 16 4
v 8 16 4
v 8 16 -4
v 0 0 4
v 0 0 5
v 7 0 5
v 7 0 4
v 0 3 4
v 0 3 5
v 7 3 5
v 7 3 4
v 1 0 -5
v 1 0 -4
v 8 0 -5
v 1 3 -5
v 1 3 -4
v 8 3 -4
v 8 3 -5
v -8 3 -5
v -8 3 4
v -7 3 4
v -8 8 -5
v -8 8 4
v -7 8 4
v -7 8 -5
v -1 3 4
v -7 16 -4
v -7 16 4
v -5 3 4
v -5 3 5
v -4 3 5
v -4 3 4
v -5 4 4
v -5 4 5
v -4 4 5
v -4 4 4
v -4 3 -5
v -4 3 -4
v -3 3 -4
v -3 3 -5
v -4 4 -5
v -4 4 -4
v -3 4 -4
v -3 4 -5
v -1 8 4
v -1 8 5
v 0 8 5
v 0 8 4
v 0 8 -5
v 0 8 -4
v 1 8 -4
v 1 8 -5
v 3 3 4
v 3 3 5
v 4 3 5
v 4 3 4
v 3 4 4
v 3 4 5
v 4 4 5
v 4 4 4
v 4 3 -5
v 4 3 -4
v 5 3 -4
v 5 3 -5
v 4 4 -5
v 4 4 -4
v 5 4 -4
v 5 4 -5
v 8 3 5
v 8 3 4
v 7 8 4
v 7 8 5
v 8 8 5
v 8 8 4
v -8 4 4
v -8 4 5
v -8 7 4
v -8 7 5
v -5 7 5
v -5 7 4
v -7 4 -5
v -7 4 -4
v -7 7 -5
v -7 7 -4
v -4 7 -4
v -4 7 -5
v -4 7 4
v -4 7 5
v 3 7 5
v 3 7 4
v -3 7 -5
v -3 7 -4
v 4 7 -4
v 4 7 -5
v 7 4 5
v 7 4 4
v 4 7 4
v 4 7 5
v 7 7 5
v 7 7 4
v 8 4 -4
v 8 4 -5
v 5 7 -5
v 5 7 -4
v 8 7 -4
v 8 7 -5
v -5 12 4
v -5 12 5
v -4 12 5
v -4 12 4
v -4 12 -5
v -4 12 -4
v -3 12 -4
v -3 12 -5
v 3 12 4
v 3 12 5
v 4 12 5
v 4 12 4
v 4 12 -5
v 4 12 -4
v 5 12 -4
v 5 12 -5
v -8 8 -4
v -8 8 5
v -1 8 -4
v -8 11 -4
v -8 11 5
v -1 11 5
v -1 11 -4
v -7 8 -4
v -7 11 -5
v -7 11 -4
v 0 11 -4
v 0 11 -5
v 0 11 4
v 0 11 5
v 7 11 5
v 7 11 4
v 8 8 -4
v 8 8 -5
v 1 11 -5
v 1 11 -4
v 8 11 -4
v 8 11 -5
v -8 11 -5
v -8 11 4
v -7 11 4
v -8 16 -5
v -8 16 4
v -7 16 -5
v -1 11 4
v -1 16 5
v 0 16 5
v 0 16 4
v 0 16 -5
v 0 16 -4
v 1 16 -4
v 1 16 -5
v 8 11 5
v 8 11 4
v 7 16 4
v 7 16 5
v 8 16 5
v -8 12 4
v -8 12 5
v -8 15 4
v -8 15 5
v -5 15 5
v -5 15 4
v -7 12 -5
v -7 12 -4
v -7 15 -5
v -7 15 -4
v -4 15 -4
v -4 15 -5
v -4 15 4
v -4 15 5
v 3 15 5
v 3 15 4
v -3 15 -5
v -3 15 -4
v 4 15 -4
v 4 15 -5
v 7 12 5
v 7 12 4
v 4 15 4
v 4 15 5
v 7 15 5
v 7 15 4
v 8 12 -4
v 8 12 -5
v 5 15 -5
v 5 15 -4
v 8 15 -4
v 8 15 -5
v -5 16 4
v -5 16 5
v -4 16 5
v -4 16 4
v -4 16 -5
v -4 16 -4
v -3 16 -4
v -3 16 -5
v 3 16 4
v 3 16 5
v 4 16 5
v 4 16 4
v 4 16 -5
v 4 16 -4
v 5 16 -4
v 5 16 -5
vt 0.0000 1.0000
vt 0.0000 0.7812
vt 0.2812 0.7812
vt 0.2812 1.0000
vt 0.5625 0.7812
vt 0.5625 1.0000
vt 0.5625 0.8438
vt 0.8438 0.8438
vt 0.8438 1.0000
vt 0.5625 0.7500
vt 0.8438 0.7500
vt 0.0000 0.6875
vt 0.2812 0.6875
vt 0.5000 0.6875
vt 0.5000 0.7812
vt 0.5000 0.7500
vt 0.5000 0.7188
vt 0.7812 0.7188
vt 0.7812 0.7500
vt 0.8438 0.7812
vt 0.8750 0.7812
vt 0.8750 1.0000
vt 0.8438 0.5625
vt 0.8750 0.5625
vt 0.8750 0.9062
vt 0.9688 0.9062
vt 0.9688 1.0000
vt 0.8750 0.8125
vt 0.9688 0.8125
vt 1.0000 0.9062
vt 1.0000 1.0000
vt 1.0000 0.8125
vt 0.7812 0.6562
vt 0.8125 0.6562
vt 0.8125 0.7500
vt 0.8438 0.6562
vt 0.5312 0.7500
vt 0.5312 0.7812
vt 0.9062 0.7812
vt 0.9062 0.8125
usemtl x
f 5/2/1 6/3/1 7/4/1 8/1/1
f 4/3/2 3/5/2 2/6/2 1/4/2
f 4/16/6 1/37/6 5/38/6 8/15/6
f 2/13/5 3/14/5 7/15/5 6/3/5
f 1/10/3 2/11/3 6/8/3 5/7/3
f 3/12/4 4/13/4 8/3/4 7/2/4
f 13/20/1 14/21/1 15/22/1 16/9/1
f 12/23/2 11/24/2 10/21/2 9/20/2
f 12/13/6 9/14/6 13/15/6 16/3/6
f 9/26/3 10/30/3 14/31/3 13/27/3
f 11/29/4 12/32/4 16/30/4 15/26/4
f 20/16/1 21/37/1 22/38/1 23/15/1
f 19/16/2 18/37/2 17/38/2 4/15/2
f 19/16/6 4/37/6 20/38/6 23/15/6
f 17/16/5 18/37/5 22/38/5 21/15/5
f 18/16/4 19/37/4 23/38/4 22/15/4
f 28/22/1 29/9/1 30/20/1 31/21/1
f 27/21/2 26/20/2 25/23/2 24/24/2
f 25/13/5 26/14/5 30/15/5 29/3/5
f 24/29/3 25/32/3 29/30/3 28/26/3
f 26/26/4 27/30/4 31/31/4 30/27/4
f 35/20/1 36/21/1 37/22/1 38/9/1
f 34/23/2 19/24/2 33/21/2 32/20/2
f 34/13/6 32/14/6 35/15/6 38/3/6
f 32/26/3 33/30/3 36/31/3 35/27/3
f 19/29/4 34/32/4 38/30/4 37/26/4
f 42/17/1 43/18/1 44/19/1 45/16/1
f 13/17/2 41/18/2 40/19/2 39/16/2
f 13/37/6 39/10/6 42/5/6 45/38/6
f 40/16/5 41/37/5 44/38/5 43/15/5
f 39/7/3 40/8/3 43/9/3 42/6/3
f 41/8/4 13/7/4 45/6/4 44/9/4
f 47/16/1 48/37/1 21/38/1 20/15/1
f 8/16/6 14/37/6 47/38/6 20/15/6
f 41/16/5 46/37/5 21/38/5 48/15/5
f 53/37/1 54/10/1 55/5/1 56/38/1
f 50/37/5 51/10/5 55/5/5 54/38/5
f 49/37/3 50/10/3 54/5/3 53/38/3
f 51/37/4 52/10/4 56/5/4 55/38/4
f 61/37/1 62/10/1 63/5/1 64/38/1
f 60/37/6 57/10/6 61/5/6 64/38/6
f 57/37/3 58/10/3 62/5/3 61/38/3
f 59/37/4 60/10/4 64/5/4 63/38/4
f 65/37/1 66/10/1 67/5/1 68/38/1
f 28/37/2 29/10/2 7/5/2 46/38/2
f 7/37/5 29/10/5 67/5/5 66/38/5
f 46/37/3 7/10/3 66/5/3 65/38/3
f 29/37/4 28/10/4 68/5/4 67/38/4
f 69/37/1 70/10/1 71/5/1 72/38/1
f 35/37/2 36/10/2 15/5/2 16/38/2
f 35/37/6 16/10/6 69/5/6 72/38/6
f 16/37/3 15/10/3 70/5/3 69/38/3
f 36/37/4 35/10/4 72/5/4 71/38/4
f 77/37/1 78/10/1 79/5/1 80/38/1
f 74/37/5 75/10/5 79/5/5 78/38/5
f 73/37/3 74/10/3 78/5/3 77/38/3
f 75/37/4 76/10/4 80/5/4 79/38/4
f 85/37/1 86/10/1 87/5/1 88/38/1
f 84/37/6 81/10/6 85/5/6 88/38/6
f 81/37/3 82/10/3 86/5/3 85/38/3
f 83/37/4 84/10/4 88/5/4 87/38/4
f 91/37/1 92/10/1 93/5/1 94/38/1
f 90/37/2 89/10/2 30/5/2 31/38/2
f 30/37/5 89/10/5 93/5/5 92/38/5
f 31/37/3 30/10/3 92/5/3 91/38/3
f 89/37/4 90/10/4 94/5/4 93/38/4
f 97/33/1 98/34/1 99/35/1 100/19/1
f 53/34/2 54/36/2 96/11/2 95/35/2
f 96/25/5 54/26/5 99/27/5 98/22/5
f 95/29/3 96/32/3 98/30/3 97/26/3
f 54/26/4 53/30/4 100/31/4 99/27/4
f 103/21/1 104/39/1 105/40/1 106/28/1
f 61/37/2 62/10/2 102/5/2 101/38/2
f 61/28/6 101/29/6 103/26/6 106/25/6
f 62/29/4 61/32/4 106/30/4 105/26/4
f 107/22/1 108/9/1 109/20/1 110/21/1
f 77/21/2 78/20/2 55/23/2 56/24/2
f 55/13/5 78/14/5 109/15/5 108/3/5
f 56/29/3 55/32/3 108/30/3 107/26/3
f 78/26/4 77/30/4 110/31/4 109/27/4
f 111/20/1 112/21/1 113/22/1 114/9/1
f 85/23/2 86/24/2 63/21/2 64/20/2
f 85/13/6 64/14/6 111/15/6 114/3/6
f 64/26/3 63/30/3 112/31/3 111/27/3
f 86/29/4 85/32/4 114/30/4 113/26/4
f 117/21/1 118/39/1 119/40/1 120/28/1
f 116/37/2 115/10/2 79/5/2 80/38/2
f 79/28/5 115/29/5 119/26/5 118/25/5
f 80/29/3 79/32/3 118/30/3 117/26/3
f 123/35/1 124/19/1 125/33/1 126/34/1
f 122/11/2 121/35/2 87/34/2 88/36/2
f 122/25/6 88/26/6 123/27/6 126/22/6
f 88/26/3 87/30/3 124/31/3 123/27/3
f 121/29/4 122/32/4 126/30/4 125/26/4
f 127/37/1 128/10/1 129/5/1 130/38/1
f 107/37/2 108/10/2 99/5/2 100/38/2
f 99/37/5 108/10/5 129/5/5 128/38/5
f 100/37/3 99/10/3 128/5/3 127/38/3
f 108/37/4 107/10/4 130/5/4 129/38/4
f 131/37/1 132/10/1 133/5/1 134/38/1
f 111/37/2 112/10/2 105/5/2 106/38/2
f 111/37/6 106/10/6 131/5/6 134/38/6
f 106/37/3 105/10/3 132/5/3 131/38/3
f 112/37/4 111/10/4 134/5/4 133/38/4
f 135/37/1 136/10/1 137/5/1 138/38/1
f 117/37/2 118/10/2 109/5/2 110/38/2
f 109/37/5 118/10/5 137/5/5 136/38/5
f 110/37/3 109/10/3 136/5/3 135/38/3
f 118/37/4 117/10/4 138/5/4 137/38/4
f 139/37/1 140/10/1 141/5/1 142/38/1
f 123/37/2 124/10/2 113/5/2 114/38/2
f 123/37/6 114/10/6 139/5/6 142/38/6
f 114/37/3 113/10/3 140/5/3 139/38/3
f 124/37/4 123/10/4 142/5/4 141/38/4
f 146/2/1 147/3/1 148/4/1 149/1/1
f 145/3/2 66/5/2 144/6/2 143/4/2
f 145/16/6 143/37/6 146/38/6 149/15/6
f 144/13/5 66/14/5 148/15/5 147/3/5
f 143/10/3 144/11/3 147/8/3 146/7/3
f 66/12/4 145/13/4 149/3/4 148/2/4
f 151/20/1 152/21/1 153/22/1 154/9/1
f 69/23/2 70/24/2 150/21/2 45/20/2
f 69/13/6 45/14/6 151/15/6 154/3/6
f 45/26/3 150/30/3 152/31/3 151/27/3
f 70/29/4 69/32/4 154/30/4 153/26/4
f 155/22/1 156/9/1 157/20/1 158/21/1
f 91/21/2 92/20/2 67/23/2 68/24/2
f 67/13/5 92/14/5 157/15/5 156/3/5
f 68/29/3 67/32/3 156/30/3 155/26/3
f 92/26/4 91/30/4 158/31/4 157/27/4
f 161/20/1 162/21/1 163/22/1 164/9/1
f 160/23/2 159/24/2 71/21/2 72/20/2
f 160/13/6 72/14/6 161/15/6 164/3/6
f 72/26/3 71/30/3 162/31/3 161/27/3
f 159/29/4 160/32/4 164/30/4 163/26/4
f 168/17/1 169/18/1 48/19/1 170/16/1
f 151/17/2 167/18/2 166/19/2 165/16/2
f 151/37/6 165/10/6 168/5/6 170/38/6
f 166/16/5 167/37/5 48/38/5 169/15/5
f 165/7/3 166/8/3 169/9/3 168/6/3
f 167/8/4 151/7/4 170/6/4 48/9/4
f 21/37/1 172/10/1 173/5/1 174/38/1
f 155/37/2 156/10/2 148/5/2 171/38/2
f 148/37/5 156/10/5 173/5/5 172/38/5
f 171/37/3 148/10/3 172/5/3 21/38/3
f 156/37/4 155/10/4 174/5/4 173/38/4
f 175/37/1 176/10/1 177/5/1 178/38/1
f 161/37/2 162/10/2 153/5/2 154/38/2
f 161/37/6 154/10/6 175/5/6 178/38/6
f 154/37/3 153/10/3 176/5/3 175/38/3
f 162/37/4 161/10/4 178/5/4 177/38/4
f 181/37/1 182/10/1 183/5/1 22/38/1
f 180/37/2 179/10/2 157/5/2 158/38/2
f 157/37/5 179/10/5 183/5/5 182/38/5
f 158/37/3 157/10/3 182/5/3 181/38/3
f 179/37/4 180/10/4 22/5/4 183/38/4
f 186/33/1 187/34/1 188/35/1 189/19/1
f 127/34/2 128/36/2 185/11/2 184/35/2
f 185/25/5 128/26/5 188/27/5 187/22/5
f 184/29/3 185/32/3 187/30/3 186/26/3
f 128/26/4 127/30/4 189/31/4 188/27/4
f 192/21/1 193/39/1 194/40/1 195/28/1
f 131/37/2 132/10/2 191/5/2 190/38/2
f 131/28/6 190/29/6 192/26/6 195/25/6
f 132/29/4 131/32/4 195/30/4 194/26/4
f 196/22/1 197/9/1 198/20/1 199/21/1
f 135/21/2 136/20/2 129/23/2 130/24/2
f 129/13/5 136/14/5 198/15/5 197/3/5
f 130/29/3 129/32/3 197/30/3 196/26/3
f 136/26/4 135/30/4 199/31/4 198/27/4
f 200/20/1 201/21/1 202/22/1 203/9/1
f 139/23/2 140/24/2 133/21/2 134/20/2
f 139/13/6 134/14/6 200/15/6 203/3/6
f 134/26/3 133/30/3 201/31/3 200/27/3
f 140/29/4 139/32/4 203/30/4 202/26/4
f 206/21/1 207/39/1 208/40/1 209/28/1
f 205/37/2 204/10/2 137/5/2 138/38/2
f 137/28/5 204/29/5 208/26/5 207/25/5
f 138/29/3 137/32/3 207/30/3 206/26/3
f 212/35/1 213/19/1 214/33/1 215/34/1
f 211/11/2 210/35/2 141/34/2 142/36/2
f 211/25/6 142/26/6 212/27/6 215/22/6
f 142/26/3 141/30/3 213/31/3 212/27/3
f 210/29/4 211/32/4 215/30/4 214/26/4
f 216/37/1 217/10/1 218/5/1 219/38/1
f 196/37/2 197/10/2 188/5/2 189/38/2
f 188/37/5 197/10/5 218/5/5 217/38/5
f 189/37/3 188/10/3 217/5/3 216/38/3
f 197/37/4 196/10/4 219/5/4 218/38/4
f 220/37/1 221/10/1 222/5/1 223/38/1
f 200/37/2 201/10/2 194/5/2 195/38/2
f 200/37/6 195/10/6 220/5/6 223/38/6
f 195/37/3 194/10/3 221/5/3 220/38/3
f 201/37/4 200/10/4 223/5/4 222/38/4
f 224/37/1 225/10/1 226/5/1 227/38/1
f 206/37/2 207/10/2 198/5/2 199/38/2
f 198/37/5 207/10/5 226/5/5 225/38/5
f 199/37/3 198/10/3 225/5/3 224/38/3
f 207/37/4 206/10/4 227/5/4 226/38/4
f 228/37/1 229/10/1 230/5/1 231/38/1
f 212/37/2 213/10/2 202/5/2 203/38/2
f 212/37/6 203/10/6 228/5/6 231/38/6
f 203/37/3 202/10/3 229/5/3 228/38/3
f 213/37/4 212/10/4 231/5/4 230/38/4
