#created with MagicaVoxel and VoxelOptimizer  - v:132 - f:104
o savepoint
mtllib savepoint.mtl
vn 0 1 0
vn 0 -1 0
vn -1 0 0
vn 1 0 0
vn 0 0 1
vn 0 0 -1
v -8 0 -8
v -8 0 8
v 8 0 8
v 8 0 -8
v -8 13 -8
v -8 13 8
v 8 13 8
v 8 13 -8
v -8 13 -7
v -8 13 7
v -2 13 7
v -2 13 -7
v -8 14 -7
v -8 14 7
v -2 14 7
v -2 14 -7
v -7 13 -8
v -7 13 8
v -2 13 8
v -2 13 -8
v -7 14 -8
v -7 14 8
v -2 14 8
v -2 14 -8
v -2 13 -2
v 8 13 -2
v -2 14 -2
v 8 14 -2
v 8 14 -8
v -2 13 2
v 8 13 2
v -2 14 2
v 8 14 8
v 8 14 2
v 2 13 -2
v 2 13 2
v 2 15 -2
v 2 15 2
v 8 15 2
v 8 15 -2
v -8 14 -6
v -8 14 6
v -7 14 6
v -7 14 -6
v -8 15 -6
v -8 15 6
v -7 15 6
v -7 15 -6
v -7 14 -7
v -6 14 -6
v -6 14 -7
v -7 15 -7
v -6 15 -6
v -6 15 -7
v -7 14 7
v -6 14 7
v -6 14 6
v -7 15 7
v -6 15 7
v -6 15 6
v -6 14 -8
v 7 14 -7
v 7 14 -8
v -6 15 -8
v 7 15 -7
v 7 15 -8
v -6 14 8
v 7 14 8
v 7 14 7
v -6 15 8
v 7 15 8
v 7 15 7
v -3 14 -7
v -3 14 7
v -3 15 -7
v -3 15 7
v -2 15 7
v -2 15 -7
v 8 14 -7
v -2 15 -2
v 8 15 -7
v 8 14 7
v -2 15 2
v 8 15 7
v -3 15 -8
v 6 15 -7
v 6 15 -8
v -3 16 -8
v -3 16 -7
v 6 16 -7
v 6 16 -8
v -3 15 -3
v -3 15 3
v -2 15 3
v -2 15 -3
v -3 16 -3
v -3 16 3
v -2 16 3
v -2 16 -3
v -3 15 8
v 6 15 8
v 6 15 7
v -3 16 7
v -3 16 8
v 6 16 8
v 6 16 7
v 3 15 -2
v 3 15 -3
v -2 16 -2
v 3 16 -2
v 3 16 -3
v 3 15 3
v 3 15 2
v -2 16 2
v 3 16 3
v 3 16 2
v 2 16 -2
v 2 16 2
v 6 15 -6
v 7 15 -6
v 6 16 -6
v 7 16 -6
v 7 16 -7
v 6 15 6
v 7 15 6
v 6 16 6
v 7 16 7
v 7 16 6
v 8 15 6
v 8 15 -6
v 8 16 6
v 8 16 -6
vt 0.0000 1.0000
vt 0.0000 0.7500
vt 0.2500 0.7500
vt 0.2500 1.0000
vt 0.5000 0.7500
vt 0.5000 1.0000
vt 0.5000 0.7969
vt 0.7500 0.7969
vt 0.7500 1.0000
vt 1.0000 0.7969
vt 1.0000 1.0000
vt 0.5000 0.5938
vt 0.7500 0.5938
vt 0.7500 0.7031
vt 0.9688 0.7031
vt 0.9688 0.7969
vt 0.7500 0.6250
vt 1.0000 0.6250
vt 1.0000 0.7031
vt 0.7500 0.4688
vt 0.8438 0.4688
vt 0.8438 0.6250
vt 0.9219 0.4688
vt 0.9219 0.6250
vt 0.0000 0.7344
vt 0.2500 0.7344
vt 0.5000 0.7344
vt 0.9219 0.5312
vt 0.9844 0.5312
vt 0.9844 0.6250
vt 0.0000 0.7188
vt 0.2188 0.7188
vt 0.2188 0.7344
vt 0.4375 0.7188
vt 0.4375 0.7344
vt 0.0000 0.7031
vt 0.2188 0.7031
vt 0.9844 0.4219
vt 1.0000 0.4219
vt 0.3750 0.7031
vt 0.3750 0.7188
vt 0.0000 0.6875
vt 0.1562 0.6875
vt 0.1562 0.7031
vt 0.4688 0.7031
vt 0.4688 0.7188
vt 0.9219 0.5000
vt 0.9844 0.5000
vt 0.2344 0.6875
vt 0.2344 0.7031
vt 0.4531 0.7188
vt 0.4531 0.7344
usemtl x
f 5/2/1 6/3/1 7/4/1 8/1/1
f 4/3/2 3/5/2 2/6/2 1/4/2
f 4/7/6 1/8/6 5/9/6 8/6/6
f 2/8/5 3/7/5 7/6/5 6/9/5
f 1/8/3 2/10/3 6/11/3 5/9/3
f 3/12/4 4/13/4 8/8/4 7/7/4
f 13/14/1 14/15/1 15/16/1 16/8/1
f 12/40/6 9/45/6 13/46/6 16/41/6
f 10/45/5 11/40/5 15/41/5 14/46/5
f 9/31/3 10/32/3 14/33/3 13/25/3
f 11/32/4 12/34/4 16/35/4 15/33/4
f 21/17/1 22/18/1 23/19/1 24/14/1
f 20/43/6 17/49/6 21/50/6 24/44/6
f 18/49/5 19/43/5 23/44/5 22/50/5
f 17/25/3 18/26/3 22/3/3 21/2/3
f 19/26/4 20/27/4 24/5/4 23/3/4
f 24/20/1 27/21/1 28/22/1 29/17/1
f 8/37/6 20/40/6 24/41/6 29/32/6
f 25/42/5 26/43/5 28/44/5 27/36/5
f 26/40/4 8/45/4 29/46/4 28/41/4
f 32/21/1 23/20/1 33/17/1 34/22/1
f 31/43/6 30/42/6 32/36/6 34/44/6
f 19/40/5 7/37/5 33/32/5 23/41/5
f 7/45/4 31/40/4 34/41/4 33/46/4
f 37/28/1 38/29/1 39/30/1 40/24/1
f 35/34/3 36/51/3 38/52/3 37/35/3
f 31/47/4 26/48/4 40/29/4 39/28/4
f 45/34/1 46/51/1 47/52/1 48/35/1
f 44/34/6 41/51/6 45/52/6 48/35/6
f 42/34/5 43/51/5 47/52/5 46/35/5
f 41/34/3 42/51/3 46/52/3 45/35/3
f 43/34/4 44/51/4 48/52/4 47/35/4
f 52/34/1 48/51/1 53/52/1 54/35/1
f 51/34/6 49/51/6 52/52/6 54/35/6
f 44/34/5 50/51/5 53/52/5 48/35/5
f 49/34/3 44/51/3 48/52/3 52/35/3
f 50/34/4 51/51/4 54/52/4 53/35/4
f 47/34/1 58/51/1 59/52/1 60/35/1
f 57/34/6 43/51/6 47/52/6 60/35/6
f 55/34/5 56/51/5 59/52/5 58/35/5
f 43/34/3 55/51/3 58/52/3 47/35/3
f 56/34/4 57/51/4 60/52/4 59/35/4
f 64/38/1 54/39/1 65/18/1 66/30/1
f 63/18/6 61/39/6 64/38/6 66/30/6
f 51/38/5 62/30/5 65/18/5 54/39/5
f 61/34/3 51/51/3 54/52/3 64/35/3
f 62/34/4 63/51/4 66/52/4 65/35/4
f 59/38/1 70/39/1 71/18/1 72/30/1
f 69/18/6 56/39/6 59/38/6 72/30/6
f 67/38/5 68/30/5 71/18/5 70/39/5
f 56/34/3 67/51/3 70/52/3 59/35/3
f 68/34/4 69/51/4 72/52/4 71/35/4
f 75/36/1 76/37/1 77/32/1 78/31/1
f 73/36/3 74/37/3 76/32/3 75/31/3
f 15/37/4 16/36/4 78/31/4 77/32/4
f 78/21/1 80/23/1 40/24/1 81/22/1
f 79/37/6 16/40/6 78/41/6 81/32/6
f 27/42/5 28/43/5 40/44/5 80/36/5
f 28/43/4 79/49/4 81/50/4 40/44/4
f 83/23/1 77/21/1 84/22/1 39/24/1
f 34/43/6 32/42/6 83/36/6 39/44/6
f 15/40/5 82/37/5 84/32/5 77/41/5
f 82/49/4 34/43/4 39/44/4 84/50/4
f 88/34/1 89/51/1 90/52/1 91/35/1
f 87/34/6 85/51/6 88/52/6 91/35/6
f 75/34/5 86/51/5 90/52/5 89/35/5
f 85/34/3 75/51/3 89/52/3 88/35/3
f 86/34/4 87/51/4 91/52/4 90/35/4
f 96/34/1 97/51/1 98/52/1 99/35/1
f 95/34/6 92/51/6 96/52/6 99/35/6
f 93/34/5 94/51/5 98/52/5 97/35/5
f 92/34/3 93/51/3 97/52/3 96/35/3
f 94/34/4 95/51/4 99/52/4 98/35/4
f 103/34/1 104/51/1 105/52/1 106/35/1
f 102/34/6 76/51/6 103/52/6 106/35/6
f 100/34/5 101/51/5 105/52/5 104/35/5
f 76/34/3 100/51/3 104/52/3 103/35/3
f 101/34/4 102/51/4 106/52/4 105/35/4
f 99/34/1 109/51/1 110/52/1 111/35/1
f 108/34/6 95/51/6 99/52/6 111/35/6
f 80/34/5 107/51/5 110/52/5 109/35/5
f 107/34/4 108/51/4 111/52/4 110/35/4
f 114/34/1 98/51/1 115/52/1 116/35/1
f 113/34/6 83/51/6 114/52/6 116/35/6
f 94/34/5 112/51/5 115/52/5 98/35/5
f 112/34/4 113/51/4 116/52/4 115/35/4
f 117/34/1 118/51/1 116/52/1 110/35/1
f 37/34/3 38/51/3 118/52/3 117/35/3
f 113/34/4 107/51/4 110/52/4 116/35/4
f 90/34/1 121/51/1 122/52/1 123/35/1
f 65/34/6 86/51/6 90/52/6 123/35/6
f 119/34/5 120/51/5 122/52/5 121/35/5
f 86/34/3 119/51/3 121/52/3 90/35/3
f 120/34/4 65/51/4 123/52/4 122/35/4
f 126/34/1 106/51/1 127/52/1 128/35/1
f 125/34/6 124/51/6 126/52/6 128/35/6
f 102/34/5 72/51/5 127/52/5 106/35/5
f 124/34/3 102/51/3 106/52/3 126/35/3
f 72/34/4 125/51/4 128/52/4 127/35/4
f 122/34/1 128/51/1 131/52/1 132/35/1
f 130/34/6 120/51/6 122/52/6 132/35/6
f 125/34/5 129/51/5 131/52/5 128/35/5
f 120/34/3 125/51/3 128/52/3 122/35/3
f 129/34/4 130/51/4 132/52/4 131/35/4
