#created with MagicaVoxel and VoxelOptimizer  - v:653 - f:539
o scape_box
mtllib scape_box.mtl
vn 0 1 0
vn 0 -1 0
vn -1 0 0
vn 1 0 0
vn 0 0 1
vn 0 0 -1
v -8 0 -8
v -8 0 8
v -7 0 8
v -7 0 -8
v -8 1 -8
v -8 1 8
v -7 1 8
v -7 1 -8
v -7 0 -7
v 8 0 -7
v 8 0 -8
v -7 1 -7
v 8 1 -7
v 8 1 -8
v -7 0 7
v 8 0 8
v 8 0 7
v -7 1 7
v 8 1 8
v 8 1 7
v 7 0 -7
v 7 0 7
v 7 1 -7
v 7 1 7
v -8 1 -7
v -8 16 -8
v -8 16 -7
v -7 16 -7
v -7 16 -8
v -8 1 7
v -8 16 7
v -8 16 8
v -7 16 8
v -7 16 7
v -7 2 -7
v -7 2 7
v 7 2 7
v 7 2 -7
v 7 1 -8
v 7 16 -8
v 7 16 -7
v 8 16 -7
v 8 16 -8
v 7 1 8
v 7 16 7
v 7 16 8
v 8 16 8
v 8 16 7
v -7 2 -2
v 1 2 -2
v 1 2 -7
v -7 3 -7
v -7 3 -2
v 1 3 -2
v 1 3 -7
v -7 2 -1
v -2 2 7
v -2 2 -1
v -7 3 -1
v -7 3 7
v -2 3 7
v -2 3 -1
v -6 2 -2
v -6 2 -1
v 7 2 -1
v 7 2 -2
v -6 6 -2
v -6 6 -1
v 7 6 -1
v 7 6 -2
v -2 2 6
v 6 2 6
v 6 2 -1
v -2 15 -1
v -2 15 6
v 6 15 6
v 6 15 -1
v -1 2 6
v -1 2 7
v 7 2 6
v -1 4 6
v -1 4 7
v 7 4 7
v 7 4 6
v 1 2 -6
v 7 2 -6
v 1 4 -6
v 1 4 -2
v 7 4 -2
v 7 4 -6
v 2 2 -7
v 2 2 -6
v 2 3 -7
v 2 3 -6
v 7 3 -6
v 7 3 -7
v 6 2 1
v 7 2 1
v 6 6 -1
v 6 6 1
v 7 6 1
v 6 2 2
v 7 2 2
v 6 3 2
v 6 3 6
v 7 3 6
v 7 3 2
v -7 3 -3
v 2 3 -3
v -7 4 -7
v -7 4 -3
v 2 4 -3
v 2 4 -7
v -3 3 7
v -3 3 -2
v -7 4 -2
v -7 4 7
v -3 4 7
v -3 4 -2
v -6 3 -3
v -6 3 -2
v 1 3 -3
v -6 15 -3
v -6 15 -2
v 1 15 -2
v 1 15 -3
v -3 3 -1
v -3 3 6
v -2 3 6
v -3 15 -1
v -3 15 6
v -1 3 7
v -1 3 6
v -2 5 6
v -2 5 7
v -1 5 7
v -1 5 6
v 3 3 -7
v 3 3 -6
v 3 6 -7
v 3 6 -6
v 7 6 -6
v 7 6 -7
v 6 3 1
v 7 3 1
v 6 5 1
v 6 5 2
v 7 5 2
v 7 5 1
v 6 3 3
v 7 3 3
v 6 6 3
v 6 6 6
v 7 6 6
v 7 6 3
v -5 4 -3
v -5 4 -7
v -7 5 -7
v -7 5 -3
v -5 5 -3
v -5 5 -7
v -7 4 3
v -3 4 3
v -7 5 -2
v -7 5 3
v -3 5 3
v -3 5 -2
v -7 4 5
v -3 4 5
v -7 5 5
v -7 5 7
v -3 5 7
v -3 5 5
v -6 4 3
v -6 4 5
v -6 15 3
v -6 15 5
v -3 15 5
v -3 15 3
v -5 4 -6
v 6 4 -3
v 6 4 -6
v -5 15 -6
v -5 15 -3
v 6 15 -3
v 6 15 -6
v -3 4 -7
v -3 4 -6
v 2 4 -6
v -3 5 -7
v -3 5 -6
v 2 5 -6
v 2 5 -7
v 3 4 7
v 3 4 6
v 3 5 7
v 3 5 6
v 1 4 -3
v 7 4 -3
v 1 5 -3
v 1 5 -2
v 7 5 -2
v 7 5 -3
v 5 4 6
v 5 4 7
v 5 5 6
v 5 5 7
v 7 5 7
v 7 5 6
v 6 4 -5
v 7 4 -5
v 6 5 -6
v 6 5 -5
v 7 5 -5
v 7 5 -6
v -6 5 -2
v -6 5 -7
v -7 6 -7
v -7 6 -2
v -6 6 -7
v -7 5 -1
v -7 5 2
v -3 5 2
v -3 5 -1
v -7 6 -1
v -7 6 2
v -3 6 2
v -3 6 -1
v -6 5 5
v -6 5 3
v -7 9 3
v -7 9 5
v -6 9 5
v -6 9 3
v -7 5 6
v -7 6 6
v -7 6 7
v -2 6 7
v -2 6 6
v -6 5 -6
v -6 5 6
v 6 5 6
v -6 15 -6
v -6 15 6
v -5 5 -6
v -5 9 -7
v -5 9 -6
v -3 9 -6
v -3 9 -7
v -2 5 -7
v -2 5 -6
v 1 5 -6
v 1 5 -7
v -2 6 -7
v -2 6 -6
v 1 6 -6
v 1 6 -7
v 2 5 7
v 2 5 6
v -1 6 6
v -1 6 7
v 2 6 7
v 2 6 6
v 3 5 -6
v 3 5 -7
v 2 7 -7
v 2 7 -6
v 3 7 -6
v 3 7 -7
v 3 9 6
v 3 9 7
v 5 9 7
v 5 9 6
v 6 5 -3
v 6 9 -5
v 6 9 -3
v 7 9 -3
v 7 9 -5
v 6 5 7
v 6 6 2
v 6 6 7
v 7 6 7
v 7 6 2
v -7 6 -5
v -6 6 -5
v -7 7 -7
v -7 7 -5
v -6 7 -5
v -6 7 -7
v -7 6 -3
v -6 6 -3
v -7 7 -3
v -7 7 -1
v -6 7 -1
v -6 7 -3
v -7 6 3
v -7 7 2
v -7 7 3
v 7 7 3
v 7 7 2
v -5 6 7
v -5 6 6
v -7 7 6
v -7 7 7
v -5 7 7
v -5 7 6
v -3 6 -7
v -3 6 7
v -3 7 -7
v -3 7 7
v -2 7 7
v -2 7 -7
v -2 8 6
v -2 8 7
v -1 8 7
v -1 8 6
v 2 6 -6
v 2 6 -7
v 1 8 -7
v 1 8 -6
v 2 8 -6
v 2 8 -7
v 3 6 7
v 3 6 6
v 2 11 6
v 2 11 7
v 3 11 7
v 3 11 6
v 5 6 -7
v 5 6 -6
v 5 7 -7
v 5 7 -6
v 7 7 -6
v 7 7 -7
v 6 6 -3
v 6 6 -2
v 7 6 -3
v 6 11 -3
v 6 11 -2
v 7 11 -2
v 7 11 -3
v 6 8 1
v 6 8 2
v 7 8 2
v 7 8 1
v 6 6 5
v 7 6 5
v 6 7 5
v 6 7 7
v 7 7 7
v 7 7 5
v -7 7 -6
v -2 7 -6
v -7 9 -7
v -7 9 -6
v -2 9 -6
v -2 9 -7
v -7 10 -5
v -7 10 -3
v -6 10 -3
v -6 10 -5
v -7 7 -2
v -7 7 1
v -6 7 1
v -6 7 -2
v -7 8 -2
v -7 8 1
v -6 8 1
v -6 8 -2
v -6 7 7
v -6 7 2
v -7 9 2
v -7 9 7
v -6 9 7
v -6 9 2
v -3 7 6
v -5 10 6
v -5 10 7
v -3 10 7
v -3 10 6
v -1 7 -7
v -1 7 7
v 1 7 7
v 1 7 -7
v -1 8 -7
v 1 8 7
v 3 10 -7
v 3 10 -6
v 5 10 -6
v 5 10 -7
v 5 7 6
v 5 7 7
v 7 7 6
v 5 15 6
v 5 15 7
v 7 15 7
v 7 15 6
v 6 7 -7
v 6 7 -5
v 7 7 -5
v 6 15 -7
v 6 15 -5
v 7 15 -5
v 7 15 -7
v 6 7 -1
v 6 7 1
v 7 7 1
v 7 7 -1
v 6 8 -1
v 7 8 -1
v 6 7 3
v 6 10 3
v 6 10 5
v 7 10 5
v 7 10 3
v -7 8 -6
v -6 8 -6
v -7 10 -6
v -7 10 -2
v -6 10 -2
v -6 10 -6
v -7 8 -1
v -7 8 0
v -6 8 0
v -6 8 -1
v -7 9 -1
v -7 9 0
v -6 9 0
v -6 9 -1
v -7 8 2
v -6 8 2
v -7 11 1
v -7 11 2
v -6 11 2
v -6 11 1
v -6 8 6
v -6 8 7
v -6 10 6
v -6 10 7
v -2 10 7
v -2 10 6
v -2 8 -7
v -2 8 -6
v -1 8 -6
v -2 11 -7
v -2 11 -6
v -1 11 -6
v -1 11 -7
v 0 8 7
v 0 8 6
v -1 9 6
v -1 9 7
v 0 9 7
v 0 9 6
v 0 8 -7
v 0 8 -6
v 0 9 -7
v 0 9 -6
v 1 9 -6
v 1 9 -7
v 1 8 6
v 2 8 7
v 2 8 6
v 1 11 6
v 1 11 7
v 6 8 -6
v 6 8 -7
v 2 10 -7
v 2 10 -6
v 6 10 -6
v 6 10 -7
v 6 8 -2
v 7 8 -2
v 6 11 -1
v 7 11 -1
v 6 8 0
v 7 8 0
v 6 9 0
v 6 9 1
v 7 9 1
v 7 9 0
v 6 8 6
v 7 8 6
v 6 10 2
v 6 10 6
v 7 10 6
v 7 10 2
v -7 15 -7
v -7 15 -6
v -5 15 -7
v -7 9 4
v -6 9 4
v -7 10 0
v -7 10 4
v -6 10 4
v -6 10 0
v -7 15 5
v -7 15 7
v -6 15 7
v -4 9 -7
v -4 9 -6
v -4 10 -7
v -4 10 -6
v 0 10 -6
v 0 10 -7
v 4 9 7
v 4 9 6
v 0 10 6
v 0 10 7
v 4 10 7
v 4 10 6
v 6 9 -4
v 7 9 -4
v 6 10 -4
v 6 10 0
v 7 10 0
v 7 10 -4
v -7 15 -5
v -6 15 -5
v -7 10 -1
v -6 10 -1
v -7 15 -2
v -7 15 -1
v -6 15 -1
v -7 10 3
v -6 10 3
v -7 11 0
v -7 11 3
v -6 11 3
v -6 11 0
v -7 10 5
v -6 10 5
v -7 15 4
v -6 15 4
v -5 15 7
v -5 15 6
v -5 10 -7
v -5 10 -6
v -4 15 -6
v -4 15 -7
v -3 10 -7
v -3 10 -6
v -3 11 -7
v -3 11 -6
v 0 11 -6
v 0 11 -7
v -1 10 7
v -1 10 6
v -2 15 7
v -1 15 7
v -1 15 6
v 1 10 7
v 1 10 6
v 0 11 6
v 0 11 7
v 1 10 -7
v 1 10 -6
v 1 15 -7
v 1 15 -6
v 2 15 -6
v 2 15 -7
v 5 10 7
v 5 10 6
v 4 15 6
v 4 15 7
v 5 15 -7
v 5 15 -6
v 6 10 -5
v 7 10 -5
v 6 15 -4
v 7 15 -4
v 6 10 -1
v 7 10 -1
v 6 11 0
v 7 11 0
v 6 10 1
v 7 10 1
v 6 15 1
v 6 15 2
v 7 15 2
v 7 15 1
v 6 15 5
v 7 15 5
v -7 11 -1
v -6 11 -1
v -7 15 0
v -6 15 0
v -7 11 4
v -6 11 4
v -7 15 3
v -4 11 -7
v -4 11 -6
v -3 15 -6
v -3 15 -7
v -1 11 6
v -1 11 7
v 0 15 7
v 0 15 6
v 1 11 -6
v 1 11 -7
v 0 15 -7
v 0 15 -6
v 4 11 7
v 4 11 6
v 3 15 6
v 3 15 7
v 6 11 -4
v 7 11 -4
v 7 15 -3
v 6 11 1
v 7 11 1
v 6 15 0
v 7 15 0
v -7 12 0
v -7 12 3
v -6 12 3
v -6 12 0
v -3 12 -7
v -3 12 -6
v 0 12 -6
v 0 12 -7
v 0 12 6
v 0 12 7
v 3 12 7
v 3 12 6
v 6 12 -3
v 6 12 0
v 7 12 0
v 7 12 -3
v -7 13 -5
v -7 13 -2
v -6 13 -2
v -6 13 -5
v -5 13 6
v -5 13 7
v -2 13 7
v -2 13 6
v 2 13 -7
v 2 13 -6
v 5 13 -6
v 5 13 -7
v 6 13 2
v 6 13 5
v 7 13 5
v 7 13 2
v -8 15 -7
v -8 15 7
v -7 15 -8
v 7 15 -8
v -7 15 8
v 7 15 8
v 8 15 7
v 8 15 -7
vt 0.0000 1.0000
vt 0.0000 0.6562
vt 0.3438 0.6562
vt 0.3438 1.0000
vt 0.3438 0.6875
vt 0.7188 0.6875
vt 0.7188 1.0000
vt 0.7188 0.5938
vt 0.9688 0.5938
vt 0.9688 1.0000
vt 0.3438 0.2812
vt 0.5625 0.2812
vt 0.5625 0.6875
vt 0.5625 0.5938
vt 0.5625 0.4688
vt 0.9688 0.4688
vt 0.5625 0.2188
vt 0.7188 0.2188
vt 0.7188 0.4688
vt 0.7188 0.1875
vt 0.8438 0.1875
vt 0.8438 0.4688
vt 0.8438 0.1250
vt 0.9375 0.1250
vt 0.9375 0.4688
vt 0.0000 0.1250
vt 0.0000 0.0625
vt 0.4375 0.0625
vt 0.4375 0.1250
vt 1.0000 0.1250
vt 1.0000 0.4688
vt 0.4375 0.2812
vt 0.4375 0.0938
vt 0.5625 0.0938
vt 0.9688 0.5625
vt 1.0000 0.5625
vt 1.0000 1.0000
vt 0.0000 0.2500
vt 0.0312 0.2500
vt 0.0312 0.6562
vt 0.7188 0.0938
vt 0.0312 0.2812
vt 0.0625 0.2812
vt 0.0625 0.6562
vt 0.7188 0.1250
vt 0.7188 0.0625
vt 0.9062 0.0625
vt 0.9062 0.1250
vt 0.0000 0.2188
vt 0.2500 0.2188
vt 0.2500 0.2500
vt 0.9062 0.0000
vt 1.0000 0.0000
vt 0.2500 0.6562
vt 0.2500 0.4688
vt 0.2812 0.4688
vt 0.2812 0.6562
vt 0.1875 0.2500
vt 0.1875 0.2812
vt 0.3125 0.2500
vt 0.3125 0.2812
vt 0.5625 0.6562
vt 0.6250 0.6562
vt 0.6250 0.6875
vt 0.9688 0.5312
vt 1.0000 0.5312
vt 0.9688 0.5000
vt 1.0000 0.5000
usemtl x
f 5/65/1 6/66/1 7/36/1 8/35/1
f 4/65/2 3/66/2 2/36/2 1/35/2
f 4/65/6 1/66/6 5/36/6 8/35/6
f 2/65/5 3/66/5 7/36/5 6/35/5
f 1/65/3 2/66/3 6/36/3 5/35/3
f 3/65/4 4/66/4 8/36/4 7/35/4
f 8/65/1 12/66/1 13/36/1 14/35/1
f 11/65/2 10/66/2 9/36/2 4/35/2
f 11/65/6 4/66/6 8/36/6 14/35/6
f 9/65/5 10/66/5 13/36/5 12/35/5
f 10/65/4 11/66/4 14/36/4 13/35/4
f 18/65/1 7/66/1 19/36/1 20/35/1
f 17/65/2 16/66/2 3/36/2 15/35/2
f 17/65/6 15/66/6 18/36/6 20/35/6
f 3/65/5 16/66/5 19/36/5 7/35/5
f 16/65/4 17/66/4 20/36/4 19/35/4
f 23/65/1 24/66/1 20/36/1 13/35/1
f 10/65/2 17/66/2 22/36/2 21/35/2
f 21/65/3 22/66/3 24/36/3 23/35/3
f 17/65/4 10/66/4 13/36/4 20/35/4
f 26/65/1 27/66/1 28/36/1 29/35/1
f 8/65/6 5/66/6 26/36/6 29/35/6
f 25/65/5 12/66/5 28/36/5 27/35/5
f 5/65/3 25/66/3 27/36/3 26/35/3
f 12/65/4 8/66/4 29/36/4 28/35/4
f 31/65/1 32/66/1 33/36/1 34/35/1
f 18/65/6 30/66/6 31/36/6 34/35/6
f 6/65/5 7/66/5 33/36/5 32/35/5
f 30/65/3 6/66/3 32/36/3 31/35/3
f 7/65/4 18/66/4 34/36/4 33/35/4
f 35/67/1 36/68/1 37/66/1 38/65/1
f 23/67/2 24/68/2 18/66/2 12/65/2
f 23/67/6 12/68/6 35/66/6 38/65/6
f 18/67/5 24/68/5 37/66/5 36/65/5
f 12/67/3 18/68/3 36/66/3 35/65/3
f 24/67/4 23/68/4 38/66/4 37/65/4
f 40/65/1 41/66/1 42/36/1 43/35/1
f 14/65/6 39/66/6 40/36/6 43/35/6
f 23/65/5 13/66/5 42/36/5 41/35/5
f 39/65/3 23/66/3 41/36/3 40/35/3
f 13/65/4 14/66/4 43/36/4 42/35/4
f 45/65/1 46/66/1 47/36/1 48/35/1
f 20/65/6 24/66/6 45/36/6 48/35/6
f 44/65/5 19/66/5 47/36/5 46/35/5
f 24/65/3 44/66/3 46/36/3 45/35/3
f 19/65/4 20/66/4 48/36/4 47/35/4
f 52/17/1 53/18/1 54/19/1 55/15/1
f 51/67/6 35/68/6 52/66/6 55/65/6
f 49/49/5 50/50/5 54/51/5 53/38/5
f 35/67/3 49/68/3 53/66/3 52/65/3
f 50/39/4 51/58/4 55/59/4 54/42/4
f 59/15/1 60/17/1 61/18/1 62/19/1
f 58/39/6 56/58/6 59/59/6 62/42/6
f 36/67/5 57/68/5 61/66/5 60/65/5
f 56/67/3 36/68/3 60/66/3 59/65/3
f 57/49/4 58/50/4 62/51/4 61/38/4
f 67/38/1 68/39/1 69/40/1 70/2/1
f 66/15/6 63/16/6 67/9/6 70/14/6
f 63/16/3 64/31/3 68/68/3 67/67/3
f 65/67/4 66/68/4 70/66/4 69/65/4
f 74/67/1 75/68/1 76/66/1 77/65/1
f 71/8/5 72/9/5 76/10/5 75/7/5
f 72/11/4 73/12/4 77/13/4 76/5/4
f 81/67/1 82/68/1 83/66/1 84/65/1
f 79/67/5 37/68/5 83/66/5 82/65/5
f 78/67/3 79/68/3 82/66/3 81/65/3
f 37/67/4 80/68/4 84/66/4 83/65/4
f 87/33/1 88/34/1 89/12/1 90/32/1
f 86/46/6 85/47/6 87/48/6 90/45/6
f 66/67/4 86/68/4 90/66/4 89/65/4
f 93/67/1 94/68/1 95/66/1 96/65/1
f 38/67/6 91/68/6 93/66/6 96/65/6
f 91/67/3 92/68/3 94/66/3 93/65/3
f 86/67/4 38/68/4 96/66/4 95/65/4
f 99/67/1 100/68/1 101/66/1 69/65/1
f 97/67/5 98/68/5 101/66/5 100/65/5
f 98/67/4 65/68/4 69/66/4 101/65/4
f 104/67/1 105/68/1 106/66/1 107/65/1
f 103/67/6 102/68/6 104/66/6 107/65/6
f 80/67/4 103/68/4 107/66/4 106/65/4
f 110/20/1 111/21/1 112/22/1 113/19/1
f 93/21/2 109/20/2 108/19/2 52/22/2
f 93/67/6 52/68/6 110/66/6 113/65/6
f 108/28/5 109/46/5 112/41/5 111/33/5
f 52/67/3 108/68/3 111/66/3 110/65/3
f 109/58/4 93/60/4 113/61/4 112/59/4
f 116/19/1 117/20/1 118/21/1 119/22/1
f 115/22/2 114/21/2 60/20/2 53/19/2
f 115/58/6 53/60/6 116/61/6 119/59/6
f 60/67/5 114/68/5 118/66/5 117/65/5
f 53/67/3 60/68/3 117/66/3 116/65/3
f 114/28/4 115/46/4 119/41/4 118/33/4
f 123/67/1 124/68/1 125/66/1 126/65/1
f 120/42/3 121/43/3 124/44/3 123/40/3
f 130/67/1 131/68/1 75/66/1 74/65/1
f 128/42/5 129/43/5 75/44/5 131/40/5
f 134/67/1 135/68/1 136/66/1 137/65/1
f 133/67/2 132/68/2 61/66/2 129/65/2
f 61/67/5 132/68/5 136/66/5 135/65/5
f 129/67/3 61/68/3 135/66/3 134/65/3
f 140/67/1 141/68/1 142/66/1 143/65/1
f 96/67/6 138/68/6 140/66/6 143/65/6
f 139/67/5 95/68/5 142/66/5 141/65/5
f 138/67/3 139/68/3 141/66/3 140/65/3
f 95/67/4 96/68/4 143/66/4 142/65/4
f 146/67/1 147/68/1 148/66/1 149/65/1
f 145/67/2 107/68/2 104/66/2 144/65/2
f 104/67/5 107/68/5 148/66/5 147/65/5
f 107/67/4 145/68/4 149/66/4 148/65/4
f 152/67/1 153/68/1 154/66/1 155/65/1
f 151/67/6 150/68/6 152/66/6 155/65/6
f 106/67/4 151/68/4 155/66/4 154/65/4
f 158/45/1 159/23/1 160/21/1 161/20/1
f 157/67/6 110/68/6 158/66/6 161/65/6
f 111/62/5 156/63/5 160/64/5 159/13/5
f 110/67/3 111/68/3 159/66/3 158/65/3
f 156/58/4 157/60/4 161/61/4 160/59/4
f 164/34/1 165/41/1 166/18/1 167/17/1
f 119/58/6 116/60/6 164/61/6 167/59/6
f 162/60/5 163/58/5 166/59/5 165/61/5
f 116/67/3 162/68/3 165/66/3 164/65/3
f 170/20/1 171/45/1 172/23/1 173/21/1
f 169/58/6 168/60/6 170/61/6 173/59/6
f 117/67/5 118/68/5 172/66/5 171/65/5
f 168/67/3 117/68/3 171/66/3 170/65/3
f 118/62/4 169/63/4 173/64/4 172/13/4
f 176/67/1 177/68/1 178/66/1 179/65/1
f 174/24/3 175/30/3 177/31/3 176/25/3
f 183/67/1 184/68/1 185/66/1 186/65/1
f 182/2/6 180/3/6 183/4/6 186/1/6
f 181/23/4 182/24/4 186/25/4 185/22/4
f 190/67/1 191/68/1 192/66/1 193/65/1
f 113/67/6 187/68/6 190/66/6 193/65/6
f 187/67/3 188/68/3 191/66/3 190/65/3
f 189/67/4 113/68/4 193/66/4 192/65/4
f 137/67/1 136/68/1 196/66/1 197/65/1
f 82/67/5 194/68/5 196/66/5 136/65/5
f 194/67/4 195/68/4 197/66/4 196/65/4
f 200/55/1 201/56/1 202/57/1 203/54/1
f 199/57/6 198/56/6 200/55/6 203/54/6
f 89/67/4 199/68/4 203/66/4 202/65/4
f 206/67/1 207/68/1 208/66/1 209/65/1
f 205/67/5 83/68/5 208/66/5 207/65/5
f 204/67/3 205/68/3 207/66/3 206/65/3
f 83/67/4 84/68/4 209/66/4 208/65/4
f 212/67/1 213/68/1 214/66/1 215/65/1
f 210/67/5 211/68/5 214/66/5 213/65/5
f 211/67/4 90/68/4 215/66/4 214/65/4
f 218/67/1 219/68/1 67/66/1 220/65/1
f 217/67/2 216/68/2 164/66/2 158/65/2
f 217/67/6 158/68/6 218/66/6 220/65/6
f 164/67/5 216/68/5 67/66/5 219/65/5
f 158/67/3 164/68/3 219/66/3 218/65/3
f 216/67/4 217/68/4 220/66/4 67/65/4
f 225/52/1 226/53/1 227/30/1 228/48/1
f 224/58/6 221/60/6 225/61/6 228/59/6
f 222/60/5 223/58/5 227/59/5 226/61/5
f 221/67/3 222/68/3 226/66/3 225/65/3
f 231/67/1 232/68/1 233/66/1 234/65/1
f 230/67/2 229/68/2 170/66/2 165/65/2
f 230/67/6 165/68/6 231/66/6 234/65/6
f 170/67/5 229/68/5 233/66/5 232/65/5
f 165/67/3 170/68/3 232/66/3 231/65/3
f 236/67/1 237/68/1 238/66/1 239/65/1
f 134/67/2 135/68/2 171/66/2 235/65/2
f 134/67/6 235/68/6 236/66/6 239/65/6
f 171/67/5 135/68/5 238/66/5 237/65/5
f 235/67/3 171/68/3 237/66/3 236/65/3
f 135/67/4 134/68/4 239/66/4 238/65/4
f 243/67/1 244/68/1 76/66/1 186/65/1
f 212/5/6 240/6/6 243/7/6 186/4/6
f 241/5/5 242/6/5 76/7/5 244/4/5
f 240/5/3 241/6/3 244/7/3 243/4/3
f 242/5/4 212/6/4 186/7/4 76/4/4
f 246/67/1 247/68/1 248/66/1 249/65/1
f 190/67/2 191/68/2 245/66/2 161/65/2
f 190/67/6 161/68/6 246/66/6 249/65/6
f 161/67/3 245/68/3 247/66/3 246/65/3
f 191/67/4 190/68/4 249/66/4 248/65/4
f 254/67/1 255/68/1 256/66/1 257/65/1
f 253/67/6 250/68/6 254/66/6 257/65/6
f 250/67/3 251/68/3 255/66/3 254/65/3
f 252/67/4 253/68/4 257/66/4 256/65/4
f 260/67/1 261/68/1 262/66/1 263/65/1
f 136/67/5 258/68/5 262/66/5 261/65/5
f 137/67/3 136/68/3 261/66/3 260/65/3
f 258/67/4 259/68/4 263/66/4 262/65/4
f 266/67/1 267/68/1 268/66/1 269/65/1
f 265/67/2 264/68/2 192/66/2 193/65/2
f 265/67/6 193/68/6 266/66/6 269/65/6
f 193/67/3 192/68/3 267/66/3 266/65/3
f 264/67/4 265/68/4 269/66/4 268/65/4
f 270/67/1 271/68/1 272/66/1 273/65/1
f 206/67/2 207/68/2 196/66/2 197/65/2
f 196/67/5 207/68/5 272/66/5 271/65/5
f 197/67/3 196/68/3 271/66/3 270/65/3
f 207/67/4 206/68/4 273/66/4 272/65/4
f 275/67/1 276/68/1 277/66/1 278/65/1
f 214/67/2 203/68/2 274/66/2 213/65/2
f 214/67/6 213/68/6 275/66/6 278/65/6
f 274/67/5 203/68/5 277/66/5 276/65/5
f 203/67/4 214/68/4 278/66/4 277/65/4
f 280/67/1 281/68/1 282/66/1 283/65/1
f 148/67/2 208/68/2 279/66/2 147/65/2
f 148/67/6 147/68/6 280/66/6 283/65/6
f 279/67/5 208/68/5 282/66/5 281/65/5
f 147/67/3 279/68/3 281/66/3 280/65/3
f 208/67/4 148/68/4 283/66/4 282/65/4
f 286/67/1 287/68/1 288/66/1 289/65/1
f 220/67/6 218/68/6 286/66/6 289/65/6
f 284/67/5 285/68/5 288/66/5 287/65/5
f 218/67/3 284/68/3 287/66/3 286/65/3
f 285/67/4 220/68/4 289/66/4 288/65/4
f 292/67/1 293/68/1 294/66/1 295/65/1
f 291/67/2 68/68/2 225/66/2 290/65/2
f 291/67/6 290/68/6 292/66/6 295/65/6
f 225/67/5 68/68/5 294/66/5 293/65/5
f 290/67/3 225/68/3 293/66/3 292/65/3
f 297/35/1 298/36/1 299/37/1 300/10/1
f 283/35/2 155/36/2 296/37/2 226/10/2
f 283/37/6 226/36/6 297/35/6 300/10/6
f 296/37/5 155/36/5 299/35/5 298/10/5
f 226/67/3 296/68/3 298/66/3 297/65/3
f 155/67/4 283/68/4 300/66/4 299/65/4
f 303/67/1 304/68/1 305/66/1 306/65/1
f 302/67/6 236/68/6 303/66/6 306/65/6
f 237/67/5 301/68/5 305/66/5 304/65/5
f 236/67/3 237/68/3 304/66/3 303/65/3
f 301/67/4 302/68/4 306/66/4 305/65/4
f 309/37/1 310/36/1 311/35/1 312/10/1
f 254/37/2 238/36/2 308/35/2 307/10/2
f 254/67/6 307/68/6 309/66/6 312/65/6
f 308/67/5 238/68/5 311/66/5 310/65/5
f 307/37/3 308/36/3 310/35/3 309/10/3
f 238/37/4 254/36/4 312/35/4 311/10/4
f 313/67/1 314/68/1 315/66/1 316/65/1
f 260/67/2 261/68/2 238/66/2 239/65/2
f 238/67/5 261/68/5 315/66/5 314/65/5
f 239/67/3 238/68/3 314/66/3 313/65/3
f 261/67/4 260/68/4 316/66/4 315/65/4
f 319/67/1 320/68/1 321/66/1 322/65/1
f 318/67/2 317/68/2 256/66/2 257/65/2
f 318/67/6 257/68/6 319/66/6 322/65/6
f 257/67/3 256/68/3 320/66/3 319/65/3
f 317/67/4 318/68/4 322/66/4 321/65/4
f 325/67/1 326/68/1 327/66/1 328/65/1
f 324/67/2 323/68/2 262/66/2 263/65/2
f 262/67/5 323/68/5 327/66/5 326/65/5
f 263/67/3 262/68/3 326/66/3 325/65/3
f 323/67/4 324/68/4 328/66/4 327/65/4
f 331/67/1 332/68/1 333/66/1 334/65/1
f 143/67/6 329/68/6 331/66/6 334/65/6
f 330/67/5 142/68/5 333/66/5 332/65/5
f 329/67/3 330/68/3 332/66/3 331/65/3
f 142/67/4 143/68/4 334/66/4 333/65/4
f 338/67/1 339/68/1 340/66/1 341/65/1
f 337/67/2 70/68/2 336/66/2 335/65/2
f 337/67/6 335/68/6 338/66/6 341/65/6
f 336/67/5 70/68/5 340/66/5 339/65/5
f 70/67/4 337/68/4 341/66/4 340/65/4
f 342/67/1 343/68/1 344/66/1 345/65/1
f 101/67/2 283/68/2 280/66/2 100/65/2
f 101/67/6 100/68/6 342/66/6 345/65/6
f 280/67/5 283/68/5 344/66/5 343/65/5
f 283/67/4 101/68/4 345/66/4 344/65/4
f 348/67/1 349/68/1 350/66/1 351/65/1
f 347/67/6 346/68/6 348/66/6 351/65/6
f 281/67/5 282/68/5 350/66/5 349/65/5
f 346/67/3 281/68/3 349/66/3 348/65/3
f 282/67/4 347/68/4 351/66/4 350/65/4
f 354/67/1 355/68/1 356/66/1 357/65/1
f 312/67/2 353/68/2 352/66/2 286/65/2
f 312/67/6 286/68/6 354/66/6 357/65/6
f 352/67/5 353/68/5 356/66/5 355/65/5
f 286/67/3 352/68/3 355/66/3 354/65/3
f 353/67/4 312/68/4 357/66/4 356/65/4
f 358/67/1 359/68/1 360/66/1 361/65/1
f 288/67/2 295/68/2 292/66/2 287/65/2
f 288/67/6 287/68/6 358/66/6 361/65/6
f 292/67/5 295/68/5 360/66/5 359/65/5
f 287/67/3 292/68/3 359/66/3 358/65/3
f 366/67/1 367/68/1 368/66/1 369/65/1
f 365/67/2 364/68/2 363/66/2 362/65/2
f 365/67/6 362/68/6 366/66/6 369/65/6
f 363/67/5 364/68/5 368/66/5 367/65/5
f 362/67/3 363/68/3 367/66/3 366/65/3
f 372/67/1 373/68/1 374/66/1 375/65/1
f 371/67/2 370/68/2 304/66/2 297/65/2
f 371/67/6 297/68/6 372/66/6 375/65/6
f 304/67/5 370/68/5 374/66/5 373/65/5
f 297/67/3 304/68/3 373/66/3 372/65/3
f 370/67/4 371/68/4 375/66/4 374/65/4
f 377/67/1 378/68/1 379/66/1 380/65/1
f 376/67/2 310/68/2 305/66/2 306/65/2
f 305/67/5 310/68/5 379/66/5 378/65/5
f 306/67/3 305/68/3 378/66/3 377/65/3
f 310/67/4 376/68/4 380/66/4 379/65/4
f 385/27/1 315/28/1 386/29/1 319/26/1
f 384/27/2 383/28/2 382/29/2 381/26/2
f 384/67/6 381/68/6 385/66/6 319/65/6
f 382/67/5 383/68/5 386/66/5 315/65/5
f 381/37/3 382/36/3 315/35/3 385/10/3
f 383/37/4 384/36/4 319/35/4 386/10/4
f 387/67/1 388/68/1 389/66/1 390/65/1
f 331/67/2 332/68/2 268/66/2 269/65/2
f 331/67/6 269/68/6 387/66/6 390/65/6
f 269/67/3 268/68/3 388/66/3 387/65/3
f 332/67/4 331/68/4 390/66/4 389/65/4
f 394/67/1 395/68/1 396/66/1 397/65/1
f 393/67/2 350/68/2 392/66/2 391/65/2
f 393/67/6 391/68/6 394/66/6 397/65/6
f 392/67/5 350/68/5 396/66/5 395/65/5
f 391/67/3 392/68/3 395/66/3 394/65/3
f 350/67/4 393/68/4 397/66/4 396/65/4
f 401/67/1 402/68/1 403/66/1 404/65/1
f 334/67/2 400/68/2 399/66/2 398/65/2
f 334/67/6 398/68/6 401/66/6 404/65/6
f 399/67/5 400/68/5 403/66/5 402/65/5
f 398/67/3 399/68/3 402/66/3 401/65/3
f 400/67/4 334/68/4 404/66/4 403/65/4
f 409/67/1 342/68/1 345/66/1 410/65/1
f 408/67/2 407/68/2 406/66/2 405/65/2
f 408/67/6 405/68/6 409/66/6 410/65/6
f 407/67/4 408/68/4 410/66/4 345/65/4
f 412/67/1 413/68/1 414/66/1 415/65/1
f 299/67/2 351/68/2 348/66/2 411/65/2
f 299/67/6 411/68/6 412/66/6 415/65/6
f 348/67/5 351/68/5 414/66/5 413/65/5
f 351/67/4 299/68/4 415/66/4 414/65/4
f 418/67/1 419/68/1 420/66/1 421/65/1
f 417/67/2 369/68/2 366/66/2 416/65/2
f 366/67/5 369/68/5 420/66/5 419/65/5
f 416/67/3 366/68/3 419/66/3 418/65/3
f 426/67/1 427/68/1 428/66/1 429/65/1
f 425/67/6 422/68/6 426/66/6 429/65/6
f 423/67/5 424/68/5 428/66/5 427/65/5
f 422/67/3 423/68/3 427/66/3 426/65/3
f 432/67/1 433/68/1 434/66/1 435/65/1
f 368/67/2 431/68/2 430/66/2 367/65/2
f 368/67/6 367/68/6 432/66/6 435/65/6
f 367/67/3 430/68/3 433/66/3 432/65/3
f 438/67/1 439/68/1 440/66/1 441/65/1
f 313/67/2 314/68/2 437/66/2 436/65/2
f 437/67/5 314/68/5 440/66/5 439/65/5
f 314/67/4 313/68/4 441/66/4 440/65/4
f 445/67/1 446/68/1 447/66/1 448/65/1
f 385/67/2 444/68/2 443/66/2 442/65/2
f 385/67/6 442/68/6 445/66/6 448/65/6
f 444/67/4 385/68/4 448/66/4 447/65/4
f 451/67/1 452/68/1 453/66/1 454/65/1
f 315/67/5 449/68/5 453/66/5 452/65/5
f 316/67/3 315/68/3 452/66/3 451/65/3
f 449/67/4 450/68/4 454/66/4 453/65/4
f 457/67/1 458/68/1 459/66/1 460/65/1
f 319/67/6 455/68/6 457/66/6 460/65/6
f 455/67/3 456/68/3 458/66/3 457/65/3
f 320/67/4 319/68/4 460/66/4 459/65/4
f 464/67/1 465/68/1 326/66/1 325/65/1
f 463/67/2 462/68/2 386/66/2 461/65/2
f 386/67/5 462/68/5 326/66/5 465/65/5
f 461/67/3 386/68/3 465/66/3 464/65/3
f 468/67/1 469/68/1 470/66/1 471/65/1
f 467/67/2 466/68/2 321/66/2 322/65/2
f 467/67/6 322/68/6 468/66/6 471/65/6
f 322/67/3 321/68/3 469/66/3 468/65/3
f 339/67/1 474/68/1 475/66/1 340/65/1
f 473/67/2 410/68/2 409/66/2 472/65/2
f 409/67/5 410/68/5 475/66/5 474/65/5
f 410/67/4 473/68/4 340/66/4 475/65/4
f 478/67/1 479/68/1 480/66/1 481/65/1
f 477/67/6 476/68/6 478/66/6 481/65/6
f 342/67/5 345/68/5 480/66/5 479/65/5
f 345/67/4 477/68/4 481/66/4 480/65/4
f 484/67/1 485/68/1 486/66/1 487/65/1
f 344/67/2 483/68/2 482/66/2 343/65/2
f 344/67/6 343/68/6 484/66/6 487/65/6
f 483/67/4 344/68/4 487/66/4 486/65/4
f 488/67/1 489/68/1 183/66/1 490/65/1
f 246/67/6 354/68/6 488/66/6 490/65/6
f 354/67/3 355/68/3 489/66/3 488/65/3
f 247/67/4 246/68/4 490/66/4 183/65/4
f 493/67/1 494/68/1 495/66/1 496/65/1
f 428/67/2 492/68/2 491/66/2 427/65/2
f 428/67/6 427/68/6 493/66/6 496/65/6
f 491/67/5 492/68/5 495/66/5 494/65/5
f 427/67/3 491/68/3 494/66/3 493/65/3
f 497/67/1 498/68/1 499/66/1 177/65/1
f 233/67/6 232/68/6 497/66/6 177/65/6
f 373/67/5 374/68/5 499/66/5 498/65/5
f 232/67/3 373/68/3 498/66/3 497/65/3
f 502/67/1 503/68/1 504/66/1 505/65/1
f 457/67/2 458/68/2 501/66/2 500/65/2
f 457/67/6 500/68/6 502/66/6 505/65/6
f 500/67/3 501/68/3 503/66/3 502/65/3
f 458/67/4 457/68/4 505/66/4 504/65/4
f 508/67/1 509/68/1 510/66/1 511/65/1
f 507/67/2 506/68/2 453/66/2 454/65/2
f 453/67/5 506/68/5 510/66/5 509/65/5
f 454/67/3 453/68/3 509/66/3 508/65/3
f 506/67/4 507/68/4 511/66/4 510/65/4
f 514/67/1 515/68/1 516/66/1 517/65/1
f 513/67/2 481/68/2 478/66/2 512/65/2
f 513/67/6 512/68/6 514/66/6 517/65/6
f 478/67/5 481/68/5 516/66/5 515/65/5
f 481/67/4 513/68/4 517/66/4 516/65/4
f 489/67/1 518/68/1 519/66/1 243/65/1
f 358/67/5 361/68/5 519/66/5 518/65/5
f 418/67/3 358/68/3 518/66/3 489/65/3
f 522/67/1 523/68/1 524/66/1 124/65/1
f 420/67/2 521/68/2 520/66/2 419/65/2
f 420/67/6 419/68/6 522/66/6 124/65/6
f 520/67/5 521/68/5 524/66/5 523/65/5
f 419/67/3 520/68/3 523/66/3 522/65/3
f 527/67/1 528/68/1 529/66/1 530/65/1
f 496/67/6 493/68/6 527/66/6 530/65/6
f 525/67/5 526/68/5 529/66/5 528/65/5
f 493/67/3 525/68/3 528/66/3 527/65/3
f 533/67/1 497/68/1 177/66/1 534/65/1
f 495/67/2 532/68/2 531/66/2 494/65/2
f 495/67/6 494/68/6 533/66/6 534/65/6
f 494/67/3 531/68/3 497/66/3 533/65/3
f 244/67/1 499/68/1 535/66/1 536/65/1
f 439/67/5 378/68/5 535/66/5 499/65/5
f 378/67/4 377/68/4 536/66/4 535/65/4
f 490/67/1 183/68/1 539/66/1 540/65/1
f 502/67/2 503/68/2 538/66/2 537/65/2
f 502/67/6 537/68/6 490/66/6 540/65/6
f 503/67/4 502/68/4 540/66/4 539/65/4
f 543/67/1 544/68/1 545/66/1 546/65/1
f 505/67/6 541/68/6 543/66/6 546/65/6
f 541/67/3 542/68/3 544/66/3 543/65/3
f 504/67/4 505/68/4 546/66/4 545/65/4
f 75/67/1 549/68/1 550/66/1 551/65/1
f 548/67/2 547/68/2 440/66/2 441/65/2
f 440/67/5 547/68/5 550/66/5 549/65/5
f 441/67/3 440/68/3 549/66/3 75/65/3
f 547/67/4 548/68/4 551/66/4 550/65/4
f 554/67/1 555/68/1 465/66/1 464/65/1
f 509/67/5 552/68/5 465/66/5 555/65/5
f 508/67/3 509/68/3 555/66/3 554/65/3
f 558/67/1 559/68/1 560/66/1 561/65/1
f 468/67/2 469/68/2 557/66/2 556/65/2
f 468/67/6 556/68/6 558/66/6 561/65/6
f 556/67/3 557/68/3 559/66/3 558/65/3
f 469/67/4 468/68/4 561/66/4 560/65/4
f 564/67/1 565/68/1 395/66/1 394/65/1
f 563/67/2 562/68/2 510/66/2 511/65/2
f 510/67/5 562/68/5 395/66/5 565/65/5
f 511/67/3 510/68/3 565/66/3 564/65/3
f 566/67/1 567/68/1 186/66/1 401/65/1
f 471/67/6 390/68/6 566/66/6 401/65/6
f 390/67/3 389/68/3 567/66/3 566/65/3
f 402/67/1 570/68/1 571/66/1 403/65/1
f 569/67/2 517/68/2 514/66/2 568/65/2
f 514/67/5 517/68/5 571/66/5 570/65/5
f 517/67/4 569/68/4 403/66/4 571/65/4
f 474/67/1 574/68/1 575/66/1 475/65/1
f 515/67/5 516/68/5 575/66/5 574/65/5
f 516/67/4 573/68/4 475/66/4 575/65/4
f 578/67/1 579/68/1 580/66/1 581/65/1
f 577/67/2 487/68/2 484/66/2 576/65/2
f 577/67/6 576/68/6 578/66/6 581/65/6
f 484/67/5 487/68/5 580/66/5 579/65/5
f 487/67/4 577/68/4 581/66/4 580/65/4
f 582/67/1 76/68/1 397/66/1 583/65/1
f 414/67/6 413/68/6 582/66/6 583/65/6
f 486/67/4 414/68/4 583/66/4 397/65/4
f 523/67/1 586/68/1 587/66/1 524/65/1
f 585/67/2 530/68/2 527/66/2 584/65/2
f 527/67/5 530/68/5 587/66/5 586/65/5
f 584/67/3 527/68/3 586/66/3 523/65/3
f 590/67/1 533/68/1 534/66/1 176/65/1
f 529/67/2 589/68/2 588/66/2 528/65/2
f 529/67/6 528/68/6 590/66/6 176/65/6
f 528/67/3 588/68/3 533/66/3 590/65/3
f 540/67/1 539/68/1 593/66/1 594/65/1
f 543/67/2 544/68/2 592/66/2 591/65/2
f 543/67/6 591/68/6 540/66/6 594/65/6
f 544/67/4 543/68/4 594/66/4 593/65/4
f 551/67/1 550/68/1 597/66/1 598/65/1
f 554/67/2 555/68/2 596/66/2 595/65/2
f 596/67/5 555/68/5 597/66/5 550/65/5
f 555/67/4 554/68/4 598/66/4 597/65/4
f 601/67/1 602/68/1 559/66/1 558/65/1
f 600/67/2 599/68/2 545/66/2 546/65/2
f 600/67/6 546/68/6 601/66/6 558/65/6
f 546/67/3 545/68/3 602/66/3 601/65/3
f 605/67/1 606/68/1 565/66/1 564/65/1
f 604/67/2 603/68/2 327/66/2 328/65/2
f 327/67/5 603/68/5 565/66/5 606/65/5
f 328/67/3 327/68/3 606/66/3 605/65/3
f 570/67/1 185/68/1 609/66/1 571/65/1
f 608/67/2 341/68/2 338/66/2 607/65/2
f 338/67/5 341/68/5 609/66/5 185/65/5
f 341/67/4 608/68/4 571/66/4 609/65/4
f 612/67/1 578/68/1 581/66/1 613/65/1
f 575/67/2 611/68/2 610/66/2 574/65/2
f 575/67/6 574/68/6 612/66/6 613/65/6
f 611/67/4 575/68/4 613/66/4 581/65/4
f 586/67/1 590/68/1 176/66/1 587/65/1
f 617/67/2 616/68/2 615/66/2 614/65/2
f 614/67/3 615/68/3 590/66/3 586/65/3
f 594/67/1 593/68/1 602/66/1 601/65/1
f 621/67/2 620/68/2 619/66/2 618/65/2
f 621/67/6 618/68/6 594/66/6 601/65/6
f 598/67/1 597/68/1 606/66/1 605/65/1
f 625/67/2 624/68/2 623/66/2 622/65/2
f 623/67/5 624/68/5 606/66/5 597/65/5
f 185/67/1 612/68/1 613/66/1 609/65/1
f 629/67/2 628/68/2 627/66/2 626/65/2
f 628/67/4 629/68/4 609/66/4 613/65/4
f 518/67/1 522/68/1 124/66/1 519/65/1
f 633/67/2 632/68/2 631/66/2 630/65/2
f 630/67/3 631/68/3 522/66/3 518/65/3
f 536/67/1 535/68/1 549/66/1 75/65/1
f 637/67/2 636/68/2 635/66/2 634/65/2
f 635/67/5 636/68/5 549/66/5 535/65/5
f 561/67/1 560/68/1 567/66/1 566/65/1
f 641/67/2 640/68/2 639/66/2 638/65/2
f 641/67/6 638/68/6 561/66/6 566/65/6
f 579/67/1 582/68/1 583/66/1 580/65/1
f 645/67/2 644/68/2 643/66/2 642/65/2
f 644/67/4 645/68/4 580/66/4 583/65/4
f 27/65/1 31/66/1 34/36/1 28/35/1
f 488/65/2 498/66/2 647/36/2 646/35/2
f 646/65/3 647/66/3 31/36/3 27/35/3
f 498/65/4 488/66/4 28/36/4 34/35/4
f 29/65/1 28/66/1 41/36/1 40/35/1
f 649/65/2 404/66/2 488/36/2 648/35/2
f 649/65/6 648/66/6 29/36/6 40/35/6
f 488/65/5 404/66/5 41/36/5 28/35/5
f 34/65/1 33/66/1 46/36/1 45/35/1
f 396/65/2 651/66/2 650/36/2 498/35/2
f 396/65/6 498/66/6 34/36/6 45/35/6
f 650/65/5 651/66/5 46/36/5 33/35/5
f 41/65/1 45/66/1 48/36/1 42/35/1
f 653/65/2 652/66/2 396/36/2 404/35/2
f 404/65/3 396/66/3 45/36/3 41/35/3
f 652/65/4 653/66/4 42/36/4 48/35/4
