#created with MagicaVoxel and VoxelOptimizer  - v:8 - f:6
o bloque
mtllib bloque.mtl
vn 0 1 0
vn 0 -1 0
vn -1 0 0
vn 1 0 0
vn 0 0 1
vn 0 0 -1
v -8 0 -8
v -8 0 8
v 8 0 8
v 8 0 -8
v -8 16 -8
v -8 16 8
v 8 16 8
v 8 16 -8
vt 0.0000 1.0000
vt 0.0000 0.7500
vt 0.2500 0.7500
vt 0.2500 1.0000
vt 0.5000 0.7500
vt 0.5000 1.0000
vt 0.7500 0.7500
vt 0.7500 1.0000
vt 1.0000 0.7500
vt 1.0000 1.0000
vt 0.0000 0.5000
vt 0.2500 0.5000
vt 0.0000 0.2500
vt 0.2500 0.2500
usemtl x
f 5/2/1 6/3/1 7/4/1 8/1/1
f 4/3/2 3/5/2 2/6/2 1/4/2
f 4/5/6 1/7/6 5/8/6 8/6/6
f 2/7/5 3/9/5 7/10/5 6/8/5
f 1/11/3 2/12/3 6/3/3 5/2/3
f 3/13/4 4/14/4 8/12/4 7/11/4
