#created with MagicaVoxel and VoxelOptimizer  - v:200 - f:166
o endWall
mtllib endWall.mtl
vn 0 1 0
vn 0 -1 0
vn -1 0 0
vn 1 0 0
vn 0 0 1
vn 0 0 -1
v -6 0 -2
v -6 0 -1
v 8 0 -1
v 8 0 -2
v -6 3 -2
v -6 3 -1
v 8 3 -1
v 8 3 -2
v -6 0 1
v -6 0 2
v 8 0 2
v 8 0 1
v -6 3 1
v -6 3 2
v 8 3 2
v 8 3 1
v -5 0 -3
v -5 0 3
v 8 0 3
v 8 0 -3
v -5 3 -3
v -5 3 3
v 8 3 3
v 8 3 -3
v -4 0 -4
v -4 0 4
v 8 0 4
v 8 0 -4
v -4 4 -4
v -4 4 4
v 8 4 4
v 8 4 -4
v -3 0 -5
v -3 0 5
v 0 0 5
v 0 0 -5
v -3 3 -5
v -3 3 5
v 0 3 5
v 0 3 -5
v 1 0 -5
v 1 0 5
v 8 0 5
v 8 0 -5
v 1 3 -5
v 1 3 5
v 8 3 5
v 8 3 -5
v -4 3 1
v -4 3 -1
v -6 8 -1
v -6 8 1
v -4 8 1
v -4 8 -1
v -5 3 -2
v -5 3 2
v -4 3 2
v -4 3 -2
v -5 16 -2
v -5 16 2
v -4 16 2
v -4 16 -2
v 0 8 -5
v 0 8 5
v 1 8 5
v 1 8 -5
v 4 3 -5
v 4 3 5
v 5 3 5
v 5 3 -5
v 4 4 -5
v 4 4 5
v 5 4 5
v 5 4 -5
v -6 4 -2
v -6 4 2
v 8 4 2
v 8 4 -2
v -6 7 -2
v -6 7 2
v 8 7 2
v 8 7 -2
v -5 4 -3
v -5 4 3
v 8 4 3
v 8 4 -3
v -5 7 -3
v -5 7 3
v 8 7 3
v 8 7 -3
v -3 4 -5
v -3 4 5
v -3 7 -5
v -3 7 5
v 4 7 5
v 4 7 -5
v 4 4 -4
v 4 4 4
v 4 16 -4
v 4 16 4
v 8 16 4
v 8 16 -4
v 8 4 5
v 8 4 -5
v 5 7 -5
v 5 7 5
v 8 7 5
v 8 7 -5
v -4 7 -4
v -4 7 4
v 4 7 4
v 4 7 -4
v -4 12 -4
v -4 12 4
v 4 12 4
v 4 12 -4
v 4 12 -5
v 4 12 5
v 5 12 5
v 5 12 -5
v -6 8 -2
v -5 8 -1
v -5 8 -2
v -6 11 -2
v -6 11 -1
v -5 11 -1
v -5 11 -2
v -6 8 2
v -5 8 2
v -5 8 1
v -6 11 1
v -6 11 2
v -5 11 2
v -5 11 1
v -5 8 -3
v -5 8 3
v -4 8 3
v -4 8 -3
v -5 11 -3
v -5 11 3
v -4 11 3
v -4 11 -3
v -3 8 -5
v -3 8 5
v -3 11 -5
v -3 11 5
v 0 11 5
v 0 11 -5
v 8 8 5
v 8 8 -5
v 1 11 -5
v 1 11 5
v 8 11 5
v 8 11 -5
v -6 16 -1
v -6 16 1
v -5 16 1
v -5 16 -1
v 0 16 -5
v 0 16 5
v 1 16 5
v 1 16 -5
v -6 12 -2
v -6 12 2
v 4 12 2
v 4 12 -2
v -6 15 -2
v -6 15 2
v 4 15 2
v 4 15 -2
v -5 12 -3
v -5 12 3
v 4 12 3
v 4 12 -3
v -5 15 -3
v -5 15 3
v 4 15 3
v 4 15 -3
v -3 12 -5
v -3 12 5
v -3 15 -5
v -3 15 5
v 4 15 5
v 4 15 -5
v 8 12 5
v 8 12 -5
v 5 15 -5
v 5 15 5
v 8 15 5
v 8 15 -5
v -4 15 -4
v -4 15 4
v 4 15 4
v 4 15 -4
v -4 16 -4
v -4 16 4
v 4 16 -5
v 4 16 5
v 5 16 5
v 5 16 -5
vt 0.0000 1.0000
vt 0.0000 0.8125
vt 0.1250 0.8125
vt 0.1250 1.0000
vt 0.0000 0.6094
vt 0.0938 0.6094
vt 0.0938 0.8125
vt 0.0000 0.4062
vt 0.0938 0.4062
vt 0.0000 0.2031
vt 0.0938 0.2031
vt 0.0000 0.0938
vt 0.1562 0.0938
vt 0.1562 0.2031
vt 0.0938 0.7031
vt 0.2500 0.7031
vt 0.2500 0.8125
vt 0.1250 0.8750
vt 0.2500 0.8750
vt 0.2500 1.0000
vt 0.0938 0.4844
vt 0.1562 0.4844
vt 0.1562 0.7031
vt 0.0938 0.2656
vt 0.1562 0.2656
vt 0.1562 0.5000
vt 0.2188 0.5000
vt 0.2188 0.7031
vt 0.1562 0.3594
vt 0.2500 0.3594
vt 0.2500 0.5000
vt 0.2188 0.5625
vt 0.3125 0.5625
vt 0.3125 0.7031
vt 0.4062 0.5000
vt 0.4062 0.5625
vt 0.0000 0.0156
vt 0.1562 0.0156
vt 0.1250 0.8281
vt 0.3438 0.8281
vt 0.3438 0.8750
vt 0.0938 0.2188
vt 0.3125 0.2188
vt 0.3125 0.2656
vt 0.1562 0.3125
vt 0.3750 0.3125
vt 0.3750 0.3594
vt 0.3594 0.2656
vt 0.3594 0.3125
vt 0.2500 0.9531
vt 0.4531 0.9531
vt 0.4531 1.0000
vt 0.2500 0.9062
vt 0.4531 0.9062
vt 0.3125 0.8281
vt 0.3125 0.6719
vt 0.3750 0.6719
vt 0.3750 0.8281
vt 0.3125 0.1094
vt 0.3750 0.1094
vt 0.3750 0.2656
vt 0.1562 0.2188
vt 0.1562 0.1406
vt 0.2812 0.1406
vt 0.2812 0.2188
vt 0.1562 0.0625
vt 0.2812 0.0625
vt 0.3438 0.9062
vt 0.3438 0.8438
vt 0.4688 0.8438
vt 0.4688 0.9062
vt 0.5156 0.2656
vt 0.5156 0.3125
vt 0.6094 0.9531
vt 0.6094 1.0000
vt 0.6094 0.9062
vt 0.3125 0.0156
vt 0.3125 0.0625
vt 0.2812 0.1094
vt 0.4375 0.0625
vt 0.4375 0.1094
vt 0.4688 0.0156
vt 0.4688 0.0625
vt 0.3125 0.6250
vt 0.4531 0.6250
vt 0.4531 0.6719
vt 0.3125 0.5781
vt 0.4531 0.5781
vt 0.4688 0.2656
vt 0.4688 0.0469
vt 0.4844 0.0469
vt 0.4844 0.2656
vt 0.5000 0.0469
vt 0.5000 0.2656
vt 0.5156 0.0469
vt 0.4688 0.0000
vt 0.5781 0.0000
vt 0.5781 0.0469
vt 0.4375 0.2656
vt 0.4531 0.0625
vt 0.4531 0.2656
vt 0.2500 0.4531
vt 0.3438 0.4531
vt 0.3438 0.5000
vt 0.2500 0.4062
vt 0.3438 0.4062
vt 0.2812 0.8125
vt 0.2812 0.8281
vt 0.2500 0.7656
vt 0.3125 0.7656
vt 0.3125 0.8125
vt 0.0000 0.0000
vt 0.1250 0.0000
vt 0.1250 0.0156
vt 0.2500 0.0000
vt 0.2500 0.0156
vt 0.3125 0.1406
vt 0.3750 0.1875
vt 0.4062 0.1875
vt 0.4062 0.2656
vt 0.4375 0.1875
vt 0.2500 0.7188
vt 0.2969 0.7188
vt 0.2969 0.7656
vt 0.3750 0.1406
vt 0.4219 0.1406
vt 0.4219 0.1875
vt 0.2500 0.8906
vt 0.3438 0.8906
vt 0.4219 0.1094
vt 0.3438 0.4219
vt 0.3594 0.4219
vt 0.3594 0.5000
vt 0.3125 0.7188
vt 0.4062 0.1094
vt 0.4062 0.1406
vt 0.4062 0.1250
vt 0.4219 0.1250
vt 0.2656 0.7031
vt 0.2656 0.7188
vt 0.2812 0.7031
vt 0.2812 0.7188
usemtl x
f 5/90/1 6/91/1 7/92/1 8/89/1
f 4/91/2 3/93/2 2/94/2 1/92/2
f 4/39/6 1/40/6 5/41/6 8/18/6
f 2/40/5 3/39/5 7/18/5 6/41/5
f 1/123/3 2/134/3 6/110/3 5/124/3
f 3/137/4 4/138/4 8/126/4 7/136/4
f 13/93/1 14/95/1 15/72/1 16/94/1
f 12/91/2 11/93/2 10/94/2 9/92/2
f 12/42/6 9/43/6 13/44/6 16/24/6
f 10/43/5 11/42/5 15/24/5 14/44/5
f 9/123/3 10/134/3 14/110/3 13/124/3
f 11/137/4 12/138/4 16/126/4 15/136/4
f 21/5/1 22/6/1 23/7/1 24/2/1
f 20/8/2 19/9/2 18/6/2 17/5/2
f 20/25/6 17/48/6 21/49/6 24/45/6
f 18/50/5 19/51/5 23/52/5 22/20/5
f 17/102/3 18/103/3 22/104/3 21/31/3
f 19/137/4 20/138/4 24/126/4 23/136/4
f 29/2/1 30/3/1 31/4/1 32/1/1
f 28/4/2 27/1/2 26/2/2 25/3/2
f 28/27/6 25/35/6 29/36/6 32/32/6
f 26/35/5 27/27/5 31/32/5 30/36/5
f 25/69/3 26/70/3 30/71/3 29/68/3
f 27/137/4 28/138/4 32/126/4 31/136/4
f 37/48/1 38/72/1 39/73/1 40/49/1
f 36/51/2 35/74/2 34/75/2 33/52/2
f 36/122/6 33/123/6 37/124/6 40/109/6
f 34/125/5 35/126/5 39/127/5 38/118/5
f 33/54/3 34/76/3 38/74/3 37/51/3
f 35/38/4 36/77/4 40/78/4 39/66/4
f 45/12/1 46/13/1 47/14/1 48/10/1
f 44/15/2 43/16/2 42/17/2 41/7/2
f 44/96/6 41/97/6 45/98/6 48/90/6
f 42/96/5 43/97/5 47/98/5 46/90/5
f 41/38/3 42/77/3 46/78/3 45/66/3
f 43/38/4 44/77/4 48/78/4 47/66/4
f 51/79/1 52/59/1 53/117/1 54/64/1
f 50/60/2 49/135/2 13/136/2 6/125/2
f 50/64/6 6/117/6 51/43/6 54/65/6
f 13/118/5 49/119/5 53/120/5 52/61/5
f 6/119/3 13/121/3 52/99/3 51/120/3
f 59/137/1 60/138/1 61/126/1 62/136/1
f 58/80/6 55/100/6 59/101/6 62/99/6
f 56/100/5 57/83/5 61/89/5 60/101/5
f 55/26/3 56/27/3 60/28/3 59/23/3
f 63/3/1 64/107/1 65/108/1 66/39/1
f 45/3/2 46/107/2 39/108/2 40/39/2
f 45/135/6 40/130/6 63/138/6 66/137/6
f 39/135/5 46/130/5 65/138/5 64/137/5
f 40/37/3 39/38/3 64/13/3 63/12/3
f 46/37/4 45/38/4 66/13/4 65/12/4
f 71/3/1 72/107/1 73/108/1 74/39/1
f 70/135/6 67/130/6 71/138/6 74/137/6
f 68/135/5 69/130/5 73/138/5 72/137/5
f 67/3/3 68/107/3 72/108/3 71/39/3
f 69/3/4 70/107/4 74/108/4 73/39/4
f 79/21/1 80/22/1 81/23/1 82/15/1
f 78/24/2 77/25/2 76/22/2 75/21/2
f 78/39/6 75/40/6 79/41/6 82/18/6
f 76/45/5 77/46/5 81/47/5 80/29/5
f 75/109/3 76/110/3 80/111/3 79/17/3
f 77/137/4 78/138/4 82/126/4 81/136/4
f 87/5/1 88/6/1 89/7/1 90/2/1
f 86/10/2 85/11/2 84/9/2 83/8/2
f 86/25/6 83/48/6 87/49/6 90/45/6
f 84/53/5 85/54/5 89/51/5 88/50/5
f 83/105/3 84/106/3 88/103/3 87/102/3
f 85/137/4 86/138/4 90/126/4 89/136/4
f 93/12/1 94/13/1 95/14/1 96/10/1
f 71/15/2 72/16/2 92/17/2 91/7/2
f 71/96/6 91/97/6 93/98/6 96/90/6
f 92/96/5 72/97/5 95/98/5 94/90/5
f 91/38/3 92/77/3 94/78/3 93/66/3
f 72/38/4 71/77/4 96/78/4 95/66/4
f 99/137/1 100/138/1 101/126/1 102/136/1
f 32/137/6 97/138/6 99/126/6 102/136/6
f 98/137/5 31/138/5 101/126/5 100/136/5
f 31/137/4 32/138/4 102/126/4 101/136/4
f 105/73/1 106/49/1 107/48/1 108/72/1
f 104/75/2 103/52/2 73/51/2 74/74/2
f 104/125/6 74/126/6 105/127/6 108/118/6
f 73/122/5 103/123/5 107/124/5 106/109/5
f 74/38/3 73/77/3 106/78/3 105/66/3
f 103/54/4 104/76/4 108/74/4 107/51/4
f 113/18/1 114/19/1 115/20/1 116/4/1
f 112/20/2 111/4/2 110/18/2 109/19/2
f 112/63/6 109/64/6 113/65/6 116/62/6
f 110/64/5 111/63/5 115/62/5 114/65/5
f 109/66/3 110/67/3 114/64/3 113/63/3
f 117/3/1 118/107/1 119/108/1 120/39/1
f 105/3/2 106/107/2 95/108/2 96/39/2
f 105/135/6 96/130/6 117/138/6 120/137/6
f 95/135/5 106/130/5 119/138/5 118/137/5
f 96/37/3 95/38/3 118/13/3 117/12/3
f 106/37/4 105/38/4 120/13/4 119/12/4
f 124/16/1 125/139/1 126/140/1 127/122/1
f 123/135/2 122/130/2 51/138/2 121/137/2
f 123/123/6 121/134/6 124/110/6 127/124/6
f 51/123/5 122/134/5 126/110/5 125/124/5
f 121/123/3 51/134/3 125/110/3 124/124/3
f 131/16/1 132/139/1 133/140/1 134/122/1
f 130/135/2 129/130/2 128/138/2 52/137/2
f 130/123/6 52/134/6 131/110/6 134/124/6
f 128/123/5 129/134/5 133/110/5 132/124/5
f 52/123/3 128/134/3 132/110/3 131/124/3
f 139/128/1 140/129/1 141/68/1 142/53/1
f 138/19/2 137/41/2 136/129/2 135/128/2
f 138/123/6 135/134/6 139/110/6 142/124/6
f 136/135/5 137/130/5 141/138/5 140/137/5
f 135/102/3 136/103/3 140/104/3 139/31/3
f 145/48/1 146/72/1 147/73/1 148/49/1
f 63/51/2 64/74/2 144/75/2 143/52/2
f 63/122/6 143/123/6 145/124/6 148/109/6
f 144/125/5 64/126/5 147/127/5 146/118/5
f 143/54/3 144/76/3 146/74/3 145/51/3
f 64/38/4 63/77/4 148/78/4 147/66/4
f 151/12/1 152/13/1 153/14/1 154/10/1
f 150/15/2 149/16/2 65/17/2 66/7/2
f 150/96/6 66/97/6 151/98/6 154/90/6
f 65/96/5 149/97/5 153/98/5 152/90/5
f 66/38/3 65/77/3 152/78/3 151/66/3
f 149/38/4 150/77/4 154/78/4 153/66/4
f 155/107/1 156/111/1 157/55/1 158/108/1
f 126/139/2 134/141/2 131/142/2 125/140/2
f 126/130/6 125/81/6 155/121/6 158/127/6
f 131/131/5 134/132/5 157/133/5 156/104/5
f 125/119/3 131/121/3 156/99/3 155/120/3
f 159/3/1 160/107/1 161/108/1 162/39/1
f 151/3/2 152/107/2 147/108/2 148/39/2
f 151/135/6 148/130/6 159/138/6 162/137/6
f 147/135/5 152/130/5 161/138/5 160/137/5
f 148/37/3 147/38/3 160/13/3 159/12/3
f 152/37/4 151/38/4 162/13/4 161/12/4
f 167/56/1 168/57/1 169/58/1 170/55/1
f 166/59/2 165/60/2 164/61/2 163/44/2
f 166/67/6 163/80/6 167/81/6 170/79/6
f 164/77/5 165/82/5 169/83/5 168/78/5
f 163/109/3 164/110/3 168/111/3 167/17/3
f 175/29/1 176/30/1 177/31/1 178/26/1
f 174/32/2 173/33/2 172/34/2 171/28/2
f 174/84/6 171/85/6 175/86/6 178/56/6
f 172/87/5 173/88/5 177/85/5 176/84/5
f 171/105/3 172/106/3 176/103/3 175/102/3
f 181/12/1 182/13/1 183/14/1 184/10/1
f 117/15/2 118/16/2 180/17/2 179/7/2
f 117/96/6 179/97/6 181/98/6 184/90/6
f 180/96/5 118/97/5 183/98/5 182/90/5
f 179/38/3 180/77/3 182/78/3 181/66/3
f 118/38/4 117/77/4 184/78/4 183/66/4
f 187/73/1 188/49/1 189/48/1 190/72/1
f 186/75/2 185/52/2 119/51/2 120/74/2
f 186/125/6 120/126/6 187/127/6 190/118/6
f 119/122/5 185/123/5 189/124/5 188/109/5
f 120/38/3 119/77/3 188/78/3 187/66/3
f 185/54/4 186/76/4 190/74/4 189/51/4
f 195/18/1 196/19/1 100/20/1 99/4/1
f 194/20/2 193/4/2 192/18/2 191/19/2
f 194/112/6 191/113/6 195/114/6 99/37/6
f 192/113/5 193/112/5 100/37/5 196/114/5
f 191/113/3 192/115/3 196/116/3 195/114/3
f 197/3/1 198/107/1 199/108/1 200/39/1
f 187/3/2 188/107/2 183/108/2 184/39/2
f 187/135/6 184/130/6 197/138/6 200/137/6
f 183/135/5 188/130/5 199/138/5 198/137/5
f 184/3/3 183/107/3 198/108/3 197/39/3
f 188/3/4 187/107/4 200/108/4 199/39/4
